<svg xmlns="http://www.w3.org/2000/svg" width="1200" height="630" viewBox="0 0 1200 630">
  <defs>
    <linearGradient id="bg-874787537" x1="0" y1="0" x2="1" y2="1">
      <stop offset="0%" stop-color="#2d1a3d"/>
      <stop offset="100%" stop-color="#1a0d28"/>
    </linearGradient>
    <radialGradient id="orb1-874787537" cx="50%" cy="50%" r="50%">
      <stop offset="0%" stop-color="#CE93D8" stop-opacity="0.25"/>
      <stop offset="100%" stop-color="#CE93D8" stop-opacity="0"/>
    </radialGradient>
    <radialGradient id="orb2-874787537" cx="50%" cy="50%" r="50%">
      <stop offset="0%" stop-color="#D97706" stop-opacity="0.15"/>
      <stop offset="100%" stop-color="#D97706" stop-opacity="0"/>
    </radialGradient>
    <linearGradient id="accent-line-874787537" x1="0" y1="0" x2="1" y2="0">
      <stop offset="0%" stop-color="#CE93D8"/>
      <stop offset="100%" stop-color="#D97706"/>
    </linearGradient>
  </defs>

  <!-- Background -->
  <rect width="1200" height="630" fill="url(#bg-874787537)"/>

  <!-- Glow orbs -->
  <ellipse cx="846.3030149461702" cy="-53.45011199824512" rx="350" ry="300" fill="url(#orb1-874787537)"/>
  <ellipse cx="-61.51825024280697" cy="561.8701009079814" rx="300" ry="280" fill="url(#orb2-874787537)"/>

  <!-- Category decorations -->
  <polygon points="251.12611697381362,141.83510164669715 252.57447600671463,146.0018453700672 256.98485233168054,146.09172204451616 253.46961111696038,148.75678796241812 254.74701455606615,152.97907852539345 251.12611697381362,150.45943612154574 247.5052193915611,152.97907852539345 248.78262283066687,148.75678796241812 245.2673816159467,146.09172204451616 249.6777579409126,146.0018453700672" fill="#CE93D8" opacity="0.047552660731598737"/><polygon points="222.429326901678,507.7313595524523 223.68594090268715,511.34647733917706 227.51243731260752,511.4244554405394 224.4625710660498,513.736699207432 225.57086190420088,517.4000101111768 222.429326901678,515.2139375626668 219.2877918991551,517.4000101111768 220.3960827373062,513.736699207432 217.34621649074847,511.4244554405394 221.17271290066884,511.34647733917706" fill="#CE93D8" opacity="0.0602051492407918"/><polygon points="516.1332800853997,296.92131553879005 518.1492687656532,302.72105716984555 524.2881255993626,302.84615761399783 519.3952182909849,306.55569551211016 521.1732517860335,312.4327534696595 516.1332800853997,308.9256323421933 511.0933083847661,312.4327534696595 512.8713418798146,306.55569551211016 507.9784345714369,302.84615761399783 514.1172914051463,302.72105716984555" fill="#CE93D8" opacity="0.05174378448165953"/><polygon points="14.90314221335575,477.14615873326545 17.43598692376501,484.43282906819627 25.148714287524676,484.5900025688933 19.00137104302332,489.2505860013931 21.235253989378904,496.6343949018855 14.90314221335575,492.2281235356443 8.571030437332597,496.6343949018855 10.80491338368818,489.2505860013931 4.657570139186825,484.5900025688933 12.370297502946487,484.43282906819627" fill="#CE93D8" opacity="0.07689228681847453"/><polygon points="354.42762253666297,299.3301979613956 356.6857584913403,305.8265663354872 363.56197435137824,305.9666930205492 358.0813632625491,310.1217961642397 360.07296242335633,316.7047675924305 354.42762253666297,312.7763941879012 348.7822826499696,316.7047675924305 350.77388181077686,310.1217961642397 345.2932707219477,305.9666930205492 352.1694865819856,305.8265663354872" fill="#CE93D8" opacity="0.07201647096313536"/><polygon points="980.3564065657556,124.05225523803384 981.7446275402287,128.04598945768433 985.9718783672382,128.13213431662584 982.6025952863487,130.68654266534492 983.8269590019385,134.73351733577732 980.3564065657556,132.31849429678172 976.8858541295727,134.73351733577732 978.1102178451625,130.68654266534492 974.740934764273,128.13213431662584 978.9681855912825,128.04598945768433" fill="#CE93D8" opacity="0.077311722477898"/><polygon points="223.70826415345073,253.05620903111995 225.14887981932054,257.20067607775303 229.53567693370806,257.29007224421883 226.03922926555364,259.9408899107578 227.30980331812526,264.14060682673073 223.70826415345073,261.63443519599736 220.1067249887762,264.14060682673073 221.3772990413478,259.9408899107578 217.8808513731934,257.29007224421883 222.2676484875809,257.20067607775303" fill="#CE93D8" opacity="0.05544916406273842"/><polygon points="157.9727990492247,470.07190223955547 160.72302691164094,477.9839561041331 169.09770444471584,478.1546191294161 162.42276120742116,483.21520036382805 164.84836870526533,491.23272977865344 157.9727990492247,486.44828711977226 151.09722939318408,491.23272977865344 153.52283689102825,483.21520036382805 146.84789365373356,478.1546191294161 155.22257118680847,477.9839561041331" fill="#CE93D8" opacity="0.08644100737757981"/><polygon points="956.7639251947403,236.04592909812928 958.507268405561,241.06130457917808 963.8158966176513,241.1694862431526 959.5847137639047,244.37734042075815 961.1222832217923,249.4595758471027 956.7639251947403,246.42676327876745 952.4055671676883,249.4595758471027 953.9431366255759,244.37734042075815 949.7119537718293,241.1694862431526 955.0205819839196,241.06130457917808" fill="#CE93D8" opacity="0.07593332746997475"/><polygon points="1204.1113376999274,521.7284154324792 1206.0381033754663,527.2714738886939 1211.905268578374,527.3910376760049 1207.228910051306,530.9363999908842 1208.9282518887746,536.5533529314806 1204.1113376999274,533.2014488882944 1199.2944235110801,536.5533529314806 1200.9937653485488,530.9363999908842 1196.3174068214807,527.3910376760049 1202.1845720243884,527.2714738886939" fill="#CE93D8" opacity="0.04204606357961893"/><polygon points="160.90536194713786,327.3023971452843 161.96677614765534,330.35595006789333 165.1988725785855,330.4218152134742 162.62276619971692,332.374879851674 163.55889744843154,335.46913967292596 160.90536194713786,333.62264707894997 158.2518264458442,335.46913967292596 159.1879576945588,332.374879851674 156.61185131569022,330.4218152134742 159.8439477466204,330.35595006789333" fill="#CE93D8" opacity="0.04335555234458298"/><polygon points="454.3177568060346,243.02097081379034 456.5702451320493,249.50109168243105 463.42926348291996,249.64086790875237 457.9623594767887,253.78557908310114 459.9489776210714,260.3520864104276 454.3177568060346,256.43353792108593 448.6865359909978,260.3520864104276 450.67315413528047,253.78557908310114 445.2062501291492,249.64086790875237 452.0652684800199,249.50109168243105" fill="#CE93D8" opacity="0.05006898157298565"/><rect x="597.0422632526606" y="349.64552882593125" width="113.82375201676041" height="82.54667203873396" rx="8" fill="none" stroke="#CE93D8" stroke-width="1.5" opacity="0.06"/><rect x="964.5513202995062" y="382.9516837140545" width="136.63523524533957" height="73.63677928224206" rx="8" fill="none" stroke="#CE93D8" stroke-width="1.5" opacity="0.06"/><rect x="171.23635835014284" y="332.31147821061313" width="125.66725239623338" height="56.51888714171946" rx="8" fill="none" stroke="#CE93D8" stroke-width="1.5" opacity="0.06"/>

  <!-- Large icon watermark -->
  <polygon points="1059.663541316986,147.89729530271143 1083.338119888803,216.00603037923835 1155.4292233133108,217.47513599647863 1097.9698141155159,261.03775482177474 1118.8499877465285,330.05444710281955 1059.663541316986,288.8688910992816 1000.4770948874435,330.05444710281955 1021.3572685184562,261.03775482177474 963.8978593206614,217.4751359964786 1035.9889627451691,216.00603037923835" fill="#CE93D8" opacity="0.1"/>

  <!-- Subtle grid overlay -->
  <rect width="1200" height="630" fill="url(#bg-874787537)" opacity="0"/>

  <!-- Bottom gradient overlay for text readability -->
  <rect x="0" y="300" width="1200" height="330" fill="url(#bg-874787537)" opacity="0.3"/>

  <!-- Accent line -->
  <rect x="80" y="240" width="60" height="4" rx="2" fill="url(#accent-line-874787537)"/>

  <!-- Category badge -->
  <rect x="80" y="200" width="109" height="30" rx="15" fill="#CE93D8" opacity="0.2"/>
  <text x="96" y="220" font-family="'Fira Sans', 'Segoe UI', Arial, sans-serif" font-size="12" font-weight="700" fill="#CE93D8" letter-spacing="2" text-anchor="start">REVIEWS</text>

  <!-- Title -->
  <text x="80" y="300" font-family="'Fira Sans', 'Segoe UI', Arial, sans-serif" font-size="42" font-weight="800" fill="white" letter-spacing="-0.5">Aave Protocol Review: The Leading DeFi</text>
  <text x="80" y="352.5" font-family="'Fira Sans', 'Segoe UI', Arial, sans-serif" font-size="42" font-weight="800" fill="white" letter-spacing="-0.5">Lending Platform</text>

  <!-- Author bar -->
  <g transform="translate(80, 435)">
    <!-- Author avatar circle -->
    <circle cx="16" cy="12" r="16" fill="#CE93D8" opacity="0.2"/>
    <text x="16" y="17" font-family="'Fira Sans', Arial, sans-serif" font-size="13" font-weight="700" fill="#CE93D8" text-anchor="middle">YK</text>

    <text x="44" y="10" font-family="'Fira Sans', Arial, sans-serif" font-size="14" font-weight="600" fill="#CE93D8">Yosef Kamel</text>
    <text x="44" y="28" font-family="'Fira Sans', Arial, sans-serif" font-size="12" font-weight="400" fill="white" opacity="0.5">Crypto Pointers</text>
  </g>

  <!-- Branding: bottom bar -->
  <rect x="0" y="610" width="1200" height="20" fill="#CE93D8" opacity="0.08"/>
  <text x="1120" y="600" font-family="'Fira Sans', Arial, sans-serif" font-size="11" font-weight="600" fill="white" opacity="0.25" text-anchor="end">cryptopointers.com</text>

  <!-- Corner accent -->
  <rect x="0" y="0" width="4" height="630" fill="#CE93D8" opacity="0.3"/>
</svg>