<svg xmlns="http://www.w3.org/2000/svg" width="1200" height="630" viewBox="0 0 1200 630">
  <defs>
    <linearGradient id="bg-1832614474" x1="0" y1="0" x2="1" y2="1">
      <stop offset="0%" stop-color="#2d1a3d"/>
      <stop offset="100%" stop-color="#1a0d28"/>
    </linearGradient>
    <radialGradient id="orb1-1832614474" cx="50%" cy="50%" r="50%">
      <stop offset="0%" stop-color="#CE93D8" stop-opacity="0.25"/>
      <stop offset="100%" stop-color="#CE93D8" stop-opacity="0"/>
    </radialGradient>
    <radialGradient id="orb2-1832614474" cx="50%" cy="50%" r="50%">
      <stop offset="0%" stop-color="#D97706" stop-opacity="0.15"/>
      <stop offset="100%" stop-color="#D97706" stop-opacity="0"/>
    </radialGradient>
    <linearGradient id="accent-line-1832614474" x1="0" y1="0" x2="1" y2="0">
      <stop offset="0%" stop-color="#CE93D8"/>
      <stop offset="100%" stop-color="#D97706"/>
    </linearGradient>
  </defs>

  <!-- Background -->
  <rect width="1200" height="630" fill="url(#bg-1832614474)"/>

  <!-- Glow orbs -->
  <ellipse cx="876.8483147025108" cy="43.80903718993068" rx="350" ry="300" fill="url(#orb1-1832614474)"/>
  <ellipse cx="99.557038792409" cy="514.8723205085844" rx="300" ry="280" fill="url(#orb2-1832614474)"/>

  <!-- Category decorations -->
  <polygon points="492.4219541796483,409.2447501871269 495.22679823375984,417.3139278509637 503.76778671138715,417.4879800370619 496.96028719234386,422.6490582806727 499.4340643149272,430.82580611133443 492.4219541796483,425.9463502206467 485.40984404436944,430.82580611133443 487.88362116695276,422.6490582806727 481.0761216479095,417.4879800370619 489.6171101255368,417.3139278509637" fill="#CE93D8" opacity="0.07004465986974537"/><polygon points="124.6397735979408,518.7963632187806 125.56281533933237,521.4518362713761 128.37355587445694,521.5091148329823 126.13328650854726,523.2075659973018 126.94737795141974,525.8984391477967 124.6397735979408,524.2926666429826 122.33216924446188,525.8984391477967 123.14626068733435,523.2075659973018 120.90599132142466,521.5091148329823 123.71673185654923,521.4518362713761" fill="#CE93D8" opacity="0.08422488946933299"/><polygon points="10.87855171971023,354.72278987439347 12.63155019391607,359.76594231349844 17.96957950343961,359.8747231265405 13.714962833201984,363.10034355739634 15.261047905224828,368.2107262362851 10.87855171971023,365.1611168582551 6.4960555341956345,368.2107262362851 8.042140606218478,363.10034355739634 3.7875239359808486,359.87472312654046 9.125553245504392,359.76594231349844" fill="#CE93D8" opacity="0.04745443147607148"/><polygon points="912.5678061796352,429.42796041080726 913.6492739454528,432.5392048763607 916.942435186711,432.6063144286937 914.3176577824655,434.5962788080487 915.2714755941793,437.7489992579137 912.5678061796352,435.86762041520325 909.8641367650912,437.7489992579137 910.8179545768049,434.5962788080487 908.1931771725594,432.6063144286937 911.4863384138176,432.5392048763607" fill="#CE93D8" opacity="0.06409788406919688"/><polygon points="963.7532584192231,48.814636087603866 965.6240454580989,54.19665116461415 971.3207509557571,54.312741245759014 966.7802554338367,57.75509957246061 968.4302260164123,63.20886226537515 963.7532584192231,59.95434163572267 959.0762908220339,63.20886226537515 960.7262614046095,57.75509957246061 956.1857658826891,54.31274124575901 961.8824713803474,54.19665116461415" fill="#CE93D8" opacity="0.05975662378128618"/><polygon points="1030.7616796935908,185.29912538020872 1031.895999904366,188.562419571202 1035.3501013314906,188.6328088365629 1032.5970483487508,190.72002482724773 1033.5974802205283,194.02682197667718 1030.7616796935908,192.05349820978938 1027.9258791666534,194.02682197667718 1028.9263110384309,190.72002482724773 1026.1732580556911,188.6328088365629 1029.6273594828158,188.562419571202" fill="#CE93D8" opacity="0.06651749210897834"/><polygon points="1105.9777314690873,277.66384766818953 1108.7460673383684,285.627995952889 1117.1758852910184,285.7997826549683 1110.4569929978597,290.893683688436 1112.8985711422902,298.9640019938357 1105.9777314690873,294.1480576831475 1099.0568917958844,298.9640019938357 1101.4984699403149,290.893683688436 1094.7795776471562,285.7997826549683 1103.2093955998062,285.627995952889" fill="#CE93D8" opacity="0.08414481294341386"/><polygon points="515.3195392815396,57.04043670101091 517.1578740086981,62.32909062717062 522.7557594596439,62.44316690801523 518.2940273527813,65.82581106996211 519.9153760994358,71.18496801499397 515.3195392815396,67.98690315276384 510.7237024636434,71.18496801499397 512.3450512102979,65.82581106996211 507.8833191034354,62.44316690801523 513.4812045543812,62.32909062717062" fill="#CE93D8" opacity="0.04380825478583574"/><polygon points="884.8228102419525,167.76147673474625 887.4659394259376,175.36542139711804 895.5144923828137,175.5294385059973 889.099483098297,180.39295186479563 891.4306332019149,188.09826467519127 884.8228102419525,183.50013657329603 878.2149872819901,188.09826467519127 880.5461373856081,180.39295186479563 874.1311281010913,175.52943850599726 882.1796810579675,175.36542139711804" fill="#CE93D8" opacity="0.06044671564828605"/><polygon points="520.2537447595969,294.38639434669165 522.5977625087368,301.1298336609988 529.7354957304502,301.27528966697275 524.0464451479382,305.58842037026074 526.1137891324465,312.4217564401276 520.2537447595969,308.3439784983732 514.3937003867472,312.4217564401276 516.4610443712555,305.58842037026074 510.77199378874354,301.27528966697275 517.909727010457,301.1298336609988" fill="#CE93D8" opacity="0.08684078191407024"/><polygon points="874.0493495678529,77.2116997438483 875.1613772003714,80.41086103794362 878.5475958324627,80.47986695652854 875.8486480736968,82.52606329035748 876.829418649149,85.7678725875632 874.0493495678529,83.83333017542958 871.2692804865568,85.7678725875632 872.250051062009,82.52606329035748 869.5511033032432,80.47986695652854 872.9373219353345,80.41086103794362" fill="#CE93D8" opacity="0.09003978988155723"/><polygon points="283.5024752407335,85.99602532093414 285.46607431942505,91.64504876781078 291.4454003647359,91.76689822028415 286.67964529033446,95.38003616617237 288.41147293746246,101.10436671618814 283.5024752407335,97.68838532591239 278.5934775440045,101.10436671618814 280.3253051911325,95.38003616617237 275.55955011673103,91.76689822028415 281.5388761620419,91.64504876781078" fill="#CE93D8" opacity="0.085562117039226"/><rect x="545.5649129580706" y="456.74378983676434" width="108.46606591250747" height="85.14699711464345" rx="8" fill="none" stroke="#CE93D8" stroke-width="1.5" opacity="0.06"/><rect x="885.5389810632914" y="349.3476837174967" width="104.03411537408829" height="62.89367317222059" rx="8" fill="none" stroke="#CE93D8" stroke-width="1.5" opacity="0.06"/><rect x="413.0968989338726" y="244.73313090857118" width="90.01915034838021" height="79.54584635794163" rx="8" fill="none" stroke="#CE93D8" stroke-width="1.5" opacity="0.06"/>

  <!-- Large icon watermark -->
  <polygon points="1005.2579440642148,106.7788346298039 1027.8850252584887,171.8740537037537 1096.7864101605617,173.27815777189673 1041.8693305027537,214.91331973286117 1061.8256470498995,280.87632284466537 1005.2579440642148,241.5130489896983 948.6902410785301,280.87632284466537 968.6465576256761,214.91331973286117 913.729477967868,173.2781577718967 982.6308628699409,171.8740537037537" fill="#CE93D8" opacity="0.1"/>

  <!-- Subtle grid overlay -->
  <rect width="1200" height="630" fill="url(#bg-1832614474)" opacity="0"/>

  <!-- Bottom gradient overlay for text readability -->
  <rect x="0" y="300" width="1200" height="330" fill="url(#bg-1832614474)" opacity="0.3"/>

  <!-- Accent line -->
  <rect x="80" y="240" width="60" height="4" rx="2" fill="url(#accent-line-1832614474)"/>

  <!-- Category badge -->
  <rect x="80" y="200" width="109" height="30" rx="15" fill="#CE93D8" opacity="0.2"/>
  <text x="96" y="220" font-family="'Fira Sans', 'Segoe UI', Arial, sans-serif" font-size="12" font-weight="700" fill="#CE93D8" letter-spacing="2" text-anchor="start">REVIEWS</text>

  <!-- Title -->
  <text x="80" y="300" font-family="'Fira Sans', 'Segoe UI', Arial, sans-serif" font-size="42" font-weight="800" fill="white" letter-spacing="-0.5">Arbitrum Review: Ethereum&apos;s Leading</text>
  <text x="80" y="352.5" font-family="'Fira Sans', 'Segoe UI', Arial, sans-serif" font-size="42" font-weight="800" fill="white" letter-spacing="-0.5">Layer 2 Network</text>

  <!-- Author bar -->
  <g transform="translate(80, 435)">
    <!-- Author avatar circle -->
    <circle cx="16" cy="12" r="16" fill="#CE93D8" opacity="0.2"/>
    <text x="16" y="17" font-family="'Fira Sans', Arial, sans-serif" font-size="13" font-weight="700" fill="#CE93D8" text-anchor="middle">YK</text>

    <text x="44" y="10" font-family="'Fira Sans', Arial, sans-serif" font-size="14" font-weight="600" fill="#CE93D8">Yosef Kamel</text>
    <text x="44" y="28" font-family="'Fira Sans', Arial, sans-serif" font-size="12" font-weight="400" fill="white" opacity="0.5">Crypto Pointers</text>
  </g>

  <!-- Branding: bottom bar -->
  <rect x="0" y="610" width="1200" height="20" fill="#CE93D8" opacity="0.08"/>
  <text x="1120" y="600" font-family="'Fira Sans', Arial, sans-serif" font-size="11" font-weight="600" fill="white" opacity="0.25" text-anchor="end">cryptopointers.com</text>

  <!-- Corner accent -->
  <rect x="0" y="0" width="4" height="630" fill="#CE93D8" opacity="0.3"/>
</svg>