<svg xmlns="http://www.w3.org/2000/svg" width="1200" height="630" viewBox="0 0 1200 630">
  <defs>
    <linearGradient id="bg-337563589" x1="0" y1="0" x2="1" y2="1">
      <stop offset="0%" stop-color="#2d1a3d"/>
      <stop offset="100%" stop-color="#1a0d28"/>
    </linearGradient>
    <radialGradient id="orb1-337563589" cx="50%" cy="50%" r="50%">
      <stop offset="0%" stop-color="#CE93D8" stop-opacity="0.25"/>
      <stop offset="100%" stop-color="#CE93D8" stop-opacity="0"/>
    </radialGradient>
    <radialGradient id="orb2-337563589" cx="50%" cy="50%" r="50%">
      <stop offset="0%" stop-color="#D97706" stop-opacity="0.15"/>
      <stop offset="100%" stop-color="#D97706" stop-opacity="0"/>
    </radialGradient>
    <linearGradient id="accent-line-337563589" x1="0" y1="0" x2="1" y2="0">
      <stop offset="0%" stop-color="#CE93D8"/>
      <stop offset="100%" stop-color="#D97706"/>
    </linearGradient>
  </defs>

  <!-- Background -->
  <rect width="1200" height="630" fill="url(#bg-337563589)"/>

  <!-- Glow orbs -->
  <ellipse cx="944.6567010134459" cy="-99.67667884193361" rx="350" ry="300" fill="url(#orb1-337563589)"/>
  <ellipse cx="88.73859313316643" cy="474.1574893705547" rx="300" ry="280" fill="url(#orb2-337563589)"/>

  <!-- Category decorations -->
  <polygon points="1024.7598239718936,579.011007156549 1026.3627499530353,583.6224202241851 1031.243795769237,583.7218884177064 1027.353412690831,586.6713666231921 1028.7671389247475,591.3442544152239 1024.7598239718936,588.555719127655 1020.7525090190397,591.3442544152239 1022.1662352529563,586.6713666231921 1018.2758521745502,583.7218884177064 1023.1568979907521,583.6224202241851" fill="#CE93D8" opacity="0.06904185452032835"/><polygon points="1032.1447546300478,532.8836534631904 1034.6028525747686,539.9552869117556 1042.087969685634,540.107822066177 1036.1220406522823,544.6308670477925 1038.2899994918498,551.7967724062694 1032.1447546300478,547.5205344889872 1025.9995097682458,551.7967724062694 1028.1674686078134,544.6308670477925 1022.2015395744614,540.107822066177 1029.686656685327,539.9552869117556" fill="#CE93D8" opacity="0.062130074524320664"/><polygon points="1211.813476533629,86.18514345176519 1214.5934448062415,94.18275667331193 1223.0586844154623,94.35526521417805 1216.3115596863622,99.47057055483562 1218.76339721516,107.57479991798728 1211.813476533629,102.73861925980076 1204.863555852098,107.57479991798728 1207.3153933808958,99.47057055483562 1200.5682686517957,94.35526521417805 1209.0335082610166,94.18275667331193" fill="#CE93D8" opacity="0.0937839404726401"/><polygon points="260.61953473463655,431.02189980177207 262.4899923339428,436.4029671232693 268.185694660119,436.51903676132497 263.64599870482954,439.96078889981726 265.2956787329021,445.4135912026948 260.61953473463655,442.1596436836384 255.94339073637101,445.4135912026948 257.59307076444355,439.96078889981726 253.05337480915406,436.51903676132497 258.7490771353303,436.4029671232693" fill="#CE93D8" opacity="0.08682970261666924"/><polygon points="1140.0227530892007,2.154728889325633 1140.988296908537,4.932474985056994 1143.9284598824843,4.992390976565587 1141.585035806514,6.76904846735348 1142.4366126375412,9.583824682306801 1140.0227530892007,7.904113302249462 1137.6088935408602,9.583824682306801 1138.4604703718874,6.76904846735348 1136.1170462959171,4.992390976565586 1139.0572092698644,4.932474985056994" fill="#CE93D8" opacity="0.043920828299596905"/><polygon points="46.32247048756108,356.6399243360851 48.98270641710653,364.2930829178458 57.083350867806594,364.458161571112 50.62682263965928,369.3531523491992 52.973060311424696,377.1083351494954 46.32247048756108,372.48044724320994 39.67188066369746,377.1083351494954 42.01811833546287,369.3531523491992 35.56159010731556,364.458161571112 43.662234558015626,364.2930829178458" fill="#CE93D8" opacity="0.058292105738073585"/><polygon points="1039.5522747943178,21.665296133700757 1040.8123667329967,25.290419502347014 1044.6494537586482,25.368613424141085 1041.5911463800498,27.68725680117006 1042.702504641015,31.360706671198706 1039.5522747943178,29.16858371734619 1036.4020449476207,31.360706671198706 1037.5134032085857,27.68725680117006 1034.4550958299874,25.368613424141085 1038.2921828556389,25.290419502347014" fill="#CE93D8" opacity="0.07429803155828267"/><polygon points="710.46289533237,166.81881783935242 712.3542177016521,172.25991043591077 718.113455025324,172.37727481932717 713.5231192095516,175.85741936335205 715.1912012555755,181.37104713793042 710.46289533237,178.08080215534196 705.7345894091644,181.37104713793042 707.4026714551883,175.85741936335205 702.8123356394159,172.37727481932717 708.5715729630878,172.25991043591077" fill="#CE93D8" opacity="0.09747475699987262"/><polygon points="56.97667559236288,123.56376500809566 58.475783018932134,127.87650537041007 63.04069251480398,127.9695311927933 59.40228236133932,130.72797714374036 60.724444158786014,135.09821062611903 56.97667559236288,132.4902836176194 53.22890702593975,135.09821062611903 54.551068823386444,130.72797714374036 50.91265866992178,127.9695311927933 55.47756816579363,127.87650537041007" fill="#CE93D8" opacity="0.07925031055696308"/><polygon points="82.13684883294627,53.933864772180094 84.76915838055116,61.506682724287515 92.78476462528518,61.670028429934206 86.39601514988183,66.51363302059866 88.71762270195848,74.18740417071207 82.13684883294627,69.6080984837003 75.55607496393407,74.18740417071207 77.87768251601071,66.51363302059866 71.48893304060736,61.670028429934206 79.50453928534138,61.506682724287515" fill="#CE93D8" opacity="0.059672327456064524"/><polygon points="785.2597581977025,74.81023310506717 786.8252126933878,79.31384550085106 791.5921546523532,79.4109884335613 787.7927167795627,82.29151689902133 789.1733944369159,86.855166928987 785.2597581977025,84.131819030419 781.346121958489,86.855166928987 782.7267996158422,82.29151689902133 778.9273617430517,79.4109884335613 783.6943037020171,79.31384550085106" fill="#CE93D8" opacity="0.055632421718910335"/><polygon points="990.610853516031,224.9589570289012 993.3508122063947,232.84146779869215 1001.6942192379789,233.01149357933315 995.0441998048102,238.05317893239206 997.4607502419403,246.0407714135829 990.610853516031,241.27419355256484 983.7609567901218,246.0407714135829 986.1775072272519,238.05317893239206 979.5274877940832,233.01149357933315 987.8708948256674,232.84146779869215" fill="#CE93D8" opacity="0.04790257420390844"/><rect x="285.3392865508795" y="308.6607058066875" width="116.39266165904701" height="67.64103597030044" rx="8" fill="none" stroke="#CE93D8" stroke-width="1.5" opacity="0.06"/><rect x="938.6870074085891" y="19.624519511125982" width="121.85962129384279" height="53.80149586126208" rx="8" fill="none" stroke="#CE93D8" stroke-width="1.5" opacity="0.06"/><rect x="480.68631207570434" y="494.1808278672397" width="118.43129883054644" height="84.23638713546097" rx="8" fill="none" stroke="#CE93D8" stroke-width="1.5" opacity="0.06"/>

  <!-- Large icon watermark -->
  <polygon points="1056.693073976785,124.21648064255714 1080.1520656574794,191.70499980229812 1151.5866886796964,193.16072736037714 1094.6505198579496,236.32665360957458 1115.340553178521,304.7148618785683 1056.693073976785,263.90435229670254 998.0455947750489,304.7148618785683 1018.7356280956203,236.32665360957458 961.7994592738735,193.1607273603771 1033.2340822960905,191.70499980229812" fill="#CE93D8" opacity="0.1"/>

  <!-- Subtle grid overlay -->
  <rect width="1200" height="630" fill="url(#bg-337563589)" opacity="0"/>

  <!-- Bottom gradient overlay for text readability -->
  <rect x="0" y="300" width="1200" height="330" fill="url(#bg-337563589)" opacity="0.3"/>

  <!-- Accent line -->
  <rect x="80" y="240" width="60" height="4" rx="2" fill="url(#accent-line-337563589)"/>

  <!-- Category badge -->
  <rect x="80" y="200" width="109" height="30" rx="15" fill="#CE93D8" opacity="0.2"/>
  <text x="96" y="220" font-family="'Fira Sans', 'Segoe UI', Arial, sans-serif" font-size="12" font-weight="700" fill="#CE93D8" letter-spacing="2" text-anchor="start">REVIEWS</text>

  <!-- Title -->
  <text x="80" y="300" font-family="'Fira Sans', 'Segoe UI', Arial, sans-serif" font-size="42" font-weight="800" fill="white" letter-spacing="-0.5">Base Network Review: Coinbase&apos;s Layer</text>
  <text x="80" y="352.5" font-family="'Fira Sans', 'Segoe UI', Arial, sans-serif" font-size="42" font-weight="800" fill="white" letter-spacing="-0.5">2 Bet on Mass Adoption</text>

  <!-- Author bar -->
  <g transform="translate(80, 435)">
    <!-- Author avatar circle -->
    <circle cx="16" cy="12" r="16" fill="#CE93D8" opacity="0.2"/>
    <text x="16" y="17" font-family="'Fira Sans', Arial, sans-serif" font-size="13" font-weight="700" fill="#CE93D8" text-anchor="middle">YK</text>

    <text x="44" y="10" font-family="'Fira Sans', Arial, sans-serif" font-size="14" font-weight="600" fill="#CE93D8">Yosef Kamel</text>
    <text x="44" y="28" font-family="'Fira Sans', Arial, sans-serif" font-size="12" font-weight="400" fill="white" opacity="0.5">Crypto Pointers</text>
  </g>

  <!-- Branding: bottom bar -->
  <rect x="0" y="610" width="1200" height="20" fill="#CE93D8" opacity="0.08"/>
  <text x="1120" y="600" font-family="'Fira Sans', Arial, sans-serif" font-size="11" font-weight="600" fill="white" opacity="0.25" text-anchor="end">cryptopointers.com</text>

  <!-- Corner accent -->
  <rect x="0" y="0" width="4" height="630" fill="#CE93D8" opacity="0.3"/>
</svg>