<svg xmlns="http://www.w3.org/2000/svg" width="1200" height="630" viewBox="0 0 1200 630">
  <defs>
    <linearGradient id="bg-1130940157" x1="0" y1="0" x2="1" y2="1">
      <stop offset="0%" stop-color="#2d1a3d"/>
      <stop offset="100%" stop-color="#1a0d28"/>
    </linearGradient>
    <radialGradient id="orb1-1130940157" cx="50%" cy="50%" r="50%">
      <stop offset="0%" stop-color="#CE93D8" stop-opacity="0.25"/>
      <stop offset="100%" stop-color="#CE93D8" stop-opacity="0"/>
    </radialGradient>
    <radialGradient id="orb2-1130940157" cx="50%" cy="50%" r="50%">
      <stop offset="0%" stop-color="#D97706" stop-opacity="0.15"/>
      <stop offset="100%" stop-color="#D97706" stop-opacity="0"/>
    </radialGradient>
    <linearGradient id="accent-line-1130940157" x1="0" y1="0" x2="1" y2="0">
      <stop offset="0%" stop-color="#CE93D8"/>
      <stop offset="100%" stop-color="#D97706"/>
    </linearGradient>
  </defs>

  <!-- Background -->
  <rect width="1200" height="630" fill="url(#bg-1130940157)"/>

  <!-- Glow orbs -->
  <ellipse cx="905.7189542800188" cy="-89.82439930550754" rx="350" ry="300" fill="url(#orb1-1130940157)"/>
  <ellipse cx="169.26313750445843" cy="524.6702351141721" rx="300" ry="280" fill="url(#orb2-1130940157)"/>

  <!-- Category decorations -->
  <polygon points="168.13859113585204,203.97027963595465 170.38239414973958,210.42541397227205 177.21496498717582,210.5646512390172 171.76914067638154,214.69338092755297 173.74809867057093,221.2345686272195 168.13859113585204,217.33112956877798 162.52908360113315,221.2345686272195 164.50804159532254,214.69338092755297 159.06221728452826,210.56465123901717 165.8947881219645,210.42541397227205" fill="#CE93D8" opacity="0.055338161597028375"/><polygon points="83.0514939581044,62.64304359755479 84.4925808807962,66.78886638980102 88.8808130122502,66.8782917997037 85.38322157976272,69.52997660654854 86.65421126483389,73.73106734157253 83.0514939581044,71.2240758874081 79.44877665137491,73.73106734157253 80.71976633644609,69.52997660654854 77.2221749039586,66.8782917997037 81.6104070354126,66.78886638980102" fill="#CE93D8" opacity="0.04398272580467165"/><polygon points="289.7967154076323,307.30720260562373 290.8268525437702,310.27077541368345 293.9637076559939,310.3346996879271 291.46351230697695,312.2302126856867 292.3720582479771,315.2332928679352 289.7967154076323,313.44121151860804 287.22137256728746,315.2332928679352 288.12991850828763,312.2302126856867 285.62972315927067,310.3346996879271 288.7665782714944,310.27077541368345" fill="#CE93D8" opacity="0.04045130393467843"/><polygon points="578.9263282027096,426.67486486546693 581.1067850324894,432.94776033073464 587.7464613566733,433.08306670449167 582.454381464295,437.09523568365927 584.377470277159,443.4517550868033 578.9263282027096,439.6585164192691 573.4751861282601,443.4517550868033 575.3982749411241,437.09523568365927 570.1061950487458,433.08306670449167 576.7458713729297,432.94776033073464" fill="#CE93D8" opacity="0.07654046760872006"/><polygon points="726.7360936510377,563.4152094077784 729.0342454848545,570.0266983489754 736.0323130970964,570.1693081850107 730.4545814294612,574.3980429029497 732.4814732355798,581.0976695699464 726.7360936510377,577.0996824138425 720.9907140664956,581.0976695699464 723.0176058726141,574.3980429029497 717.4398742049789,570.1693081850107 724.4379418172208,570.0266983489754" fill="#CE93D8" opacity="0.09497393626719713"/><polygon points="189.46499102376401,366.0277192686684 190.32419773323255,368.499547097563 192.94055517196918,368.5528644311502 190.85521668304608,370.1338553773321 191.6130077974354,372.6386351305731 189.46499102376401,371.14391344232484 187.31697425009264,372.6386351305731 188.07476536448195,370.1338553773321 185.98942687555885,368.5528644311502 188.60578431429548,368.499547097563" fill="#CE93D8" opacity="0.09246661467012018"/><polygon points="200.61179212853312,614.2914887746796 202.2348261333989,618.9607500551821 207.1771025904574,619.0614660348261 203.23791631330283,622.0479441881745 204.6693771406976,626.7794513673073 200.61179212853312,623.9559350922332 196.55420711636864,626.7794513673073 197.98566794376342,622.0479441881745 194.04648166660886,619.0614660348261 198.98875812366734,618.9607500551821" fill="#CE93D8" opacity="0.0605899795005098"/><polygon points="126.03029533382505,38.55990999992937 127.24932620606143,42.066905931256855 130.9613787953598,42.14255184387824 128.00272871843896,44.385640440467604 129.07787251441601,47.93938811690511 126.03029533382505,45.81869717804715 122.9827181532341,47.93938811690511 124.05786194921116,44.385640440467604 121.09921187229031,42.14255184387824 124.81126446158868,42.066905931256855" fill="#CE93D8" opacity="0.053211164693348106"/><polygon points="1113.1323646553792,108.10698541612365 1114.0752879649704,110.81965519800005 1116.9465695646368,110.87816749322613 1114.6580466190821,112.6132019139066 1115.489672929357,115.36203428299248 1113.1323646553792,113.72167474474757 1110.7750563814013,115.36203428299248 1111.6066826916763,112.6132019139066 1109.3181597461216,110.87816749322613 1112.189441345788,110.81965519800005" fill="#CE93D8" opacity="0.07651088643353432"/><polygon points="38.572688420303166,152.1036681715399 40.18842572254916,156.75193777169815 45.108483100115876,156.85220096073502 41.18700629222825,159.82525275154256 42.61203167591816,164.53548841034606 38.572688420303166,161.7246658672206 34.53334516468818,164.53548841034606 35.958370548378085,159.82525275154256 32.036893740490456,156.85220096073502 36.95695111805717,156.75193777169815" fill="#CE93D8" opacity="0.09316718295216561"/><polygon points="654.6776670762338,167.29701831969433 656.5161630123685,172.5861360234634 662.114539358345,172.70022230799242 657.6524159890782,176.08316310394954 659.2739069165706,181.44279000920776 654.6776670762338,178.2444446992688 650.0814272358971,181.44279000920776 651.7029181633893,176.08316310394954 647.2407947941225,172.70022230799242 652.8391711400991,172.5861360234634" fill="#CE93D8" opacity="0.08710588604677469"/><polygon points="1019.7125108246692,440.1627731815446 1020.7834642160987,443.24376913654817 1024.044608293919,443.310226228419 1021.445349812369,445.280843539683 1022.389894303243,448.40291223625627 1019.7125108246692,446.5398247584328 1017.0351273460954,448.40291223625627 1017.9796718369693,445.280843539683 1015.3804133554193,443.310226228419 1018.6415574332397,443.24376913654817" fill="#CE93D8" opacity="0.04631838753353804"/><rect x="779.2705434840173" y="132.0209299447015" width="98.93108932767063" height="55.93185537494719" rx="8" fill="none" stroke="#CE93D8" stroke-width="1.5" opacity="0.06"/><rect x="65.49870874732733" y="21.938756457529962" width="110.36633384414017" height="85.14521557837725" rx="8" fill="none" stroke="#CE93D8" stroke-width="1.5" opacity="0.06"/><rect x="603.6570628639311" y="280.94368951860815" width="99.46021023672074" height="81.73053838312626" rx="8" fill="none" stroke="#CE93D8" stroke-width="1.5" opacity="0.06"/>

  <!-- Large icon watermark -->
  <polygon points="1011.1763729620725,146.5241259559989 1034.5990383928029,213.90813913994722 1105.9230448971698,215.361612503819 1049.0750417361114,258.4606963137419 1069.7330365388984,326.7430054383056 1011.1763729620725,285.99569093286993 952.6197093852467,326.7430054383056 973.2777041880336,258.4606963137419 916.4297010269753,215.36161250381898 987.7537075313421,213.90813913994722" fill="#CE93D8" opacity="0.1"/>

  <!-- Subtle grid overlay -->
  <rect width="1200" height="630" fill="url(#bg-1130940157)" opacity="0"/>

  <!-- Bottom gradient overlay for text readability -->
  <rect x="0" y="300" width="1200" height="330" fill="url(#bg-1130940157)" opacity="0.3"/>

  <!-- Accent line -->
  <rect x="80" y="240" width="60" height="4" rx="2" fill="url(#accent-line-1130940157)"/>

  <!-- Category badge -->
  <rect x="80" y="200" width="109" height="30" rx="15" fill="#CE93D8" opacity="0.2"/>
  <text x="96" y="220" font-family="'Fira Sans', 'Segoe UI', Arial, sans-serif" font-size="12" font-weight="700" fill="#CE93D8" letter-spacing="2" text-anchor="start">REVIEWS</text>

  <!-- Title -->
  <text x="80" y="300" font-family="'Fira Sans', 'Segoe UI', Arial, sans-serif" font-size="42" font-weight="800" fill="white" letter-spacing="-0.5">Best Crypto Portfolio Trackers 2025:</text>
  <text x="80" y="352.5" font-family="'Fira Sans', 'Segoe UI', Arial, sans-serif" font-size="42" font-weight="800" fill="white" letter-spacing="-0.5">CoinGecko, Zerion, and DeBank Compared</text>

  <!-- Author bar -->
  <g transform="translate(80, 435)">
    <!-- Author avatar circle -->
    <circle cx="16" cy="12" r="16" fill="#CE93D8" opacity="0.2"/>
    <text x="16" y="17" font-family="'Fira Sans', Arial, sans-serif" font-size="13" font-weight="700" fill="#CE93D8" text-anchor="middle">YK</text>

    <text x="44" y="10" font-family="'Fira Sans', Arial, sans-serif" font-size="14" font-weight="600" fill="#CE93D8">Yosef Kamel</text>
    <text x="44" y="28" font-family="'Fira Sans', Arial, sans-serif" font-size="12" font-weight="400" fill="white" opacity="0.5">Crypto Pointers</text>
  </g>

  <!-- Branding: bottom bar -->
  <rect x="0" y="610" width="1200" height="20" fill="#CE93D8" opacity="0.08"/>
  <text x="1120" y="600" font-family="'Fira Sans', Arial, sans-serif" font-size="11" font-weight="600" fill="white" opacity="0.25" text-anchor="end">cryptopointers.com</text>

  <!-- Corner accent -->
  <rect x="0" y="0" width="4" height="630" fill="#CE93D8" opacity="0.3"/>
</svg>