<svg xmlns="http://www.w3.org/2000/svg" width="1200" height="630" viewBox="0 0 1200 630">
  <defs>
    <linearGradient id="bg-863590879" x1="0" y1="0" x2="1" y2="1">
      <stop offset="0%" stop-color="#2d1a3d"/>
      <stop offset="100%" stop-color="#1a0d28"/>
    </linearGradient>
    <radialGradient id="orb1-863590879" cx="50%" cy="50%" r="50%">
      <stop offset="0%" stop-color="#CE93D8" stop-opacity="0.25"/>
      <stop offset="100%" stop-color="#CE93D8" stop-opacity="0"/>
    </radialGradient>
    <radialGradient id="orb2-863590879" cx="50%" cy="50%" r="50%">
      <stop offset="0%" stop-color="#D97706" stop-opacity="0.15"/>
      <stop offset="100%" stop-color="#D97706" stop-opacity="0"/>
    </radialGradient>
    <linearGradient id="accent-line-863590879" x1="0" y1="0" x2="1" y2="0">
      <stop offset="0%" stop-color="#CE93D8"/>
      <stop offset="100%" stop-color="#D97706"/>
    </linearGradient>
  </defs>

  <!-- Background -->
  <rect width="1200" height="630" fill="url(#bg-863590879)"/>

  <!-- Glow orbs -->
  <ellipse cx="932.9346692888066" cy="26.971120946109295" rx="350" ry="300" fill="url(#orb1-863590879)"/>
  <ellipse cx="17.453872342593968" cy="531.1041003093123" rx="300" ry="280" fill="url(#orb2-863590879)"/>

  <!-- Category decorations -->
  <polygon points="1061.5056185177527,340.737547929259 1064.4428847815711,349.1876873564408 1073.387110139919,349.3699568889022 1066.2582151666193,354.77469979703756 1068.8487841772985,363.33748799039404 1061.5056185177527,358.2276633808948 1054.162452858207,363.33748799039404 1056.7530218688862,354.77469979703756 1049.6241268955864,349.3699568889022 1058.5683522539343,349.1876873564408" fill="#CE93D8" opacity="0.059441698356531555"/><polygon points="965.023611749988,500.37274398687293 967.0162685994559,506.10536292440275 973.0840780258739,506.229015531857 968.2477982603424,509.895621487256 970.0052538736578,515.7046619389901 965.023611749988,512.2381301052496 960.0419696263183,515.7046619389901 961.7994252396337,509.895621487256 956.9631454741022,506.229015531857 963.0309549005202,506.10536292440275" fill="#CE93D8" opacity="0.04838851541746408"/><polygon points="447.4750799741596,201.92358736563475 448.3215921045433,204.35889451386853 450.8992934712843,204.4114240962658 448.84476537300947,205.96905626931712 449.5913603001188,208.43682848488726 447.4750799741596,206.96419096156956 445.3587996482004,208.43682848488726 446.10539457530973,205.96905626931712 444.0508664770349,204.4114240962658 446.6285678437759,204.35889451386853" fill="#CE93D8" opacity="0.07644808199256659"/><polygon points="353.57024262752384,450.2291113260202 356.31217618019303,458.1173035221212 364.6615968353051,458.2874518511445 358.00678431063636,463.3327710671499 360.4250765091968,471.3261207137163 353.57024262752384,466.5561072771996 346.7154087458509,471.3261207137163 349.1337009444113,463.3327710671499 342.4788884197426,458.2874518511445 350.82830907485464,458.1173035221212" fill="#CE93D8" opacity="0.0938276853878051"/><polygon points="744.4897138779052,436.5537084013689 745.5582175270686,439.6276567611428 748.8119019315295,439.69396183636377 746.2185890993549,441.66007147758694 747.1609730008138,444.77499862747396 744.4897138779052,442.91617285158486 741.8184547549965,444.77499862747396 742.7608386564555,441.66007147758694 740.1675258242808,439.69396183636377 743.4212102287418,439.6276567611428" fill="#CE93D8" opacity="0.07763349956367165"/><polygon points="776.8742664400488,328.31964357672257 778.6172091822147,333.3338669606624 783.9246179332218,333.4420237738989 779.694407037318,336.64914106559473 781.2316232954634,341.73020903622955 776.8742664400488,338.69809314446525 772.5169095846343,341.73020903622955 774.0541258427796,336.64914106559473 769.8239149468758,333.4420237738989 775.131323697883,333.3338669606624" fill="#CE93D8" opacity="0.09702955932356416"/><polygon points="341.8148361761123,343.6994529996067 342.8384917616257,346.64437921537194 345.95561000144806,346.7079012825646 343.4711457062466,348.59148784546073 344.3739751398957,351.5756728577867 341.8148361761123,349.7948671586439 339.25569721232887,351.5756728577867 340.158526645978,348.59148784546073 337.6740623507765,346.7079012825646 340.7911805905989,346.64437921537194" fill="#CE93D8" opacity="0.054071880034171044"/><polygon points="595.9350948324427,146.8623209219426 598.0879005432379,153.0556676538812 604.6433768605466,153.1892581612248 599.4184076436843,157.1505474530196 601.3171091094307,163.4264576590709 595.9350948324427,159.6813223487325 590.5530805554547,163.4264576590709 592.4517820212011,157.1505474530196 587.2268128043388,153.1892581612248 593.7822891216475,153.0556676538812" fill="#CE93D8" opacity="0.052004148508422075"/><polygon points="1015.388114108704,409.3070431180298 1016.8881372493186,413.6224178725523 1021.4558351722684,413.71550051878324 1017.8152025341298,416.47563143750233 1019.1381719602405,420.8485344311583 1015.388114108704,418.2390143978037 1011.6380562571676,420.8485344311583 1012.9610256832783,416.47563143750233 1009.3203930451397,413.71550051878324 1013.8880909680895,413.6224178725523" fill="#CE93D8" opacity="0.07923195702489466"/><polygon points="178.19252352556214,343.14932416039517 180.76240923255156,350.5425567057322 188.58792957834072,350.70202875362315 182.35068594667356,355.4307698012643 184.61723779303568,362.9225614924535 178.19252352556214,358.4518516385555 171.7678092580886,362.9225614924535 174.0343611044507,355.4307698012643 167.79711747278355,350.70202875362315 175.6226378185727,350.5425567057322" fill="#CE93D8" opacity="0.04141757418867201"/><polygon points="752.3200300554745,466.68759675961917 754.0943128260008,471.79198139742965 759.4971546263865,471.902082989179 755.1908798838393,475.1668677787481 756.7557369817902,480.3392989424751 752.3200300554745,477.25266227057205 747.8843231291588,480.3392989424751 749.4491802271097,475.1668677787481 745.1429054845624,471.902082989179 750.5457472849482,471.79198139742965" fill="#CE93D8" opacity="0.08956201958470046"/><polygon points="1007.2058151089586,323.3853575269226 1008.790621180678,327.94464193230175 1013.6164903330066,328.04298571042375 1009.7700851985778,330.95912221544745 1011.1678302882572,335.5791864182881 1007.2058151089586,332.8221734888479 1003.2437999296601,335.5791864182881 1004.6415450193394,330.95912221544745 1000.7951398849107,328.04298571042375 1005.6210090372392,327.94464193230175" fill="#CE93D8" opacity="0.04983616057783365"/><rect x="329.88995662890375" y="462.5935470685363" width="111.01086306851357" height="84.66465874575078" rx="8" fill="none" stroke="#CE93D8" stroke-width="1.5" opacity="0.06"/><rect x="92.57275215350091" y="425.2035557292402" width="105.59016536455601" height="87.32254515402019" rx="8" fill="none" stroke="#CE93D8" stroke-width="1.5" opacity="0.06"/><rect x="135.98896050825715" y="180.9767425293103" width="129.91520821582526" height="52.239594804123044" rx="8" fill="none" stroke="#CE93D8" stroke-width="1.5" opacity="0.06"/>

  <!-- Large icon watermark -->
  <polygon points="983.4990210039541,92.74254393205047 1005.2553194152324,155.33263229390184 1071.5050967510383,156.68270068516833 1018.7014513027877,196.71557104291816 1037.8897670321498,260.1400475577091 983.4990210039541,222.2916337441653 929.1082749757583,260.1400475577091 948.2965907051205,196.71557104291816 895.4929452568699,156.6827006851683 961.7427225926758,155.33263229390184" fill="#CE93D8" opacity="0.1"/>

  <!-- Subtle grid overlay -->
  <rect width="1200" height="630" fill="url(#bg-863590879)" opacity="0"/>

  <!-- Bottom gradient overlay for text readability -->
  <rect x="0" y="300" width="1200" height="330" fill="url(#bg-863590879)" opacity="0.3"/>

  <!-- Accent line -->
  <rect x="80" y="240" width="60" height="4" rx="2" fill="url(#accent-line-863590879)"/>

  <!-- Category badge -->
  <rect x="80" y="200" width="109" height="30" rx="15" fill="#CE93D8" opacity="0.2"/>
  <text x="96" y="220" font-family="'Fira Sans', 'Segoe UI', Arial, sans-serif" font-size="12" font-weight="700" fill="#CE93D8" letter-spacing="2" text-anchor="start">REVIEWS</text>

  <!-- Title -->
  <text x="80" y="300" font-family="'Fira Sans', 'Segoe UI', Arial, sans-serif" font-size="42" font-weight="800" fill="white" letter-spacing="-0.5">Binance Review 2025: Pros, Cons, and</text>
  <text x="80" y="352.5" font-family="'Fira Sans', 'Segoe UI', Arial, sans-serif" font-size="42" font-weight="800" fill="white" letter-spacing="-0.5">Everything In Between</text>

  <!-- Author bar -->
  <g transform="translate(80, 435)">
    <!-- Author avatar circle -->
    <circle cx="16" cy="12" r="16" fill="#CE93D8" opacity="0.2"/>
    <text x="16" y="17" font-family="'Fira Sans', Arial, sans-serif" font-size="13" font-weight="700" fill="#CE93D8" text-anchor="middle">YK</text>

    <text x="44" y="10" font-family="'Fira Sans', Arial, sans-serif" font-size="14" font-weight="600" fill="#CE93D8">Yosef Kamel</text>
    <text x="44" y="28" font-family="'Fira Sans', Arial, sans-serif" font-size="12" font-weight="400" fill="white" opacity="0.5">Crypto Pointers</text>
  </g>

  <!-- Branding: bottom bar -->
  <rect x="0" y="610" width="1200" height="20" fill="#CE93D8" opacity="0.08"/>
  <text x="1120" y="600" font-family="'Fira Sans', Arial, sans-serif" font-size="11" font-weight="600" fill="white" opacity="0.25" text-anchor="end">cryptopointers.com</text>

  <!-- Corner accent -->
  <rect x="0" y="0" width="4" height="630" fill="#CE93D8" opacity="0.3"/>
</svg>