<svg xmlns="http://www.w3.org/2000/svg" width="1200" height="630" viewBox="0 0 1200 630">
  <defs>
    <linearGradient id="bg-515790756" x1="0" y1="0" x2="1" y2="1">
      <stop offset="0%" stop-color="#2d1a3d"/>
      <stop offset="100%" stop-color="#1a0d28"/>
    </linearGradient>
    <radialGradient id="orb1-515790756" cx="50%" cy="50%" r="50%">
      <stop offset="0%" stop-color="#CE93D8" stop-opacity="0.25"/>
      <stop offset="100%" stop-color="#CE93D8" stop-opacity="0"/>
    </radialGradient>
    <radialGradient id="orb2-515790756" cx="50%" cy="50%" r="50%">
      <stop offset="0%" stop-color="#D97706" stop-opacity="0.15"/>
      <stop offset="100%" stop-color="#D97706" stop-opacity="0"/>
    </radialGradient>
    <linearGradient id="accent-line-515790756" x1="0" y1="0" x2="1" y2="0">
      <stop offset="0%" stop-color="#CE93D8"/>
      <stop offset="100%" stop-color="#D97706"/>
    </linearGradient>
  </defs>

  <!-- Background -->
  <rect width="1200" height="630" fill="url(#bg-515790756)"/>

  <!-- Glow orbs -->
  <ellipse cx="806.626566965133" cy="6.4269994385540485" rx="350" ry="300" fill="url(#orb1-515790756)"/>
  <ellipse cx="-49.61177522782236" cy="591.7772306129336" rx="300" ry="280" fill="url(#orb2-515790756)"/>

  <!-- Category decorations -->
  <polygon points="729.8037412445992,590.1179213529452 732.210199071967,597.0409927875577 739.5380676375354,597.1903234588984 733.6974718017736,601.6183475833731 735.8198858130189,608.6337104484369 729.8037412445992,604.4473084257543 723.7875966761795,608.6337104484369 725.9100106874248,601.6183475833731 720.069414851663,597.1903234588984 727.3972834172314,597.0409927875577" fill="#CE93D8" opacity="0.09720804173965007"/><polygon points="728.000637892168,214.8498826104682 729.3461628527378,218.72078585802993 733.4434006894512,218.80428125253985 730.1777430110812,221.28012642120527 731.3644502935924,225.20263266047823 728.000637892168,222.86188587803395 724.6368254907436,225.20263266047823 725.8235327732548,221.28012642120527 722.5578750948848,218.80428125253985 726.6551129315982,218.72078585802993" fill="#CE93D8" opacity="0.04203564836643636"/><polygon points="191.68743532942608,146.01493960698136 192.53913300823186,148.46516491490425 195.13262481054392,148.51801628205018 193.06551112187321,150.08519016958763 193.8166795264405,152.56807941875863 191.68743532942608,151.08642083961516 189.55819113241165,152.56807941875863 190.30935953697895,150.08519016958763 188.24224584830824,148.51801628205018 190.8357376506203,148.46516491490425" fill="#CE93D8" opacity="0.07102869763504714"/><polygon points="473.0448221634142,541.4893480561208 474.800383422895,546.5398733007361 480.14621663134534,546.6488131452147 475.88537995058664,549.879149251905 477.4337253121161,554.9970030231373 473.0448221634142,551.9429352875427 468.6559190147123,554.9970030231373 470.2042643762418,549.879149251905 465.9434276954831,546.6488131452147 471.28926090393344,546.5398733007361" fill="#CE93D8" opacity="0.042490376587957145"/><polygon points="652.466431980487,474.11383173880165 654.4256000306059,479.75010768310887 660.3914332173999,479.8716821719141 655.6364324752521,483.4766667642745 657.3643521057842,489.1880798748282 652.466431980487,485.7798069375195 647.5685118551897,489.1880798748282 649.2964314857218,483.4766667642745 644.541430743574,479.8716821719141 650.507263930368,479.75010768310887" fill="#CE93D8" opacity="0.07478725082240999"/><polygon points="900.6912116692401,248.55930844820105 902.3570157135497,253.35161366280565 907.4295305749648,253.45498370047255 903.38653923153,256.52016124522845 904.8557217800139,261.3763526565296 900.6912116692401,258.4784313461371 896.5267015584664,261.3763526565296 897.9958841069503,256.52016124522845 893.9528927635155,253.45498370047255 899.0254076249306,253.35161366280565" fill="#CE93D8" opacity="0.05424519773107022"/><polygon points="875.747717030812,342.45849383515304 877.2090726679093,346.66262712680646 881.6590247569983,346.753310294354 878.1122401212865,349.4422907293783 879.401106123555,353.7024693007836 875.747717030812,351.1602173130587 872.0943279380691,353.7024693007836 873.3831939403376,349.4422907293783 869.8364093046258,346.753310294354 874.2863613937149,346.66262712680646" fill="#CE93D8" opacity="0.09645974195562303"/><polygon points="678.7433114657179,580.5648057657294 680.1812039709441,584.7014386274254 684.5597088297801,584.7906658104989 681.0698704113428,587.4364727010803 682.3380427287836,591.6282509946361 678.7433114657179,589.1268167189882 675.148580202652,591.6282509946361 676.4167525200929,587.4364727010803 672.9269141016556,584.7906658104989 677.3054189604916,584.7014386274254" fill="#CE93D8" opacity="0.059776317761279646"/><polygon points="197.55134788667783,625.0295611157547 198.76659968294985,628.5256851287961 202.46714466482155,628.6010965341079 199.51766659793532,630.8372314083639 200.58947737735787,634.3799622330273 197.55134788667783,632.2658455757052 194.5132183959978,634.3799622330273 195.58502917542035,630.8372314083639 192.63555110853412,628.6010965341079 196.33609609040582,628.5256851287961" fill="#CE93D8" opacity="0.07865242943167686"/><polygon points="198.27932219812647,391.4073130817618 200.31210769630758,397.25537701003964 206.50211226786374,397.3815197662861 201.56843822602139,401.1219647985905 203.36128594357922,407.0479892376632 198.27932219812647,403.5116474724002 193.1973584526737,407.0479892376632 194.99020617023155,401.1219647985905 190.0565321283892,397.3815197662861 196.24653669994535,397.25537701003964" fill="#CE93D8" opacity="0.043566424013115466"/><polygon points="292.6937132733874,303.274710570788 294.07083782812657,307.23652180985977 298.2642991141626,307.3219780900157 294.9219476096975,309.8559683729293 296.13652466023535,313.8705944976895 292.6937132733874,311.47487538062035 289.25090188653945,313.8705944976895 290.4654789370773,309.8559683729293 287.1231274326122,307.3219780900157 291.31658871864823,307.23652180985977" fill="#CE93D8" opacity="0.05763820969499647"/><polygon points="317.29675633693114,372.7805227389093 319.21800001370036,378.30769511080956 325.0683502611397,378.42691623523496 320.40539390661456,381.96211774717403 322.0998655288542,387.56297282614617 317.29675633693114,384.2206751457043 312.4936471450081,387.56297282614617 314.1881187672477,381.96211774717403 309.5251624127226,378.42691623523496 315.3755126601619,378.30769511080956" fill="#CE93D8" opacity="0.057927149417810145"/><rect x="231.87347291968763" y="107.0689425105229" width="127.38438492175192" height="80.18836483359337" rx="8" fill="none" stroke="#CE93D8" stroke-width="1.5" opacity="0.06"/><rect x="86.21353516355157" y="210.047654225491" width="113.28026364557445" height="74.54205693677068" rx="8" fill="none" stroke="#CE93D8" stroke-width="1.5" opacity="0.06"/><rect x="489.9361622519791" y="317.03557004220784" width="101.66350707411766" height="61.0592413879931" rx="8" fill="none" stroke="#CE93D8" stroke-width="1.5" opacity="0.06"/>

  <!-- Large icon watermark -->
  <polygon points="1060.0168861681595,121.65699052624404 1085.0474450649733,193.66670759677046 1161.2676237992862,195.21995740717037 1100.5171812206102,241.2776598874191 1122.5932834101939,314.247338133792 1060.0168861681595,270.70284663978964 997.4404889261252,314.247338133792 1019.5165911157088,241.2776598874191 958.7661485370328,195.21995740717034 1034.9863272713458,193.66670759677046" fill="#CE93D8" opacity="0.1"/>

  <!-- Subtle grid overlay -->
  <rect width="1200" height="630" fill="url(#bg-515790756)" opacity="0"/>

  <!-- Bottom gradient overlay for text readability -->
  <rect x="0" y="300" width="1200" height="330" fill="url(#bg-515790756)" opacity="0.3"/>

  <!-- Accent line -->
  <rect x="80" y="240" width="60" height="4" rx="2" fill="url(#accent-line-515790756)"/>

  <!-- Category badge -->
  <rect x="80" y="200" width="109" height="30" rx="15" fill="#CE93D8" opacity="0.2"/>
  <text x="96" y="220" font-family="'Fira Sans', 'Segoe UI', Arial, sans-serif" font-size="12" font-weight="700" fill="#CE93D8" letter-spacing="2" text-anchor="start">REVIEWS</text>

  <!-- Title -->
  <text x="80" y="300" font-family="'Fira Sans', 'Segoe UI', Arial, sans-serif" font-size="42" font-weight="800" fill="white" letter-spacing="-0.5">Bitcoin Lightning Wallets Compared:</text>
  <text x="80" y="352.5" font-family="'Fira Sans', 'Segoe UI', Arial, sans-serif" font-size="42" font-weight="800" fill="white" letter-spacing="-0.5">Strike, Phoenix, and Breez</text>

  <!-- Author bar -->
  <g transform="translate(80, 435)">
    <!-- Author avatar circle -->
    <circle cx="16" cy="12" r="16" fill="#CE93D8" opacity="0.2"/>
    <text x="16" y="17" font-family="'Fira Sans', Arial, sans-serif" font-size="13" font-weight="700" fill="#CE93D8" text-anchor="middle">YK</text>

    <text x="44" y="10" font-family="'Fira Sans', Arial, sans-serif" font-size="14" font-weight="600" fill="#CE93D8">Yosef Kamel</text>
    <text x="44" y="28" font-family="'Fira Sans', Arial, sans-serif" font-size="12" font-weight="400" fill="white" opacity="0.5">Crypto Pointers</text>
  </g>

  <!-- Branding: bottom bar -->
  <rect x="0" y="610" width="1200" height="20" fill="#CE93D8" opacity="0.08"/>
  <text x="1120" y="600" font-family="'Fira Sans', Arial, sans-serif" font-size="11" font-weight="600" fill="white" opacity="0.25" text-anchor="end">cryptopointers.com</text>

  <!-- Corner accent -->
  <rect x="0" y="0" width="4" height="630" fill="#CE93D8" opacity="0.3"/>
</svg>