<svg xmlns="http://www.w3.org/2000/svg" width="1200" height="630" viewBox="0 0 1200 630">
  <defs>
    <linearGradient id="bg-853753075" x1="0" y1="0" x2="1" y2="1">
      <stop offset="0%" stop-color="#1a2e1a"/>
      <stop offset="100%" stop-color="#0d1a0d"/>
    </linearGradient>
    <radialGradient id="orb1-853753075" cx="50%" cy="50%" r="50%">
      <stop offset="0%" stop-color="#66BB6A" stop-opacity="0.25"/>
      <stop offset="100%" stop-color="#66BB6A" stop-opacity="0"/>
    </radialGradient>
    <radialGradient id="orb2-853753075" cx="50%" cy="50%" r="50%">
      <stop offset="0%" stop-color="#D97706" stop-opacity="0.15"/>
      <stop offset="100%" stop-color="#D97706" stop-opacity="0"/>
    </radialGradient>
    <linearGradient id="accent-line-853753075" x1="0" y1="0" x2="1" y2="0">
      <stop offset="0%" stop-color="#66BB6A"/>
      <stop offset="100%" stop-color="#D97706"/>
    </linearGradient>
  </defs>

  <!-- Background -->
  <rect width="1200" height="630" fill="url(#bg-853753075)"/>

  <!-- Glow orbs -->
  <ellipse cx="915.067652775906" cy="-82.38417012616992" rx="350" ry="300" fill="url(#orb1-853753075)"/>
  <ellipse cx="105.22460483480245" cy="428.0968399718404" rx="300" ry="280" fill="url(#orb2-853753075)"/>

  <!-- Category decorations -->
  <path d="M0,456.7727542016655 Q50,331.80597885511816 100,365.0244694785215 Q150,457.7512343879789 200,385.21458347095177 Q250,332.227973267436 300,431.27907438902184 Q350,453.39181614108384 400,390.46480348333716 Q450,431.3119668047875 500,449.7223472339101 Q550,491.6948852594942 600,493.1955322041176 Q650,425.2413366921246 700,473.03866415750235 Q750,325.6875045131892 800,363.32184402272105 Q850,441.0388866905123 900,378.2244322123006 Q950,418.92493036575615 1000,472.1914574620314 Q1050,304.48418059386313 1100,461.62073926534504 Q1150,447.46782779693604 1200,397.3974143038504 Q1250,380.4563106968999 1300,398.37375493953004" fill="none" stroke="#66BB6A" stroke-width="2" opacity="0.08"/><rect x="179.65430276468396" y="366.3754960987717" width="8" height="146.2819693889469" rx="2" fill="#66BB6A" opacity="0.06"/><line x1="183.65430276468396" y1="346.3754960987717" x2="183.65430276468396" y2="532.6574654877186" stroke="#66BB6A" stroke-width="1" opacity="0.05"/><rect x="330.6499528232962" y="275.96240639686584" width="8" height="103.14550437033176" rx="2" fill="#66BB6A" opacity="0.06"/><line x1="334.6499528232962" y1="255.96240639686584" x2="334.6499528232962" y2="399.1079107671976" stroke="#66BB6A" stroke-width="1" opacity="0.05"/><rect x="530.5546287447214" y="249.44817353971303" width="8" height="70.30284851789474" rx="2" fill="#66BB6A" opacity="0.06"/><line x1="534.5546287447214" y1="229.44817353971303" x2="534.5546287447214" y2="339.75102205760777" stroke="#66BB6A" stroke-width="1" opacity="0.05"/><rect x="707.5602854695171" y="273.6829293426126" width="8" height="106.67523401789367" rx="2" fill="#66BB6A" opacity="0.06"/><line x1="711.5602854695171" y1="253.68292934261262" x2="711.5602854695171" y2="400.3581633605063" stroke="#66BB6A" stroke-width="1" opacity="0.05"/><rect x="892.7074661385268" y="283.8047022931278" width="8" height="113.15335250459611" rx="2" fill="#66BB6A" opacity="0.06"/><line x1="896.7074661385268" y1="263.8047022931278" x2="896.7074661385268" y2="416.9580547977239" stroke="#66BB6A" stroke-width="1" opacity="0.05"/><rect x="1068.6599862482399" y="210.69794604554772" width="8" height="86.89151843078434" rx="2" fill="#66BB6A" opacity="0.06"/><line x1="1072.6599862482399" y1="190.69794604554772" x2="1072.6599862482399" y2="317.58946447633207" stroke="#66BB6A" stroke-width="1" opacity="0.05"/>

  <!-- Large icon watermark -->
  <polyline points="873.6936807399616,325.99366400856525 928.3485667174682,238.54584644455463 983.0034526949748,271.3387780310586 1037.6583386724815,172.95998327154666 1092.3132246499881,129.23607448954135" fill="none" stroke="#66BB6A" stroke-width="3" opacity="0.12" stroke-linecap="round" stroke-linejoin="round"/>

  <!-- Subtle grid overlay -->
  <rect width="1200" height="630" fill="url(#bg-853753075)" opacity="0"/>

  <!-- Bottom gradient overlay for text readability -->
  <rect x="0" y="300" width="1200" height="330" fill="url(#bg-853753075)" opacity="0.3"/>

  <!-- Accent line -->
  <rect x="80" y="240" width="60" height="4" rx="2" fill="url(#accent-line-853753075)"/>

  <!-- Category badge -->
  <rect x="80" y="200" width="131" height="30" rx="15" fill="#66BB6A" opacity="0.2"/>
  <text x="96" y="220" font-family="'Fira Sans', 'Segoe UI', Arial, sans-serif" font-size="12" font-weight="700" fill="#66BB6A" letter-spacing="2" text-anchor="start">INVESTING</text>

  <!-- Title -->
  <text x="80" y="300" font-family="'Fira Sans', 'Segoe UI', Arial, sans-serif" font-size="42" font-weight="800" fill="white" letter-spacing="-0.5">Bitcoin vs Gold: Which Is the Better</text>
  <text x="80" y="352.5" font-family="'Fira Sans', 'Segoe UI', Arial, sans-serif" font-size="42" font-weight="800" fill="white" letter-spacing="-0.5">Store of Value in 2025?</text>

  <!-- Author bar -->
  <g transform="translate(80, 435)">
    <!-- Author avatar circle -->
    <circle cx="16" cy="12" r="16" fill="#66BB6A" opacity="0.2"/>
    <text x="16" y="17" font-family="'Fira Sans', Arial, sans-serif" font-size="13" font-weight="700" fill="#66BB6A" text-anchor="middle">YK</text>

    <text x="44" y="10" font-family="'Fira Sans', Arial, sans-serif" font-size="14" font-weight="600" fill="#66BB6A">Yosef Kamel</text>
    <text x="44" y="28" font-family="'Fira Sans', Arial, sans-serif" font-size="12" font-weight="400" fill="white" opacity="0.5">Crypto Pointers</text>
  </g>

  <!-- Branding: bottom bar -->
  <rect x="0" y="610" width="1200" height="20" fill="#66BB6A" opacity="0.08"/>
  <text x="1120" y="600" font-family="'Fira Sans', Arial, sans-serif" font-size="11" font-weight="600" fill="white" opacity="0.25" text-anchor="end">cryptopointers.com</text>

  <!-- Corner accent -->
  <rect x="0" y="0" width="4" height="630" fill="#66BB6A" opacity="0.3"/>
</svg>