<svg xmlns="http://www.w3.org/2000/svg" width="1200" height="630" viewBox="0 0 1200 630">
  <defs>
    <linearGradient id="bg-303626512" x1="0" y1="0" x2="1" y2="1">
      <stop offset="0%" stop-color="#1a2e1a"/>
      <stop offset="100%" stop-color="#0d1a0d"/>
    </linearGradient>
    <radialGradient id="orb1-303626512" cx="50%" cy="50%" r="50%">
      <stop offset="0%" stop-color="#66BB6A" stop-opacity="0.25"/>
      <stop offset="100%" stop-color="#66BB6A" stop-opacity="0"/>
    </radialGradient>
    <radialGradient id="orb2-303626512" cx="50%" cy="50%" r="50%">
      <stop offset="0%" stop-color="#D97706" stop-opacity="0.15"/>
      <stop offset="100%" stop-color="#D97706" stop-opacity="0"/>
    </radialGradient>
    <linearGradient id="accent-line-303626512" x1="0" y1="0" x2="1" y2="0">
      <stop offset="0%" stop-color="#66BB6A"/>
      <stop offset="100%" stop-color="#D97706"/>
    </linearGradient>
  </defs>

  <!-- Background -->
  <rect width="1200" height="630" fill="url(#bg-303626512)"/>

  <!-- Glow orbs -->
  <ellipse cx="862.3681146418676" cy="-50.334292417392135" rx="350" ry="300" fill="url(#orb1-303626512)"/>
  <ellipse cx="-27.936239284463227" cy="437.2465655673295" rx="300" ry="280" fill="url(#orb2-303626512)"/>

  <!-- Category decorations -->
  <path d="M0,460.7378417858854 Q50,427.2540620993823 100,435.7430432108231 Q150,494.5976886898279 200,362.22347220173106 Q250,361.35555035434663 300,461.13581801764667 Q350,348.39068497531116 400,417.9321785341017 Q450,406.6529128700495 500,388.0514635704458 Q550,402.876459620893 600,385.74402118101716 Q650,375.80090519040823 700,437.25750625599176 Q750,365.1217416860163 800,416.07426693663 Q850,465.06316754966974 900,408.929078723304 Q950,425.6869398523122 1000,420.7356086233631 Q1050,395.7885267212987 1100,352.5600131950341 Q1150,381.92663099616766 1200,365.2173046255484 Q1250,391.1829316522926 1300,420.98394164349884" fill="none" stroke="#66BB6A" stroke-width="2" opacity="0.08"/><rect x="161.959138661623" y="310.0414438638836" width="8" height="133.704828126356" rx="2" fill="#66BB6A" opacity="0.06"/><line x1="165.959138661623" y1="290.0414438638836" x2="165.959138661623" y2="463.7462719902396" stroke="#66BB6A" stroke-width="1" opacity="0.05"/><rect x="366.49772982113063" y="349.1358282510191" width="8" height="107.15550209395587" rx="2" fill="#66BB6A" opacity="0.06"/><line x1="370.49772982113063" y1="329.1358282510191" x2="370.49772982113063" y2="476.291330344975" stroke="#66BB6A" stroke-width="1" opacity="0.05"/><rect x="547.8111216984689" y="308.4699365776032" width="8" height="109.9188831076026" rx="2" fill="#66BB6A" opacity="0.06"/><line x1="551.8111216984689" y1="288.4699365776032" x2="551.8111216984689" y2="438.3888196852058" stroke="#66BB6A" stroke-width="1" opacity="0.05"/><rect x="693.5292147472501" y="372.34334773384035" width="8" height="68.03247802890837" rx="2" fill="#66BB6A" opacity="0.06"/><line x1="697.5292147472501" y1="352.34334773384035" x2="697.5292147472501" y2="460.3758257627487" stroke="#66BB6A" stroke-width="1" opacity="0.05"/><rect x="891.5290148090571" y="281.3783545047045" width="8" height="127.26509833708405" rx="2" fill="#66BB6A" opacity="0.06"/><line x1="895.5290148090571" y1="261.3783545047045" x2="895.5290148090571" y2="428.64345284178853" stroke="#66BB6A" stroke-width="1" opacity="0.05"/><rect x="1085.2495796140283" y="326.6261353623122" width="8" height="162.58706465363503" rx="2" fill="#66BB6A" opacity="0.06"/><line x1="1089.2495796140283" y1="306.6261353623122" x2="1089.2495796140283" y2="509.2132000159472" stroke="#66BB6A" stroke-width="1" opacity="0.05"/>

  <!-- Large icon watermark -->
  <polyline points="927.085979655385,334.3307631043717 981.0393383260816,248.00538923125714 1034.9926969967782,280.3774044336751 1088.9460556674749,183.2613588264212 1142.8994143381715,140.0986718898639" fill="none" stroke="#66BB6A" stroke-width="3" opacity="0.12" stroke-linecap="round" stroke-linejoin="round"/>

  <!-- Subtle grid overlay -->
  <rect width="1200" height="630" fill="url(#bg-303626512)" opacity="0"/>

  <!-- Bottom gradient overlay for text readability -->
  <rect x="0" y="300" width="1200" height="330" fill="url(#bg-303626512)" opacity="0.3"/>

  <!-- Accent line -->
  <rect x="80" y="240" width="60" height="4" rx="2" fill="url(#accent-line-303626512)"/>

  <!-- Category badge -->
  <rect x="80" y="200" width="131" height="30" rx="15" fill="#66BB6A" opacity="0.2"/>
  <text x="96" y="220" font-family="'Fira Sans', 'Segoe UI', Arial, sans-serif" font-size="12" font-weight="700" fill="#66BB6A" letter-spacing="2" text-anchor="start">INVESTING</text>

  <!-- Title -->
  <text x="80" y="300" font-family="'Fira Sans', 'Segoe UI', Arial, sans-serif" font-size="42" font-weight="800" fill="white" letter-spacing="-0.5">Bitcoin Halving Investment Strategy:</text>
  <text x="80" y="352.5" font-family="'Fira Sans', 'Segoe UI', Arial, sans-serif" font-size="42" font-weight="800" fill="white" letter-spacing="-0.5">Historical Returns and 2025 Outlook</text>

  <!-- Author bar -->
  <g transform="translate(80, 435)">
    <!-- Author avatar circle -->
    <circle cx="16" cy="12" r="16" fill="#66BB6A" opacity="0.2"/>
    <text x="16" y="17" font-family="'Fira Sans', Arial, sans-serif" font-size="13" font-weight="700" fill="#66BB6A" text-anchor="middle">YK</text>

    <text x="44" y="10" font-family="'Fira Sans', Arial, sans-serif" font-size="14" font-weight="600" fill="#66BB6A">Yosef Kamel</text>
    <text x="44" y="28" font-family="'Fira Sans', Arial, sans-serif" font-size="12" font-weight="400" fill="white" opacity="0.5">Crypto Pointers</text>
  </g>

  <!-- Branding: bottom bar -->
  <rect x="0" y="610" width="1200" height="20" fill="#66BB6A" opacity="0.08"/>
  <text x="1120" y="600" font-family="'Fira Sans', Arial, sans-serif" font-size="11" font-weight="600" fill="white" opacity="0.25" text-anchor="end">cryptopointers.com</text>

  <!-- Corner accent -->
  <rect x="0" y="0" width="4" height="630" fill="#66BB6A" opacity="0.3"/>
</svg>