<svg xmlns="http://www.w3.org/2000/svg" width="1200" height="630" viewBox="0 0 1200 630">
  <defs>
    <linearGradient id="bg-1921354301" x1="0" y1="0" x2="1" y2="1">
      <stop offset="0%" stop-color="#2d1a3d"/>
      <stop offset="100%" stop-color="#1a0d28"/>
    </linearGradient>
    <radialGradient id="orb1-1921354301" cx="50%" cy="50%" r="50%">
      <stop offset="0%" stop-color="#CE93D8" stop-opacity="0.25"/>
      <stop offset="100%" stop-color="#CE93D8" stop-opacity="0"/>
    </radialGradient>
    <radialGradient id="orb2-1921354301" cx="50%" cy="50%" r="50%">
      <stop offset="0%" stop-color="#D97706" stop-opacity="0.15"/>
      <stop offset="100%" stop-color="#D97706" stop-opacity="0"/>
    </radialGradient>
    <linearGradient id="accent-line-1921354301" x1="0" y1="0" x2="1" y2="0">
      <stop offset="0%" stop-color="#CE93D8"/>
      <stop offset="100%" stop-color="#D97706"/>
    </linearGradient>
  </defs>

  <!-- Background -->
  <rect width="1200" height="630" fill="url(#bg-1921354301)"/>

  <!-- Glow orbs -->
  <ellipse cx="1019.9047704925761" cy="-36.007547937333584" rx="350" ry="300" fill="url(#orb1-1921354301)"/>
  <ellipse cx="-30.986770428717136" cy="421.8348524533212" rx="300" ry="280" fill="url(#orb2-1921354301)"/>

  <!-- Category decorations -->
  <polygon points="342.9819891261868,19.578192595252766 345.36627299392023,26.437472383574132 352.6266199682385,26.585427068915493 346.83984146300753,30.972649801784645 348.9426987955203,37.923370614441765 342.9819891261868,33.775543591249736 337.02127945685334,37.923370614441765 339.1241367893661,30.972649801784645 333.3373582841351,26.585427068915493 340.5977052584534,26.437472383574136" fill="#CE93D8" opacity="0.057778028752654795"/><polygon points="307.3722970727831,154.11542734187097 308.50904600679195,157.38570865902608 311.97054310253696,157.45624863671895 309.21159548468466,159.54793362118747 310.2141694078053,162.86181104212244 307.3722970727831,160.88426213912666 304.53042473776094,162.86181104212244 305.53299866088156,159.54793362118747 302.77405104302926,157.45624863671895 306.2355481387743,157.38570865902608" fill="#CE93D8" opacity="0.07791685582138598"/><polygon points="731.7616079640575,608.6839882045518 733.666893014883,614.1652496503808 739.4686478902897,614.2834804759949 734.8444239345504,617.7893171763558 736.5248205911215,623.3436492909321 731.7616079640575,620.029114084933 726.9983953369934,623.3436492909321 728.6787919935646,617.7893171763558 724.0545680378252,614.2834804759949 729.8563229132319,614.1652496503808" fill="#CE93D8" opacity="0.0542474359786138"/><polygon points="352.9220697316341,436.78257536222225 353.87566623511145,439.5259505580349 356.7794486170825,439.58512516913044 354.46502128581346,441.33979889513165 355.3060609903274,444.11974601187234 352.9220697316341,442.4608188178949 350.5380784729408,444.11974601187234 351.37911817745476,441.33979889513165 349.0646908461857,439.58512516913044 351.96847322815677,439.5259505580349" fill="#CE93D8" opacity="0.0684773285780102"/><polygon points="854.063045641873,420.853333171783 855.1670819268253,424.02950438085367 858.5289662265378,424.0980144032365 855.849413875739,426.1295061869139 856.8231363542536,429.34801891838714 854.063045641873,427.4273786794953 851.3029549294924,429.34801891838714 852.2766774080071,426.1295061869139 849.5971250572082,424.0980144032365 852.9590093569208,424.02950438085367" fill="#CE93D8" opacity="0.04964091193862259"/><polygon points="1131.4485704069957,614.8059299961664 1134.1484892322933,622.5732511944087 1142.3699714724892,622.7407923356503 1135.817130833193,627.7088019789434 1138.1983674702399,635.5796692969869 1131.4485704069957,630.8827469147369 1124.6987733437516,635.5796692969869 1127.0800099807984,627.7088019789434 1120.5271693415023,622.7407923356503 1128.7486515816981,622.5732511944087" fill="#CE93D8" opacity="0.07757736721541733"/><polygon points="1072.948424551636,166.54849222498015 1075.2615711486274,173.2031191823193 1082.305299088869,173.3466595054905 1076.6911743665291,177.6029854707486 1078.7312910441144,184.3463252265637 1072.948424551636,180.3222523829527 1067.1655580591575,184.3463252265637 1069.2056747367428,177.6029854707486 1063.5915500144029,173.3466595054905 1070.6352779546446,173.2031191823193" fill="#CE93D8" opacity="0.06265738034620881"/><polygon points="1116.7637893985957,399.47015229435635 1119.4000095755002,407.05422062687285 1127.4275240187453,407.21780900325825 1121.0292832466555,412.0686093821406 1123.3543398408572,419.75378089142765 1116.7637893985957,415.1676720657013 1110.1732389563342,419.75378089142765 1112.4982955505359,412.0686093821406 1106.100054778446,407.21780900325825 1114.1275692216911,407.05422062687285" fill="#CE93D8" opacity="0.0989037030003965"/><polygon points="178.6695355605334,294.5441699732095 180.14064467447966,298.7763627704957 184.6202969293454,298.8676511816628 181.0498401080582,301.5745785884953 182.34730834539906,305.8631907266617 178.6695355605334,303.30397107187656 174.99176277566775,305.8631907266617 176.28923101300862,301.5745785884953 172.71877419172142,298.8676511816628 177.19842644658715,298.7763627704957" fill="#CE93D8" opacity="0.08691267897374927"/><polygon points="294.70791237056255,557.5620888221077 295.9905440339327,561.2520560963397 299.89626643651167,561.3316487013693 296.7832539969422,563.6917664992491 297.9144915289878,567.4309247086425 294.70791237056255,565.1995904509537 291.5013332121373,567.4309247086425 292.6325707441829,563.6917664992491 289.51955830461344,561.3316487013693 293.4252807071924,561.2520560963397" fill="#CE93D8" opacity="0.056899298480711874"/><polygon points="297.9251291519031,261.99871502732856 300.2170920161022,268.5923990943727 307.1963136899698,268.73462487921984 301.6336029671298,272.95197152857884 303.65503631240085,279.6335559647351 297.9251291519031,275.6463354693353 292.19522199140533,279.6335559647351 294.2166553366764,272.95197152857884 288.65394461383636,268.73462487921984 295.633166287704,268.5923990943727" fill="#CE93D8" opacity="0.07743838970083744"/><polygon points="438.6734207845293,437.4863493324723 440.75565015186834,443.4766569494993 447.09621550634864,443.60586790253313 442.042538673257,447.4372925659571 443.87899420287687,453.50745694367777 438.6734207845293,449.88509999398144 433.46784736618173,453.50745694367777 435.3043028958016,447.4372925659571 430.25062606270996,443.60586790253313 436.59119141719026,443.4766569494993" fill="#CE93D8" opacity="0.06564712507650255"/><rect x="65.6837155111134" y="173.40501490980387" width="97.20674272160977" height="59.26365510560572" rx="8" fill="none" stroke="#CE93D8" stroke-width="1.5" opacity="0.06"/><rect x="639.3813185859472" y="7.554129930213094" width="110.26971698738635" height="79.91453017108142" rx="8" fill="none" stroke="#CE93D8" stroke-width="1.5" opacity="0.06"/><rect x="884.2415236867964" y="373.14265966415405" width="124.18008184060454" height="88.32904976792634" rx="8" fill="none" stroke="#CE93D8" stroke-width="1.5" opacity="0.06"/>

  <!-- Large icon watermark -->
  <polygon points="986.4925825921819,101.74291032087058 1009.9172327737158,169.13263337907352 1081.2472830129277,170.58622990494987 1024.39446276048,213.68896577323815 1045.0542080460168,281.9770608903615 986.4925825921819,241.2262936068699 927.930957138347,281.9770608903615 948.5907024238835,213.68896577323815 891.737882171436,170.58622990494985 963.0679324106479,169.13263337907352" fill="#CE93D8" opacity="0.1"/>

  <!-- Subtle grid overlay -->
  <rect width="1200" height="630" fill="url(#bg-1921354301)" opacity="0"/>

  <!-- Bottom gradient overlay for text readability -->
  <rect x="0" y="300" width="1200" height="330" fill="url(#bg-1921354301)" opacity="0.3"/>

  <!-- Accent line -->
  <rect x="80" y="240" width="60" height="4" rx="2" fill="url(#accent-line-1921354301)"/>

  <!-- Category badge -->
  <rect x="80" y="200" width="109" height="30" rx="15" fill="#CE93D8" opacity="0.2"/>
  <text x="96" y="220" font-family="'Fira Sans', 'Segoe UI', Arial, sans-serif" font-size="12" font-weight="700" fill="#CE93D8" letter-spacing="2" text-anchor="start">REVIEWS</text>

  <!-- Title -->
  <text x="80" y="300" font-family="'Fira Sans', 'Segoe UI', Arial, sans-serif" font-size="42" font-weight="800" fill="white" letter-spacing="-0.5">Bybit Exchange Review 2025: Features,</text>
  <text x="80" y="352.5" font-family="'Fira Sans', 'Segoe UI', Arial, sans-serif" font-size="42" font-weight="800" fill="white" letter-spacing="-0.5">Fees, and Safety Analysis</text>

  <!-- Author bar -->
  <g transform="translate(80, 435)">
    <!-- Author avatar circle -->
    <circle cx="16" cy="12" r="16" fill="#CE93D8" opacity="0.2"/>
    <text x="16" y="17" font-family="'Fira Sans', Arial, sans-serif" font-size="13" font-weight="700" fill="#CE93D8" text-anchor="middle">YK</text>

    <text x="44" y="10" font-family="'Fira Sans', Arial, sans-serif" font-size="14" font-weight="600" fill="#CE93D8">Yosef Kamel</text>
    <text x="44" y="28" font-family="'Fira Sans', Arial, sans-serif" font-size="12" font-weight="400" fill="white" opacity="0.5">Crypto Pointers</text>
  </g>

  <!-- Branding: bottom bar -->
  <rect x="0" y="610" width="1200" height="20" fill="#CE93D8" opacity="0.08"/>
  <text x="1120" y="600" font-family="'Fira Sans', Arial, sans-serif" font-size="11" font-weight="600" fill="white" opacity="0.25" text-anchor="end">cryptopointers.com</text>

  <!-- Corner accent -->
  <rect x="0" y="0" width="4" height="630" fill="#CE93D8" opacity="0.3"/>
</svg>