<svg xmlns="http://www.w3.org/2000/svg" width="1200" height="630" viewBox="0 0 1200 630">
  <defs>
    <linearGradient id="bg-1578379995" x1="0" y1="0" x2="1" y2="1">
      <stop offset="0%" stop-color="#2d1a3d"/>
      <stop offset="100%" stop-color="#1a0d28"/>
    </linearGradient>
    <radialGradient id="orb1-1578379995" cx="50%" cy="50%" r="50%">
      <stop offset="0%" stop-color="#CE93D8" stop-opacity="0.25"/>
      <stop offset="100%" stop-color="#CE93D8" stop-opacity="0"/>
    </radialGradient>
    <radialGradient id="orb2-1578379995" cx="50%" cy="50%" r="50%">
      <stop offset="0%" stop-color="#D97706" stop-opacity="0.15"/>
      <stop offset="100%" stop-color="#D97706" stop-opacity="0"/>
    </radialGradient>
    <linearGradient id="accent-line-1578379995" x1="0" y1="0" x2="1" y2="0">
      <stop offset="0%" stop-color="#CE93D8"/>
      <stop offset="100%" stop-color="#D97706"/>
    </linearGradient>
  </defs>

  <!-- Background -->
  <rect width="1200" height="630" fill="url(#bg-1578379995)"/>

  <!-- Glow orbs -->
  <ellipse cx="1028.540202905424" cy="-20.423398446291685" rx="350" ry="300" fill="url(#orb1-1578379995)"/>
  <ellipse cx="84.1261629248038" cy="592.8142168093473" rx="300" ry="280" fill="url(#orb2-1578379995)"/>

  <!-- Category decorations -->
  <polygon points="417.7379139242694,157.00495528997854 419.90179972702634,163.23017802958313 426.4910158658546,163.3644561025065 421.23915470090344,167.34613341604424 423.14762843116176,173.65434456865933 417.7379139242694,169.88993374105542 412.328199417377,173.65434456865933 414.2366731476353,167.34613341604424 408.98481198268416,163.3644561025065 415.5740281215124,163.23017802958313" fill="#CE93D8" opacity="0.05959522344637662"/><polygon points="578.7665635496378,199.34627821817995 581.5490547712293,207.35114964130813 590.0219769744712,207.52381474160384 583.2687289195711,212.64376245696553 585.7227916036167,220.75534678074737 578.7665635496378,215.9147770663351 571.8103354956589,220.75534678074737 574.2643981797045,212.64376245696553 567.5111501248044,207.52381474160384 575.9840723280463,207.35114964130813" fill="#CE93D8" opacity="0.05921964057721198"/><polygon points="746.3328692512587,594.8805876067839 748.3218143706026,600.6025283713984 754.3783212634005,600.7259506506314 749.5510500561154,604.3857268040096 751.3052320496186,610.1839467321589 746.3328692512587,606.7238720215485 741.3605064528988,610.1839467321589 743.1146884464019,604.3857268040096 738.2874172391168,600.7259506506314 744.3439241319147,600.6025283713984" fill="#CE93D8" opacity="0.05850896531250328"/><polygon points="138.0080718928948,479.8196903980337 140.475538872557,486.9182773620251 147.98918549092346,487.07139390385413 142.00051733210626,491.61167846152676 144.17673934205027,498.80489665260836 138.0080718928948,494.51235986385495 131.83940444373934,498.80489665260836 134.01562645368335,491.61167846152676 128.02695829486615,487.07139390385413 135.5406049132326,486.9182773620251" fill="#CE93D8" opacity="0.09342013669200241"/><polygon points="1002.1731774099171,32.15272551877424 1004.3073680444137,38.292519056673704 1010.8061598726352,38.42495442146339 1005.6263703950043,42.35199087658191 1007.5086539961586,48.57363397123389 1002.1731774099171,44.860882437657565 996.8377008236756,48.57363397123389 998.7199844248299,42.35199087658191 993.540194947199,38.42495442146338 1000.0389867754205,38.292519056673704" fill="#CE93D8" opacity="0.040507284193299714"/><polygon points="470.8178011942655,331.04053624216465 473.6066645500601,339.06373948053476 482.09899044340244,339.23679999813953 475.33027689392026,344.3684728157053 477.789959583752,352.4986333360658 470.8178011942655,347.6469783180952 463.84564280477895,352.4986333360658 466.3053254946107,344.3684728157053 459.5366119451285,339.23679999813953 468.0289378384709,339.06373948053476" fill="#CE93D8" opacity="0.05193159450311214"/><polygon points="977.8773149717599,349.0541198152117 980.5426053762584,356.7218194750527 988.6586411326789,356.88721177941613 982.1898454361275,361.79150308908726 984.5405409830063,369.56142081450247 977.8773149717599,364.924739874769 971.2140889605135,369.56142081450247 973.5647845073923,361.79150308908726 967.0959888108409,356.88721177941613 975.2120245672614,356.7218194750527" fill="#CE93D8" opacity="0.04877360701095313"/><polygon points="643.5397744653746,3.5292394413612778 644.629531211664,6.664330243747837 647.947933102789,6.731954161636921 645.3030379203403,8.737170753218077 646.2641663310981,11.914055435312523 643.5397744653746,10.018256641328335 640.8153825996512,11.914055435312523 641.776511010409,8.737170753218077 639.1316158279603,6.731954161636919 642.4500177190853,6.664330243747838" fill="#CE93D8" opacity="0.08285625373478979"/><polygon points="372.53502810467035,210.80159839764238 375.3857343977573,219.00271585820744 384.0663772900652,219.1796139861117 377.14756777882826,224.42508145037536 379.66179383738773,232.7355279665315 372.53502810467035,227.7762876857631 365.40826237195296,232.7355279665315 367.92248843051243,224.42508145037536 361.0036789192755,219.1796139861117 369.6843218115834,219.00271585820744" fill="#CE93D8" opacity="0.040406537307426334"/><polygon points="513.8369513568468,531.6786885553505 515.4504802033742,536.3206047108207 520.363812645621,536.4207308560368 516.4476958723566,539.3897189582608 517.8707734731653,544.0935164746371 513.8369513568468,541.2865358785353 509.80312924052845,544.0935164746371 511.22620684133716,539.3897189582608 507.3100900680726,536.4207308560368 512.2234225103194,536.3206047108207" fill="#CE93D8" opacity="0.0771207915386185"/><polygon points="560.9215152948163,280.17960103959774 562.3083354138298,284.1693051772303 566.5313205169311,284.25536310729075 563.1654373836623,286.8071937994642 564.3885655923499,290.8500846628755 560.9215152948163,288.43749862654136 557.4544649972828,290.8500846628755 558.6775932059704,286.8071937994642 555.3117100727015,284.25536310729075 559.5346951758029,284.1693051772303" fill="#CE93D8" opacity="0.05948935282882303"/><polygon points="983.2558092135005,48.29727947185747 985.9621882994187,56.08318601377543 994.2033425821446,56.2511280409352 987.6348225609581,61.23102494423043 990.0217569282961,69.12072536707268 983.2558092135005,64.41256437186152 976.4898614987048,69.12072536707268 978.8767958660428,61.23102494423043 972.3082758448563,56.2511280409352 980.5494301275822,56.08318601377543" fill="#CE93D8" opacity="0.08485529036726802"/><rect x="282.6678941491991" y="416.7790003120899" width="115.7386448327452" height="53.49786267615855" rx="8" fill="none" stroke="#CE93D8" stroke-width="1.5" opacity="0.06"/><rect x="49.72755163908005" y="493.3395372936502" width="131.09263098798692" height="62.49122123233974" rx="8" fill="none" stroke="#CE93D8" stroke-width="1.5" opacity="0.06"/><rect x="538.2225196808577" y="88.44187762588263" width="118.26293598394841" height="50.48060349188745" rx="8" fill="none" stroke="#CE93D8" stroke-width="1.5" opacity="0.06"/>

  <!-- Large icon watermark -->
  <polygon points="1058.0550270387903,129.64165601879358 1081.9082094300416,198.26421144420644 1154.5431766610275,199.7444001678934 1096.6502868876853,243.63566053935895 1117.6879830169182,313.17302290577464 1058.0550270387903,271.67675819899887 998.4220710606623,313.17302290577464 1019.4597671898954,243.63566053935895 961.566877416553,199.74440016789333 1034.201844647539,198.26421144420644" fill="#CE93D8" opacity="0.1"/>

  <!-- Subtle grid overlay -->
  <rect width="1200" height="630" fill="url(#bg-1578379995)" opacity="0"/>

  <!-- Bottom gradient overlay for text readability -->
  <rect x="0" y="300" width="1200" height="330" fill="url(#bg-1578379995)" opacity="0.3"/>

  <!-- Accent line -->
  <rect x="80" y="240" width="60" height="4" rx="2" fill="url(#accent-line-1578379995)"/>

  <!-- Category badge -->
  <rect x="80" y="200" width="109" height="30" rx="15" fill="#CE93D8" opacity="0.2"/>
  <text x="96" y="220" font-family="'Fira Sans', 'Segoe UI', Arial, sans-serif" font-size="12" font-weight="700" fill="#CE93D8" letter-spacing="2" text-anchor="start">REVIEWS</text>

  <!-- Title -->
  <text x="80" y="300" font-family="'Fira Sans', 'Segoe UI', Arial, sans-serif" font-size="42" font-weight="800" fill="white" letter-spacing="-0.5">BlockFi vs Nexo: Crypto Lending</text>
  <text x="80" y="352.5" font-family="'Fira Sans', 'Segoe UI', Arial, sans-serif" font-size="42" font-weight="800" fill="white" letter-spacing="-0.5">Platforms Compared in 2025</text>

  <!-- Author bar -->
  <g transform="translate(80, 435)">
    <!-- Author avatar circle -->
    <circle cx="16" cy="12" r="16" fill="#CE93D8" opacity="0.2"/>
    <text x="16" y="17" font-family="'Fira Sans', Arial, sans-serif" font-size="13" font-weight="700" fill="#CE93D8" text-anchor="middle">YK</text>

    <text x="44" y="10" font-family="'Fira Sans', Arial, sans-serif" font-size="14" font-weight="600" fill="#CE93D8">Yosef Kamel</text>
    <text x="44" y="28" font-family="'Fira Sans', Arial, sans-serif" font-size="12" font-weight="400" fill="white" opacity="0.5">Crypto Pointers</text>
  </g>

  <!-- Branding: bottom bar -->
  <rect x="0" y="610" width="1200" height="20" fill="#CE93D8" opacity="0.08"/>
  <text x="1120" y="600" font-family="'Fira Sans', Arial, sans-serif" font-size="11" font-weight="600" fill="white" opacity="0.25" text-anchor="end">cryptopointers.com</text>

  <!-- Corner accent -->
  <rect x="0" y="0" width="4" height="630" fill="#CE93D8" opacity="0.3"/>
</svg>