<svg xmlns="http://www.w3.org/2000/svg" width="1200" height="630" viewBox="0 0 1200 630">
  <defs>
    <linearGradient id="bg-152798837" x1="0" y1="0" x2="1" y2="1">
      <stop offset="0%" stop-color="#2d1a3d"/>
      <stop offset="100%" stop-color="#1a0d28"/>
    </linearGradient>
    <radialGradient id="orb1-152798837" cx="50%" cy="50%" r="50%">
      <stop offset="0%" stop-color="#CE93D8" stop-opacity="0.25"/>
      <stop offset="100%" stop-color="#CE93D8" stop-opacity="0"/>
    </radialGradient>
    <radialGradient id="orb2-152798837" cx="50%" cy="50%" r="50%">
      <stop offset="0%" stop-color="#D97706" stop-opacity="0.15"/>
      <stop offset="100%" stop-color="#D97706" stop-opacity="0"/>
    </radialGradient>
    <linearGradient id="accent-line-152798837" x1="0" y1="0" x2="1" y2="0">
      <stop offset="0%" stop-color="#CE93D8"/>
      <stop offset="100%" stop-color="#D97706"/>
    </linearGradient>
  </defs>

  <!-- Background -->
  <rect width="1200" height="630" fill="url(#bg-152798837)"/>

  <!-- Glow orbs -->
  <ellipse cx="1032.0158158428967" cy="96.13107731565833" rx="350" ry="300" fill="url(#orb1-152798837)"/>
  <ellipse cx="40.830658096820116" cy="547.8944701142609" rx="300" ry="280" fill="url(#orb2-152798837)"/>

  <!-- Category decorations -->
  <polygon points="286.41564716910943,281.62743176692163 287.26243611388554,284.06353527476386 289.84098040397305,284.1160820346402 287.7857804630549,285.67422356247596 288.53261953104976,288.1428027539204 286.41564716910943,286.66968366956337 284.2986748071691,288.1428027539204 285.045513875164,285.67422356247596 282.9903139342458,284.1160820346402 285.5688582243333,284.06353527476386" fill="#CE93D8" opacity="0.06389709988143295"/><polygon points="860.9521349715069,593.5304215905256 863.0546753578534,599.5791614118901 869.4570894910769,599.7096327477446 864.3541167793348,603.5784308823073 866.2084859373732,609.7078064237875 860.9521349715069,606.050115345195 855.6957840056406,609.7078064237875 857.5501531636789,603.5784308823073 852.4471804519369,599.7096327477446 858.8495945851604,599.5791614118901" fill="#CE93D8" opacity="0.04744523883331567"/><polygon points="254.35815118812025,554.2987753107212 256.3401767856946,560.0008094960642 262.3756131467394,560.1238023903232 257.5651359715679,563.770846216138 259.3132151820562,569.5488941905078 254.35815118812025,566.1008570479788 249.4030871941843,569.5488941905078 251.15116640467258,563.770846216138 246.3406892295011,560.1238023903232 252.37612559054588,560.0008094960642" fill="#CE93D8" opacity="0.04499616653192788"/><polygon points="881.4345480417833,466.2336207345128 883.9170033872234,473.3753273101544 891.4762908529732,473.5293739421344 885.4512451662592,478.0972379755395 887.6406864053836,485.33415060559713 881.4345480417833,481.0155392585881 875.228409678183,485.33415060559713 877.4178509173073,478.0972379755395 871.3928052305934,473.5293739421344 878.9520926963431,473.3753273101544" fill="#CE93D8" opacity="0.04545412357430905"/><polygon points="520.7254812084138,20.691135411243884 522.1211172390692,24.70620179930284 526.3709475422248,24.79280679318009 522.9836677419382,27.360859281965052 524.2145712850523,31.429450499835625 520.7254812084138,29.001527834739537 517.2363911317753,31.429450499835625 518.4672946748894,27.360859281965055 515.0800148746029,24.79280679318009 519.3298451777584,24.70620179930284" fill="#CE93D8" opacity="0.0889915165072307"/><polygon points="1005.3748692953959,238.40119068380446 1008.1491519146192,246.3824470076247 1016.5970782261494,246.55460273015842 1009.8637528676973,251.65944613373813 1012.3105758434542,259.74710054544204 1005.3748692953959,254.9208109522797 998.4391627473376,259.74710054544204 1000.8859857230946,251.65944613373813 994.1526603646424,246.55460273015842 1002.6005866761726,246.3824470076247" fill="#CE93D8" opacity="0.09850995728746056"/><polygon points="998.8450626735575,315.4520468263421 1000.3571450182076,319.8021143687591 1004.9615642421384,319.8959453385276 1001.2916633009899,322.67826590286757 1002.6252685351826,327.08632417379886 998.8450626735575,324.45582530774175 995.0648568119325,327.08632417379886 996.3984620461252,322.67826590286757 992.7285611049767,319.8959453385276 997.3329803289075,319.8021143687591" fill="#CE93D8" opacity="0.08658778020180762"/><polygon points="342.82501834305003,430.9303030309733 344.7188682954209,436.37866716085375 350.4858023243713,436.49618839126543 345.8893319355785,439.980983837029 347.55964322397733,445.50198008170355 342.82501834305003,442.2073379811458 338.09039346212273,445.50198008170355 339.76070475052154,439.980983837029 335.16423436172875,436.49618839126543 340.93116839067915,436.37866716085375" fill="#CE93D8" opacity="0.05820361443795263"/><polygon points="465.9844411313534,73.65688164262102 467.8758960417861,79.09835554312026 473.6355369645236,79.2157281512638 469.0448794646215,82.69611657881136 470.71307840743526,88.21013074049154 465.9844411313534,84.91965518226847 461.2558038552715,88.21013074049154 462.92400279808527,82.69611657881136 458.33334529818313,79.2157281512638 464.09298622092064,79.09835554312026" fill="#CE93D8" opacity="0.09091499904170633"/><polygon points="572.8526211236604,268.6890121468808 574.8385885191831,274.402386380849 580.8860279899224,274.52562387999046 576.0659838701652,278.1799208461721 577.817539612467,283.96946004329817 572.8526211236604,280.5145655394159 567.8877026348537,283.96946004329817 569.6392583771556,278.1799208461721 564.8192142573984,274.52562387999046 570.8666537281376,274.402386380849" fill="#CE93D8" opacity="0.09949469587765633"/><polygon points="892.6121693067253,265.5358999032527 895.3482141732787,273.4071511024362 903.6797032787955,273.57693401410586 897.0391828955534,278.6114177008593 899.4522814731088,286.58760051016355 892.6121693067253,281.82783134520054 885.7720571403418,286.58760051016355 888.1851557178971,278.6114177008593 881.544635334655,273.57693401410586 889.8761244401718,273.4071511024362" fill="#CE93D8" opacity="0.04593211124185473"/><polygon points="93.49207568774,121.64373016483151 95.57254206459864,127.62896588369532 101.90773896326155,127.75806743587081 96.85834099794862,131.58624809298405 98.69324162988659,137.6512729590927 93.49207568774,134.0319830013998 88.29090974559341,137.6512729590927 90.12581037753138,131.58624809298405 85.07641241221845,127.75806743587081 91.41160931088136,127.62896588369532" fill="#CE93D8" opacity="0.09006445195525885"/><rect x="891.0774795804173" y="70.4540618462488" width="123.40838767588139" height="70.5584377516061" rx="8" fill="none" stroke="#CE93D8" stroke-width="1.5" opacity="0.06"/><rect x="285.3475287556648" y="486.94911506026983" width="101.06542105320841" height="77.03460984863341" rx="8" fill="none" stroke="#CE93D8" stroke-width="1.5" opacity="0.06"/><rect x="683.177846018225" y="238.79371560178697" width="136.64060812909156" height="78.50423232652247" rx="8" fill="none" stroke="#CE93D8" stroke-width="1.5" opacity="0.06"/>

  <!-- Large icon watermark -->
  <polygon points="997.9872846230865,104.49725872091949 1018.5519251903943,163.65909985333676 1081.1730031339089,164.93522094171485 1031.2615720274155,202.77537068694835 1049.398886041356,262.7258980257438 997.9872846230865,226.9505555752665 946.5756832048169,262.7258980257438 964.7129972187574,202.77537068694835 914.8015661122639,164.93522094171482 977.4226440557786,163.65909985333676" fill="#CE93D8" opacity="0.1"/>

  <!-- Subtle grid overlay -->
  <rect width="1200" height="630" fill="url(#bg-152798837)" opacity="0"/>

  <!-- Bottom gradient overlay for text readability -->
  <rect x="0" y="300" width="1200" height="330" fill="url(#bg-152798837)" opacity="0.3"/>

  <!-- Accent line -->
  <rect x="80" y="240" width="60" height="4" rx="2" fill="url(#accent-line-152798837)"/>

  <!-- Category badge -->
  <rect x="80" y="200" width="109" height="30" rx="15" fill="#CE93D8" opacity="0.2"/>
  <text x="96" y="220" font-family="'Fira Sans', 'Segoe UI', Arial, sans-serif" font-size="12" font-weight="700" fill="#CE93D8" letter-spacing="2" text-anchor="start">REVIEWS</text>

  <!-- Title -->
  <text x="80" y="300" font-family="'Fira Sans', 'Segoe UI', Arial, sans-serif" font-size="42" font-weight="800" fill="white" letter-spacing="-0.5">Chainlink Review: The Oracle Network</text>
  <text x="80" y="352.5" font-family="'Fira Sans', 'Segoe UI', Arial, sans-serif" font-size="42" font-weight="800" fill="white" letter-spacing="-0.5">Powering DeFi</text>

  <!-- Author bar -->
  <g transform="translate(80, 435)">
    <!-- Author avatar circle -->
    <circle cx="16" cy="12" r="16" fill="#CE93D8" opacity="0.2"/>
    <text x="16" y="17" font-family="'Fira Sans', Arial, sans-serif" font-size="13" font-weight="700" fill="#CE93D8" text-anchor="middle">YK</text>

    <text x="44" y="10" font-family="'Fira Sans', Arial, sans-serif" font-size="14" font-weight="600" fill="#CE93D8">Yosef Kamel</text>
    <text x="44" y="28" font-family="'Fira Sans', Arial, sans-serif" font-size="12" font-weight="400" fill="white" opacity="0.5">Crypto Pointers</text>
  </g>

  <!-- Branding: bottom bar -->
  <rect x="0" y="610" width="1200" height="20" fill="#CE93D8" opacity="0.08"/>
  <text x="1120" y="600" font-family="'Fira Sans', Arial, sans-serif" font-size="11" font-weight="600" fill="white" opacity="0.25" text-anchor="end">cryptopointers.com</text>

  <!-- Corner accent -->
  <rect x="0" y="0" width="4" height="630" fill="#CE93D8" opacity="0.3"/>
</svg>