<svg xmlns="http://www.w3.org/2000/svg" width="1200" height="630" viewBox="0 0 1200 630">
  <defs>
    <linearGradient id="bg-1476376085" x1="0" y1="0" x2="1" y2="1">
      <stop offset="0%" stop-color="#2d1a3d"/>
      <stop offset="100%" stop-color="#1a0d28"/>
    </linearGradient>
    <radialGradient id="orb1-1476376085" cx="50%" cy="50%" r="50%">
      <stop offset="0%" stop-color="#CE93D8" stop-opacity="0.25"/>
      <stop offset="100%" stop-color="#CE93D8" stop-opacity="0"/>
    </radialGradient>
    <radialGradient id="orb2-1476376085" cx="50%" cy="50%" r="50%">
      <stop offset="0%" stop-color="#D97706" stop-opacity="0.15"/>
      <stop offset="100%" stop-color="#D97706" stop-opacity="0"/>
    </radialGradient>
    <linearGradient id="accent-line-1476376085" x1="0" y1="0" x2="1" y2="0">
      <stop offset="0%" stop-color="#CE93D8"/>
      <stop offset="100%" stop-color="#D97706"/>
    </linearGradient>
  </defs>

  <!-- Background -->
  <rect width="1200" height="630" fill="url(#bg-1476376085)"/>

  <!-- Glow orbs -->
  <ellipse cx="1027.3119850317016" cy="-43.75843605957925" rx="350" ry="300" fill="url(#orb1-1476376085)"/>
  <ellipse cx="88.03727719932795" cy="491.43870542757213" rx="300" ry="280" fill="url(#orb2-1476376085)"/>

  <!-- Category decorations -->
  <polygon points="1176.6407308410853,68.84357620738447 1177.8011806038758,72.18204177811292 1181.3348487371647,72.25405249035724 1178.518377999517,74.38934839558306 1179.5418552480617,77.77231903403259 1176.6407308410853,75.75353890877217 1173.739606434109,77.77231903403259 1174.7630836826536,74.38934839558306 1171.9466129450059,72.25405249035724 1175.4802810782949,72.18204177811292" fill="#CE93D8" opacity="0.04118104508146644"/><polygon points="692.6724257096648,143.8432336962782 694.7614643196764,149.85313063371697 701.1227643966889,149.98276412845016 696.0525611844745,153.82671819940438 697.8950222346939,159.9167330426687 692.6724257096648,156.2825303722732 687.4498291846357,159.9167330426687 689.2922902348552,153.82671819940438 684.2220870226407,149.98276412845016 690.5833870996532,149.85313063371697" fill="#CE93D8" opacity="0.05271925567649305"/><polygon points="196.0857155113481,499.4825199789833 197.0481699630538,502.2513783591059 199.9789255500567,502.3111026425625 197.64299952683155,504.08207551496986 198.4918516406123,506.88784553222234 196.0857155113481,505.21350858040154 193.6795793820839,506.88784553222234 194.52843149586465,504.08207551496986 192.1925054726395,502.3111026425625 195.1232610596424,502.2513783591059" fill="#CE93D8" opacity="0.05900920806452632"/><polygon points="1075.1948869540356,113.69084142134525 1077.5286441228982,120.40476235830411 1084.6351330058062,120.54958165279125 1078.9709853747438,124.8438322840985 1081.0292798761918,131.64725646727717 1075.1948869540356,127.5873283766769 1069.3604940318794,131.64725646727717 1071.4187885333274,124.8438322840985 1065.754640902265,120.54958165279123 1072.861129785173,120.40476235830411" fill="#CE93D8" opacity="0.08545826463028788"/><polygon points="334.5509374034591,467.8911369222682 336.8182602365074,474.41393477062684 343.7224509218111,474.554631539527 338.2195428107999,478.7266390804575 340.2192444860798,485.33639231410376 334.5509374034591,481.39203692736106 328.8826303208384,485.33639231410376 330.8823319961183,478.7266390804575 325.3794238851071,474.554631539527 332.2836145704108,474.41393477062684" fill="#CE93D8" opacity="0.04194337005261332"/><polygon points="113.14208033122122,577.3494404769502 114.29247134285373,580.6589683068973 117.79550972415566,580.7303548319873 115.003452088395,582.8471420426982 116.01805786030249,586.2007891714896 113.14208033122122,584.1995077847131 110.26610280213995,586.2007891714896 111.28070857404745,582.8471420426982 108.48865093828678,580.7303548319873 111.99168931958872,580.6589683068973" fill="#CE93D8" opacity="0.07518207555171103"/><polygon points="78.8188588465564,141.41241695857607 80.25300961276928,145.53828531561922 84.62012055836678,145.6272803082955 81.13936353128055,148.26620217873213 82.40423576208862,152.44707246607777 78.8188588465564,149.95214751861988 75.23348193102417,152.44707246607777 76.49835416183224,148.26620217873213 73.01759713474601,145.6272803082955 77.38470808034351,145.53828531561922" fill="#CE93D8" opacity="0.08697509466204792"/><polygon points="1105.7999716452323,94.72660165592097 1106.6621472369602,97.20697057941915 1109.2875451744485,97.26047214444228 1107.1950010569187,98.84692600882626 1107.9554106245523,101.36036071796003 1105.7999716452323,99.86047420423478 1103.6445326659123,101.36036071796003 1104.4049422335459,98.84692600882626 1102.312398116016,97.26047214444228 1104.9377960535044,97.20697057941915" fill="#CE93D8" opacity="0.09537486075889319"/><polygon points="852.2198094832711,162.2538784759585 853.4494954361639,165.79152771177655 857.1939936514433,165.86783481626654 854.20948315054,168.1305293887672 855.2940243655031,171.71533900874317 852.2198094832711,169.57611192489043 849.1455946010391,171.71533900874317 850.2301358160022,168.1305293887672 847.2456253150989,165.86783481626654 850.9901235303782,165.79152771177655" fill="#CE93D8" opacity="0.0489131526928395"/><polygon points="21.128977577667683,334.8801425563637 22.957582738524195,340.140805764477 28.525840833340936,340.25427828545054 24.087722879936987,343.6190194724041 25.70049047980896,348.9498125552682 21.128977577667683,345.76867376403885 16.55746467552641,348.9498125552682 18.17023227539838,343.6190194724041 13.73211432199443,340.25427828545054 19.30037241681117,340.140805764477" fill="#CE93D8" opacity="0.05444178631529212"/><polygon points="789.7047815830447,81.62754335659557 790.976561807805,85.28629242961493 794.8492406577498,85.36521165795189 791.7625652129267,87.70536216972198 792.8842321449453,91.4128860082195 789.7047815830447,89.20042949026451 786.5253310211441,91.4128860082195 787.6469979531627,87.70536216972198 784.5603225083396,85.36521165795187 788.4330013582844,85.28629242961493" fill="#CE93D8" opacity="0.09483275935519486"/><polygon points="280.7887069634162,513.3953048939351 281.6979786156959,516.0111631610569 284.4667880594044,516.0675872316231 282.2599394018115,517.7407006210229 283.0618860941154,520.3914308815383 280.7887069634162,518.8096135560982 278.515527832717,520.3914308815383 279.3174745250209,517.7407006210229 277.110625867428,516.0675872316231 279.8794353111365,516.0111631610569" fill="#CE93D8" opacity="0.04709329297300428"/><rect x="344.2717017605901" y="75.78870968427509" width="105.9962118556723" height="55.422714510932565" rx="8" fill="none" stroke="#CE93D8" stroke-width="1.5" opacity="0.06"/><rect x="788.9038198627532" y="172.29715653229505" width="123.84811180178076" height="82.72167956456542" rx="8" fill="none" stroke="#CE93D8" stroke-width="1.5" opacity="0.06"/><rect x="924.6909152716398" y="255.84956794045866" width="127.19240085221827" height="89.58588662557304" rx="8" fill="none" stroke="#CE93D8" stroke-width="1.5" opacity="0.06"/>

  <!-- Large icon watermark -->
  <polygon points="961.2481621280313,95.6999105932191 981.9945031661244,155.38448074446381 1045.1688744826101,156.67187709932557 994.8164470698628,194.846366411584 1013.1140147232642,255.326591267126 961.2481621280313,219.2351530140266 909.3823095327983,255.326591267126 927.6798771861997,194.846366411584 877.3274497734524,156.67187709932554 940.5018210899381,155.38448074446381" fill="#CE93D8" opacity="0.1"/>

  <!-- Subtle grid overlay -->
  <rect width="1200" height="630" fill="url(#bg-1476376085)" opacity="0"/>

  <!-- Bottom gradient overlay for text readability -->
  <rect x="0" y="300" width="1200" height="330" fill="url(#bg-1476376085)" opacity="0.3"/>

  <!-- Accent line -->
  <rect x="80" y="240" width="60" height="4" rx="2" fill="url(#accent-line-1476376085)"/>

  <!-- Category badge -->
  <rect x="80" y="200" width="109" height="30" rx="15" fill="#CE93D8" opacity="0.2"/>
  <text x="96" y="220" font-family="'Fira Sans', 'Segoe UI', Arial, sans-serif" font-size="12" font-weight="700" fill="#CE93D8" letter-spacing="2" text-anchor="start">REVIEWS</text>

  <!-- Title -->
  <text x="80" y="300" font-family="'Fira Sans', 'Segoe UI', Arial, sans-serif" font-size="42" font-weight="800" fill="white" letter-spacing="-0.5">Coinbase Review 2025: Fees, Features,</text>
  <text x="80" y="352.5" font-family="'Fira Sans', 'Segoe UI', Arial, sans-serif" font-size="42" font-weight="800" fill="white" letter-spacing="-0.5">and Is It Still Worth Using?</text>

  <!-- Author bar -->
  <g transform="translate(80, 435)">
    <!-- Author avatar circle -->
    <circle cx="16" cy="12" r="16" fill="#CE93D8" opacity="0.2"/>
    <text x="16" y="17" font-family="'Fira Sans', Arial, sans-serif" font-size="13" font-weight="700" fill="#CE93D8" text-anchor="middle">YK</text>

    <text x="44" y="10" font-family="'Fira Sans', Arial, sans-serif" font-size="14" font-weight="600" fill="#CE93D8">Yosef Kamel</text>
    <text x="44" y="28" font-family="'Fira Sans', Arial, sans-serif" font-size="12" font-weight="400" fill="white" opacity="0.5">Crypto Pointers</text>
  </g>

  <!-- Branding: bottom bar -->
  <rect x="0" y="610" width="1200" height="20" fill="#CE93D8" opacity="0.08"/>
  <text x="1120" y="600" font-family="'Fira Sans', Arial, sans-serif" font-size="11" font-weight="600" fill="white" opacity="0.25" text-anchor="end">cryptopointers.com</text>

  <!-- Corner accent -->
  <rect x="0" y="0" width="4" height="630" fill="#CE93D8" opacity="0.3"/>
</svg>