<svg xmlns="http://www.w3.org/2000/svg" width="1200" height="630" viewBox="0 0 1200 630">
  <defs>
    <linearGradient id="bg-2117140335" x1="0" y1="0" x2="1" y2="1">
      <stop offset="0%" stop-color="#1a2e1a"/>
      <stop offset="100%" stop-color="#0d1a0d"/>
    </linearGradient>
    <radialGradient id="orb1-2117140335" cx="50%" cy="50%" r="50%">
      <stop offset="0%" stop-color="#66BB6A" stop-opacity="0.25"/>
      <stop offset="100%" stop-color="#66BB6A" stop-opacity="0"/>
    </radialGradient>
    <radialGradient id="orb2-2117140335" cx="50%" cy="50%" r="50%">
      <stop offset="0%" stop-color="#D97706" stop-opacity="0.15"/>
      <stop offset="100%" stop-color="#D97706" stop-opacity="0"/>
    </radialGradient>
    <linearGradient id="accent-line-2117140335" x1="0" y1="0" x2="1" y2="0">
      <stop offset="0%" stop-color="#66BB6A"/>
      <stop offset="100%" stop-color="#D97706"/>
    </linearGradient>
  </defs>

  <!-- Background -->
  <rect width="1200" height="630" fill="url(#bg-2117140335)"/>

  <!-- Glow orbs -->
  <ellipse cx="838.6402481934056" cy="38.95716634579003" rx="350" ry="300" fill="url(#orb1-2117140335)"/>
  <ellipse cx="163.95767575595528" cy="408.44118213281035" rx="300" ry="280" fill="url(#orb2-2117140335)"/>

  <!-- Category decorations -->
  <path d="M0,408.5526463808492 Q50,422.7208490483463 100,485.79011855181307 Q150,384.8708069883287 200,483.41666682390496 Q250,437.472273549065 300,483.09075090801343 Q350,462.17048056423664 400,444.8748594732024 Q450,406.6991319414228 500,389.1212339978665 Q550,387.0775729883462 600,393.5570558300242 Q650,420.29082169756293 700,365.9783278591931 Q750,337.39948351867497 800,423.8073415821418 Q850,419.0066852606833 900,397.69504541764036 Q950,306.47994219325483 1000,446.0675754467957 Q1050,457.6043924782425 1100,406.28089499659836 Q1150,377.5182866025716 1200,451.2377013801597 Q1250,488.14084492623806 1300,491.46887118695304" fill="none" stroke="#66BB6A" stroke-width="2" opacity="0.08"/><rect x="187.95506860129535" y="240.56913265958428" width="8" height="102.46213062666357" rx="2" fill="#66BB6A" opacity="0.06"/><line x1="191.95506860129535" y1="220.56913265958428" x2="191.95506860129535" y2="363.03126328624785" stroke="#66BB6A" stroke-width="1" opacity="0.05"/><rect x="334.7121078148484" y="206.8556399550289" width="8" height="82.05962176434696" rx="2" fill="#66BB6A" opacity="0.06"/><line x1="338.7121078148484" y1="186.8556399550289" x2="338.7121078148484" y2="308.91526171937585" stroke="#66BB6A" stroke-width="1" opacity="0.05"/><rect x="536.7357596755028" y="261.5054911468178" width="8" height="69.62246406823397" rx="2" fill="#66BB6A" opacity="0.06"/><line x1="540.7357596755028" y1="241.5054911468178" x2="540.7357596755028" y2="351.12795521505177" stroke="#66BB6A" stroke-width="1" opacity="0.05"/><rect x="717.4120358284563" y="260.74576736427844" width="8" height="106.01218694821" rx="2" fill="#66BB6A" opacity="0.06"/><line x1="721.4120358284563" y1="240.74576736427844" x2="721.4120358284563" y2="386.75795431248844" stroke="#66BB6A" stroke-width="1" opacity="0.05"/><rect x="889.5096826646477" y="339.53263852745295" width="8" height="146.17348942905664" rx="2" fill="#66BB6A" opacity="0.06"/><line x1="893.5096826646477" y1="319.53263852745295" x2="893.5096826646477" y2="505.7061279565096" stroke="#66BB6A" stroke-width="1" opacity="0.05"/><rect x="1071.6431692615151" y="374.1536513902247" width="8" height="91.3653033412993" rx="2" fill="#66BB6A" opacity="0.06"/><line x1="1075.6431692615151" y1="354.1536513902247" x2="1075.6431692615151" y2="485.518954731524" stroke="#66BB6A" stroke-width="1" opacity="0.05"/>

  <!-- Large icon watermark -->
  <polyline points="915.7121150521562,323.41474172193557 961.9963097432628,249.3600302161649 1008.2805044343695,277.1305470308289 1054.5646991254762,193.81899658683687 1100.8488938165829,156.79164083395153" fill="none" stroke="#66BB6A" stroke-width="3" opacity="0.12" stroke-linecap="round" stroke-linejoin="round"/>

  <!-- Subtle grid overlay -->
  <rect width="1200" height="630" fill="url(#bg-2117140335)" opacity="0"/>

  <!-- Bottom gradient overlay for text readability -->
  <rect x="0" y="300" width="1200" height="330" fill="url(#bg-2117140335)" opacity="0.3"/>

  <!-- Accent line -->
  <rect x="80" y="240" width="60" height="4" rx="2" fill="url(#accent-line-2117140335)"/>

  <!-- Category badge -->
  <rect x="80" y="200" width="131" height="30" rx="15" fill="#66BB6A" opacity="0.2"/>
  <text x="96" y="220" font-family="'Fira Sans', 'Segoe UI', Arial, sans-serif" font-size="12" font-weight="700" fill="#66BB6A" letter-spacing="2" text-anchor="start">INVESTING</text>

  <!-- Title -->
  <text x="80" y="300" font-family="'Fira Sans', 'Segoe UI', Arial, sans-serif" font-size="42" font-weight="800" fill="white" letter-spacing="-0.5">How to Survive a Crypto Bear Market:</text>
  <text x="80" y="352.5" font-family="'Fira Sans', 'Segoe UI', Arial, sans-serif" font-size="42" font-weight="800" fill="white" letter-spacing="-0.5">Strategies That Work</text>

  <!-- Author bar -->
  <g transform="translate(80, 435)">
    <!-- Author avatar circle -->
    <circle cx="16" cy="12" r="16" fill="#66BB6A" opacity="0.2"/>
    <text x="16" y="17" font-family="'Fira Sans', Arial, sans-serif" font-size="13" font-weight="700" fill="#66BB6A" text-anchor="middle">YK</text>

    <text x="44" y="10" font-family="'Fira Sans', Arial, sans-serif" font-size="14" font-weight="600" fill="#66BB6A">Yosef Kamel</text>
    <text x="44" y="28" font-family="'Fira Sans', Arial, sans-serif" font-size="12" font-weight="400" fill="white" opacity="0.5">Crypto Pointers</text>
  </g>

  <!-- Branding: bottom bar -->
  <rect x="0" y="610" width="1200" height="20" fill="#66BB6A" opacity="0.08"/>
  <text x="1120" y="600" font-family="'Fira Sans', Arial, sans-serif" font-size="11" font-weight="600" fill="white" opacity="0.25" text-anchor="end">cryptopointers.com</text>

  <!-- Corner accent -->
  <rect x="0" y="0" width="4" height="630" fill="#66BB6A" opacity="0.3"/>
</svg>