<svg xmlns="http://www.w3.org/2000/svg" width="1200" height="630" viewBox="0 0 1200 630">
  <defs>
    <linearGradient id="bg-554384466" x1="0" y1="0" x2="1" y2="1">
      <stop offset="0%" stop-color="#1a2e1a"/>
      <stop offset="100%" stop-color="#0d1a0d"/>
    </linearGradient>
    <radialGradient id="orb1-554384466" cx="50%" cy="50%" r="50%">
      <stop offset="0%" stop-color="#66BB6A" stop-opacity="0.25"/>
      <stop offset="100%" stop-color="#66BB6A" stop-opacity="0"/>
    </radialGradient>
    <radialGradient id="orb2-554384466" cx="50%" cy="50%" r="50%">
      <stop offset="0%" stop-color="#D97706" stop-opacity="0.15"/>
      <stop offset="100%" stop-color="#D97706" stop-opacity="0"/>
    </radialGradient>
    <linearGradient id="accent-line-554384466" x1="0" y1="0" x2="1" y2="0">
      <stop offset="0%" stop-color="#66BB6A"/>
      <stop offset="100%" stop-color="#D97706"/>
    </linearGradient>
  </defs>

  <!-- Background -->
  <rect width="1200" height="630" fill="url(#bg-554384466)"/>

  <!-- Glow orbs -->
  <ellipse cx="964.041058672592" cy="56.187885999679565" rx="350" ry="300" fill="url(#orb1-554384466)"/>
  <ellipse cx="28.463172959163785" cy="590.4457912314683" rx="300" ry="280" fill="url(#orb2-554384466)"/>

  <!-- Category decorations -->
  <path d="M0,410.72019876446575 Q50,352.3814728949219 100,383.69321572827175 Q150,360.2261124178767 200,488.3856346248649 Q250,476.0650244541466 300,355.56654734537005 Q350,414.19553253799677 400,417.16565212700516 Q450,320.8806931041181 500,371.7617298476398 Q550,488.46600390970707 600,453.37396026588976 Q650,432.1256078314036 700,435.28685338096693 Q750,464.63492466136813 800,456.19448559591547 Q850,431.2435034662485 900,452.2050565457903 Q950,434.88838700577617 1000,405.6684282142669 Q1050,363.81808491423726 1100,495.9335914812982 Q1150,330.50747946836054 1200,368.54470644611865 Q1250,453.2063733320683 1300,425.93342274194583" fill="none" stroke="#66BB6A" stroke-width="2" opacity="0.08"/><rect x="167.4465440493077" y="281.50609037838876" width="8" height="126.92316753789783" rx="2" fill="#66BB6A" opacity="0.06"/><line x1="171.4465440493077" y1="261.50609037838876" x2="171.4465440493077" y2="428.4292579162866" stroke="#66BB6A" stroke-width="1" opacity="0.05"/><rect x="350.21363626234233" y="219.7229489684105" width="8" height="141.3984263688326" rx="2" fill="#66BB6A" opacity="0.06"/><line x1="354.21363626234233" y1="199.7229489684105" x2="354.21363626234233" y2="381.1213753372431" stroke="#66BB6A" stroke-width="1" opacity="0.05"/><rect x="546.0863015893847" y="232.27528221905231" width="8" height="131.09022287651896" rx="2" fill="#66BB6A" opacity="0.06"/><line x1="550.0863015893847" y1="212.27528221905231" x2="550.0863015893847" y2="383.3655050955713" stroke="#66BB6A" stroke-width="1" opacity="0.05"/><rect x="700.513013843447" y="230.2969225216657" width="8" height="134.57050164230168" rx="2" fill="#66BB6A" opacity="0.06"/><line x1="704.513013843447" y1="210.2969225216657" x2="704.513013843447" y2="384.86742416396737" stroke="#66BB6A" stroke-width="1" opacity="0.05"/><rect x="879.4248329754919" y="273.54722283780575" width="8" height="77.55631157197058" rx="2" fill="#66BB6A" opacity="0.06"/><line x1="883.4248329754919" y1="253.54722283780575" x2="883.4248329754919" y2="371.10353440977633" stroke="#66BB6A" stroke-width="1" opacity="0.05"/><rect x="1050.0889834295958" y="271.3854253757745" width="8" height="121.96953442879021" rx="2" fill="#66BB6A" opacity="0.06"/><line x1="1054.0889834295958" y1="251.3854253757745" x2="1054.0889834295958" y2="413.3549598045647" stroke="#66BB6A" stroke-width="1" opacity="0.05"/>

  <!-- Large icon watermark -->
  <polyline points="875.1336249057204,337.8263105871156 924.9715844308957,258.08557534683496 974.8095439560711,287.9883510619402 1024.6475034812465,198.2800239166245 1074.485463006422,158.40965629648417" fill="none" stroke="#66BB6A" stroke-width="3" opacity="0.12" stroke-linecap="round" stroke-linejoin="round"/>

  <!-- Subtle grid overlay -->
  <rect width="1200" height="630" fill="url(#bg-554384466)" opacity="0"/>

  <!-- Bottom gradient overlay for text readability -->
  <rect x="0" y="300" width="1200" height="330" fill="url(#bg-554384466)" opacity="0.3"/>

  <!-- Accent line -->
  <rect x="80" y="240" width="60" height="4" rx="2" fill="url(#accent-line-554384466)"/>

  <!-- Category badge -->
  <rect x="80" y="200" width="131" height="30" rx="15" fill="#66BB6A" opacity="0.2"/>
  <text x="96" y="220" font-family="'Fira Sans', 'Segoe UI', Arial, sans-serif" font-size="12" font-weight="700" fill="#66BB6A" letter-spacing="2" text-anchor="start">INVESTING</text>

  <!-- Title -->
  <text x="80" y="300" font-family="'Fira Sans', 'Segoe UI', Arial, sans-serif" font-size="42" font-weight="800" fill="white" letter-spacing="-0.5">Crypto Index Fund Strategies: Passive</text>
  <text x="80" y="352.5" font-family="'Fira Sans', 'Segoe UI', Arial, sans-serif" font-size="42" font-weight="800" fill="white" letter-spacing="-0.5">Investing in Digital Assets</text>

  <!-- Author bar -->
  <g transform="translate(80, 435)">
    <!-- Author avatar circle -->
    <circle cx="16" cy="12" r="16" fill="#66BB6A" opacity="0.2"/>
    <text x="16" y="17" font-family="'Fira Sans', Arial, sans-serif" font-size="13" font-weight="700" fill="#66BB6A" text-anchor="middle">YK</text>

    <text x="44" y="10" font-family="'Fira Sans', Arial, sans-serif" font-size="14" font-weight="600" fill="#66BB6A">Yosef Kamel</text>
    <text x="44" y="28" font-family="'Fira Sans', Arial, sans-serif" font-size="12" font-weight="400" fill="white" opacity="0.5">Crypto Pointers</text>
  </g>

  <!-- Branding: bottom bar -->
  <rect x="0" y="610" width="1200" height="20" fill="#66BB6A" opacity="0.08"/>
  <text x="1120" y="600" font-family="'Fira Sans', Arial, sans-serif" font-size="11" font-weight="600" fill="white" opacity="0.25" text-anchor="end">cryptopointers.com</text>

  <!-- Corner accent -->
  <rect x="0" y="0" width="4" height="630" fill="#66BB6A" opacity="0.3"/>
</svg>