<svg xmlns="http://www.w3.org/2000/svg" width="1200" height="630" viewBox="0 0 1200 630">
  <defs>
    <linearGradient id="bg-998163007" x1="0" y1="0" x2="1" y2="1">
      <stop offset="0%" stop-color="#2d1a3d"/>
      <stop offset="100%" stop-color="#1a0d28"/>
    </linearGradient>
    <radialGradient id="orb1-998163007" cx="50%" cy="50%" r="50%">
      <stop offset="0%" stop-color="#CE93D8" stop-opacity="0.25"/>
      <stop offset="100%" stop-color="#CE93D8" stop-opacity="0"/>
    </radialGradient>
    <radialGradient id="orb2-998163007" cx="50%" cy="50%" r="50%">
      <stop offset="0%" stop-color="#D97706" stop-opacity="0.15"/>
      <stop offset="100%" stop-color="#D97706" stop-opacity="0"/>
    </radialGradient>
    <linearGradient id="accent-line-998163007" x1="0" y1="0" x2="1" y2="0">
      <stop offset="0%" stop-color="#CE93D8"/>
      <stop offset="100%" stop-color="#D97706"/>
    </linearGradient>
  </defs>

  <!-- Background -->
  <rect width="1200" height="630" fill="url(#bg-998163007)"/>

  <!-- Glow orbs -->
  <ellipse cx="1000.2827050630003" cy="65.76002044603229" rx="350" ry="300" fill="url(#orb1-998163007)"/>
  <ellipse cx="60.93599773012102" cy="518.3239210397005" rx="300" ry="280" fill="url(#orb2-998163007)"/>

  <!-- Category decorations -->
  <polygon points="905.1017841170542,284.08448539986273 906.5502668687583,288.25158504640825 910.9610199279922,288.34146939812115 907.4454784414294,291.0067629659069 908.7229909963144,295.2294141968677 905.1017841170542,292.7095565652102 901.480577237794,295.2294141968677 902.758089792679,291.0067629659069 899.2425483061162,288.34146939812115 903.6533013653501,288.25158504640825" fill="#CE93D8" opacity="0.050080903167836366"/><polygon points="582.6787592899054,120.87476627957076 585.0350333109802,127.65346532091827 592.2100879221737,127.79968187930884 586.4912907428128,132.1353648447585 588.5694443425923,139.00443068890942 582.6787592899054,134.90533108465374 576.7880742372186,139.00443068890942 578.8662278369981,132.1353648447585 573.1474306576372,127.79968187930884 580.3224852688306,127.65346532091827" fill="#CE93D8" opacity="0.07928205877542496"/><polygon points="1070.187223852612,506.7085804264992 1072.042711152566,512.0465801111422 1077.6928276451597,512.1617207801434 1073.189465369631,515.5759266861901 1074.8259421024966,520.9850872177632 1070.187223852612,517.7571828276477 1065.5485056027276,520.9850872177632 1067.184982335593,515.5759266861901 1062.6816200600645,512.1617207801434 1068.3317365526582,512.0465801111422" fill="#CE93D8" opacity="0.0813606869848445"/><polygon points="858.9805881315842,545.6199496035464 861.8017367277693,553.7360333499247 870.3923739214376,553.9110973003621 863.5453024475256,559.102176861602 866.0334596220466,567.3264560795553 858.9805881315842,562.4186359403283 851.9277166411218,567.3264560795553 854.4158738156428,559.102176861602 847.5688023417308,553.9110973003621 856.1594395353992,553.7360333499247" fill="#CE93D8" opacity="0.049370679589919746"/><polygon points="352.9923044270836,571.0218673025723 355.4245008710908,578.0189854458349 362.8307457113843,578.1699133049004 356.92768094080384,582.6452979998008 359.07279553710157,589.7356946898152 352.9923044270836,585.5045164007321 346.9118133170656,589.7356946898152 349.0569279133633,582.6452979998008 343.1538631427829,578.1699133049004 350.56010798307636,578.0189854458349" fill="#CE93D8" opacity="0.07694735850673169"/><polygon points="149.3899152064696,371.10042673218993 151.63924208489053,377.57145252038515 158.48863355920398,377.71103256579437 153.02940254756336,381.8499264903853 155.0132324025219,388.40721749079466 149.3899152064696,384.49416882382707 143.76659801041728,388.40721749079466 145.75042786537583,381.8499264903853 140.29119685373522,377.71103256579437 147.14058832804866,377.57145252038515" fill="#CE93D8" opacity="0.05086398952640593"/><polygon points="814.1771893189289,541.113455041172 816.3265227302375,547.2968124115207 822.8714256005616,547.4301874483053 817.654883831582,551.3850875045525 819.5505228472003,557.650875180885 814.1771893189289,553.911780467406 808.8038557906574,557.650875180885 810.6994948062758,551.3850875045525 805.4829530372962,547.4301874483053 812.0278559076203,547.2968124115207" fill="#CE93D8" opacity="0.05429335814900696"/><polygon points="803.8267928813584,112.86854133415036 805.7544469752194,118.41415565626768 811.6243174874083,118.53377457361384 806.9458027237783,122.08077163052673 808.6459281160109,127.70031450926145 803.8267928813584,124.34686492631212 799.007657646706,127.70031450926145 800.7077830389385,122.08077163052673 796.0292682753085,118.53377457361384 801.8991387874975,118.41415565626768" fill="#CE93D8" opacity="0.09202530164271594"/><polygon points="509.46557707944885,111.57835317295977 512.334741675912,119.83257281191426 521.0715916704372,120.01061635396357 514.1079829158442,125.29004818349365 516.6384885706069,133.65430478291205 509.46557707944885,128.66295345589518 502.2926655882908,133.65430478291205 504.8231712430535,125.29004818349365 497.8595624884604,120.01061635396357 506.5964124829856,119.83257281191426" fill="#CE93D8" opacity="0.0871412759507075"/><polygon points="1036.77776211733,175.88925900901668 1038.4459549106284,180.6884363489919 1043.5257437156909,180.79195461842338 1039.4769547566743,183.86152760199786 1040.9482441005757,188.7246827509383 1036.77776211733,185.82260584576056 1032.6072801340842,188.7246827509383 1034.0785694779856,183.86152760199786 1030.0297805189691,180.79195461842338 1035.1095693240316,180.6884363489919" fill="#CE93D8" opacity="0.0929922484839335"/><polygon points="1081.570143060293,159.74141851007008 1082.561277429915,162.59278534648652 1085.5793658039588,162.65428933758963 1083.1738321577593,164.4780349479924 1084.0479789843475,167.36741334135434 1081.570143060293,165.64318327900023 1079.0923071362386,167.36741334135434 1079.9664539628268,164.4780349479924 1077.5609203166273,162.65428933758963 1080.5790086906711,162.59278534648652" fill="#CE93D8" opacity="0.09992659556679429"/><polygon points="966.4563593091443,389.4376155115664 967.9203724819615,393.649394193644 972.3784169931338,393.7402422722856 968.8251823827401,396.4341127295435 970.1163922411872,400.70203861203424 966.4563593091443,398.1551634338312 962.7963263771014,400.70203861203424 964.0875362355486,396.4341127295435 960.5343016251549,393.7402422722856 964.9923461363271,393.649394193644" fill="#CE93D8" opacity="0.0916990298172459"/><rect x="530.07473051548" y="480.21406889893115" width="109.04911326244473" height="85.0978256482631" rx="8" fill="none" stroke="#CE93D8" stroke-width="1.5" opacity="0.06"/><rect x="334.6375091932714" y="372.5997725268826" width="133.5741872433573" height="81.74322637729347" rx="8" fill="none" stroke="#CE93D8" stroke-width="1.5" opacity="0.06"/><rect x="168.09419123455882" y="45.92398484237492" width="128.44694586470723" height="50.601932015269995" rx="8" fill="none" stroke="#CE93D8" stroke-width="1.5" opacity="0.06"/>

  <!-- Large icon watermark -->
  <polygon points="1043.8987991865724,107.12499001156539 1067.3644863919646,174.6327713396467 1138.8194978558176,176.08891438275387 1081.8670786542705,219.26716079171078 1102.5630172000529,287.67488801291404 1043.8987991865724,246.85273054018617 985.234581173092,287.67488801291404 1005.9305197188744,219.26716079171078 948.9781005173272,176.08891438275384 1020.4331119811802,174.6327713396467" fill="#CE93D8" opacity="0.1"/>

  <!-- Subtle grid overlay -->
  <rect width="1200" height="630" fill="url(#bg-998163007)" opacity="0"/>

  <!-- Bottom gradient overlay for text readability -->
  <rect x="0" y="300" width="1200" height="330" fill="url(#bg-998163007)" opacity="0.3"/>

  <!-- Accent line -->
  <rect x="80" y="220" width="60" height="4" rx="2" fill="url(#accent-line-998163007)"/>

  <!-- Category badge -->
  <rect x="80" y="180" width="109" height="30" rx="15" fill="#CE93D8" opacity="0.2"/>
  <text x="96" y="200" font-family="'Fira Sans', 'Segoe UI', Arial, sans-serif" font-size="12" font-weight="700" fill="#CE93D8" letter-spacing="2" text-anchor="start">REVIEWS</text>

  <!-- Title -->
  <text x="80" y="280" font-family="'Fira Sans', 'Segoe UI', Arial, sans-serif" font-size="38" font-weight="800" fill="white" letter-spacing="-0.5">Best Crypto Tax Software 2025:</text>
  <text x="80" y="327.5" font-family="'Fira Sans', 'Segoe UI', Arial, sans-serif" font-size="38" font-weight="800" fill="white" letter-spacing="-0.5">CoinTracker, Koinly, and TaxBit</text>
  <text x="80" y="375" font-family="'Fira Sans', 'Segoe UI', Arial, sans-serif" font-size="38" font-weight="800" fill="white" letter-spacing="-0.5">Compared</text>

  <!-- Author bar -->
  <g transform="translate(80, 452.5)">
    <!-- Author avatar circle -->
    <circle cx="16" cy="12" r="16" fill="#CE93D8" opacity="0.2"/>
    <text x="16" y="17" font-family="'Fira Sans', Arial, sans-serif" font-size="13" font-weight="700" fill="#CE93D8" text-anchor="middle">YK</text>

    <text x="44" y="10" font-family="'Fira Sans', Arial, sans-serif" font-size="14" font-weight="600" fill="#CE93D8">Yosef Kamel</text>
    <text x="44" y="28" font-family="'Fira Sans', Arial, sans-serif" font-size="12" font-weight="400" fill="white" opacity="0.5">Crypto Pointers</text>
  </g>

  <!-- Branding: bottom bar -->
  <rect x="0" y="610" width="1200" height="20" fill="#CE93D8" opacity="0.08"/>
  <text x="1120" y="600" font-family="'Fira Sans', Arial, sans-serif" font-size="11" font-weight="600" fill="white" opacity="0.25" text-anchor="end">cryptopointers.com</text>

  <!-- Corner accent -->
  <rect x="0" y="0" width="4" height="630" fill="#CE93D8" opacity="0.3"/>
</svg>