<svg xmlns="http://www.w3.org/2000/svg" width="1200" height="630" viewBox="0 0 1200 630">
  <defs>
    <linearGradient id="bg-1259608045" x1="0" y1="0" x2="1" y2="1">
      <stop offset="0%" stop-color="#1a2e1a"/>
      <stop offset="100%" stop-color="#0d1a0d"/>
    </linearGradient>
    <radialGradient id="orb1-1259608045" cx="50%" cy="50%" r="50%">
      <stop offset="0%" stop-color="#66BB6A" stop-opacity="0.25"/>
      <stop offset="100%" stop-color="#66BB6A" stop-opacity="0"/>
    </radialGradient>
    <radialGradient id="orb2-1259608045" cx="50%" cy="50%" r="50%">
      <stop offset="0%" stop-color="#D97706" stop-opacity="0.15"/>
      <stop offset="100%" stop-color="#D97706" stop-opacity="0"/>
    </radialGradient>
    <linearGradient id="accent-line-1259608045" x1="0" y1="0" x2="1" y2="0">
      <stop offset="0%" stop-color="#66BB6A"/>
      <stop offset="100%" stop-color="#D97706"/>
    </linearGradient>
  </defs>

  <!-- Background -->
  <rect width="1200" height="630" fill="url(#bg-1259608045)"/>

  <!-- Glow orbs -->
  <ellipse cx="942.6855722907931" cy="10.77865012921393" rx="350" ry="300" fill="url(#orb1-1259608045)"/>
  <ellipse cx="192.4853384727612" cy="434.3596405349672" rx="300" ry="280" fill="url(#orb2-1259608045)"/>

  <!-- Category decorations -->
  <path d="M0,481.3248322578147 Q50,449.2352096363902 100,429.76608362514526 Q150,428.61985322088003 200,490.8979091094807 Q250,483.0109321977943 300,424.237573845312 Q350,467.76574798859656 400,393.89743531355634 Q450,324.97118413448334 500,368.7457848107442 Q550,373.35229865275323 600,353.79242945928127 Q650,319.0403403248638 700,459.5448602223769 Q750,359.8175982479006 800,471.3459903607145 Q850,419.8169589508325 900,397.5235480815172 Q950,356.7987943533808 1000,450.13111693551764 Q1050,341.0315983463079 1100,387.8736019250937 Q1150,415.95335779711604 1200,453.32212577341124 Q1250,470.5579539760947 1300,440.79456800827757" fill="none" stroke="#66BB6A" stroke-width="2" opacity="0.08"/><rect x="156.36448565870523" y="325.9052881039679" width="8" height="65.89502714574337" rx="2" fill="#66BB6A" opacity="0.06"/><line x1="160.36448565870523" y1="305.9052881039679" x2="160.36448565870523" y2="411.8003152497113" stroke="#66BB6A" stroke-width="1" opacity="0.05"/><rect x="366.0522313043475" y="208.91490392386913" width="8" height="144.38218904659152" rx="2" fill="#66BB6A" opacity="0.06"/><line x1="370.0522313043475" y1="188.91490392386913" x2="370.0522313043475" y2="373.29709297046065" stroke="#66BB6A" stroke-width="1" opacity="0.05"/><rect x="523.3066422864795" y="284.02517517097294" width="8" height="148.60382211394608" rx="2" fill="#66BB6A" opacity="0.06"/><line x1="527.3066422864795" y1="264.02517517097294" x2="527.3066422864795" y2="452.628997284919" stroke="#66BB6A" stroke-width="1" opacity="0.05"/><rect x="697.483396762982" y="238.19048679433763" width="8" height="115.51004980690777" rx="2" fill="#66BB6A" opacity="0.06"/><line x1="701.483396762982" y1="218.19048679433763" x2="701.483396762982" y2="373.7005366012454" stroke="#66BB6A" stroke-width="1" opacity="0.05"/><rect x="901.0398468840867" y="266.2092507816851" width="8" height="154.32050233706832" rx="2" fill="#66BB6A" opacity="0.06"/><line x1="905.0398468840867" y1="246.2092507816851" x2="905.0398468840867" y2="440.52975311875343" stroke="#66BB6A" stroke-width="1" opacity="0.05"/><rect x="1055.5539984162897" y="387.63217623345554" width="8" height="113.14157945103943" rx="2" fill="#66BB6A" opacity="0.06"/><line x1="1059.5539984162897" y1="367.63217623345554" x2="1059.5539984162897" y2="520.773755684495" stroke="#66BB6A" stroke-width="1" opacity="0.05"/>

  <!-- Large icon watermark -->
  <polyline points="877.5087319780141,347.6148593099788 930.9531210642308,262.1038367720321 984.3975101504475,294.1704702237621 1037.8418992366642,197.97056986857206 1091.2862883228809,155.2150585995987" fill="none" stroke="#66BB6A" stroke-width="3" opacity="0.12" stroke-linecap="round" stroke-linejoin="round"/>

  <!-- Subtle grid overlay -->
  <rect width="1200" height="630" fill="url(#bg-1259608045)" opacity="0"/>

  <!-- Bottom gradient overlay for text readability -->
  <rect x="0" y="300" width="1200" height="330" fill="url(#bg-1259608045)" opacity="0.3"/>

  <!-- Accent line -->
  <rect x="80" y="240" width="60" height="4" rx="2" fill="url(#accent-line-1259608045)"/>

  <!-- Category badge -->
  <rect x="80" y="200" width="131" height="30" rx="15" fill="#66BB6A" opacity="0.2"/>
  <text x="96" y="220" font-family="'Fira Sans', 'Segoe UI', Arial, sans-serif" font-size="12" font-weight="700" fill="#66BB6A" letter-spacing="2" text-anchor="start">INVESTING</text>

  <!-- Title -->
  <text x="80" y="300" font-family="'Fira Sans', 'Segoe UI', Arial, sans-serif" font-size="42" font-weight="800" fill="white" letter-spacing="-0.5">The 10 Most Expensive Crypto Investing</text>
  <text x="80" y="352.5" font-family="'Fira Sans', 'Segoe UI', Arial, sans-serif" font-size="42" font-weight="800" fill="white" letter-spacing="-0.5">Mistakes in 2025</text>

  <!-- Author bar -->
  <g transform="translate(80, 435)">
    <!-- Author avatar circle -->
    <circle cx="16" cy="12" r="16" fill="#66BB6A" opacity="0.2"/>
    <text x="16" y="17" font-family="'Fira Sans', Arial, sans-serif" font-size="13" font-weight="700" fill="#66BB6A" text-anchor="middle">YK</text>

    <text x="44" y="10" font-family="'Fira Sans', Arial, sans-serif" font-size="14" font-weight="600" fill="#66BB6A">Yosef Kamel</text>
    <text x="44" y="28" font-family="'Fira Sans', Arial, sans-serif" font-size="12" font-weight="400" fill="white" opacity="0.5">Crypto Pointers</text>
  </g>

  <!-- Branding: bottom bar -->
  <rect x="0" y="610" width="1200" height="20" fill="#66BB6A" opacity="0.08"/>
  <text x="1120" y="600" font-family="'Fira Sans', Arial, sans-serif" font-size="11" font-weight="600" fill="white" opacity="0.25" text-anchor="end">cryptopointers.com</text>

  <!-- Corner accent -->
  <rect x="0" y="0" width="4" height="630" fill="#66BB6A" opacity="0.3"/>
</svg>