<svg xmlns="http://www.w3.org/2000/svg" width="1200" height="630" viewBox="0 0 1200 630">
  <defs>
    <linearGradient id="bg-16144709" x1="0" y1="0" x2="1" y2="1">
      <stop offset="0%" stop-color="#1a2e1a"/>
      <stop offset="100%" stop-color="#0d1a0d"/>
    </linearGradient>
    <radialGradient id="orb1-16144709" cx="50%" cy="50%" r="50%">
      <stop offset="0%" stop-color="#66BB6A" stop-opacity="0.25"/>
      <stop offset="100%" stop-color="#66BB6A" stop-opacity="0"/>
    </radialGradient>
    <radialGradient id="orb2-16144709" cx="50%" cy="50%" r="50%">
      <stop offset="0%" stop-color="#D97706" stop-opacity="0.15"/>
      <stop offset="100%" stop-color="#D97706" stop-opacity="0"/>
    </radialGradient>
    <linearGradient id="accent-line-16144709" x1="0" y1="0" x2="1" y2="0">
      <stop offset="0%" stop-color="#66BB6A"/>
      <stop offset="100%" stop-color="#D97706"/>
    </linearGradient>
  </defs>

  <!-- Background -->
  <rect width="1200" height="630" fill="url(#bg-16144709)"/>

  <!-- Glow orbs -->
  <ellipse cx="880.5771440966055" cy="47.52260921522975" rx="350" ry="300" fill="url(#orb1-16144709)"/>
  <ellipse cx="27.218407043255866" cy="595.7509829197079" rx="300" ry="280" fill="url(#orb2-16144709)"/>

  <!-- Category decorations -->
  <path d="M0,445.6081622513011 Q50,375.7630123756826 100,498.5215859138407 Q150,319.189091026783 200,451.3839119113982 Q250,360.566846979782 300,407.12660416029394 Q350,303.91406365670264 400,397.46101807104424 Q450,499.05887078493834 500,472.24615894956514 Q550,325.0551398843527 600,418.50751233287156 Q650,388.48842228762805 700,374.73902439232916 Q750,337.20041918568313 800,459.8265166860074 Q850,460.5854955036193 900,357.4925174820237 Q950,412.0037665590644 1000,486.12377585377544 Q1050,482.4626876972616 1100,462.5917995464988 Q1150,378.07405116036534 1200,396.95399021729827 Q1250,328.15584507770836 1300,366.6197566315532" fill="none" stroke="#66BB6A" stroke-width="2" opacity="0.08"/><rect x="177.18191814608872" y="243.32600110210478" width="8" height="102.76535854674876" rx="2" fill="#66BB6A" opacity="0.06"/><line x1="181.18191814608872" y1="223.32600110210478" x2="181.18191814608872" y2="366.09135964885354" stroke="#66BB6A" stroke-width="1" opacity="0.05"/><rect x="351.39080305583775" y="331.8506048526615" width="8" height="92.50449154525995" rx="2" fill="#66BB6A" opacity="0.06"/><line x1="355.39080305583775" y1="311.8506048526615" x2="355.39080305583775" y2="444.35509639792144" stroke="#66BB6A" stroke-width="1" opacity="0.05"/><rect x="548.2742646709085" y="376.35019291192293" width="8" height="132.72409544326365" rx="2" fill="#66BB6A" opacity="0.06"/><line x1="552.2742646709085" y1="356.35019291192293" x2="552.2742646709085" y2="529.0742883551866" stroke="#66BB6A" stroke-width="1" opacity="0.05"/><rect x="714.1719327308238" y="310.3049509692937" width="8" height="149.2950490862131" rx="2" fill="#66BB6A" opacity="0.06"/><line x1="718.1719327308238" y1="290.3049509692937" x2="718.1719327308238" y2="479.6000000555068" stroke="#66BB6A" stroke-width="1" opacity="0.05"/><rect x="891.8376430962235" y="322.9038600809872" width="8" height="102.60662217624485" rx="2" fill="#66BB6A" opacity="0.06"/><line x1="895.8376430962235" y1="302.9038600809872" x2="895.8376430962235" y2="445.51048225723207" stroke="#66BB6A" stroke-width="1" opacity="0.05"/><rect x="1083.9503130502999" y="312.34270343557" width="8" height="93.34490485489368" rx="2" fill="#66BB6A" opacity="0.06"/><line x1="1087.9503130502999" y1="292.34270343557" x2="1087.9503130502999" y2="425.6876082904637" stroke="#66BB6A" stroke-width="1" opacity="0.05"/>

  <!-- Large icon watermark -->
  <polyline points="928.4448511665687,367.0683097280562 992.5834783911705,264.4465061686933 1056.7221056157723,302.9296825034544 1120.860732840374,187.48015349917114 1184.999360064976,136.1692517194897" fill="none" stroke="#66BB6A" stroke-width="3" opacity="0.12" stroke-linecap="round" stroke-linejoin="round"/>

  <!-- Subtle grid overlay -->
  <rect width="1200" height="630" fill="url(#bg-16144709)" opacity="0"/>

  <!-- Bottom gradient overlay for text readability -->
  <rect x="0" y="300" width="1200" height="330" fill="url(#bg-16144709)" opacity="0.3"/>

  <!-- Accent line -->
  <rect x="80" y="240" width="60" height="4" rx="2" fill="url(#accent-line-16144709)"/>

  <!-- Category badge -->
  <rect x="80" y="200" width="131" height="30" rx="15" fill="#66BB6A" opacity="0.2"/>
  <text x="96" y="220" font-family="'Fira Sans', 'Segoe UI', Arial, sans-serif" font-size="12" font-weight="700" fill="#66BB6A" letter-spacing="2" text-anchor="start">INVESTING</text>

  <!-- Title -->
  <text x="80" y="300" font-family="'Fira Sans', 'Segoe UI', Arial, sans-serif" font-size="42" font-weight="800" fill="white" letter-spacing="-0.5">Understanding Crypto Market Cycles:</text>
  <text x="80" y="352.5" font-family="'Fira Sans', 'Segoe UI', Arial, sans-serif" font-size="42" font-weight="800" fill="white" letter-spacing="-0.5">When to Buy and When to Sell</text>

  <!-- Author bar -->
  <g transform="translate(80, 435)">
    <!-- Author avatar circle -->
    <circle cx="16" cy="12" r="16" fill="#66BB6A" opacity="0.2"/>
    <text x="16" y="17" font-family="'Fira Sans', Arial, sans-serif" font-size="13" font-weight="700" fill="#66BB6A" text-anchor="middle">YK</text>

    <text x="44" y="10" font-family="'Fira Sans', Arial, sans-serif" font-size="14" font-weight="600" fill="#66BB6A">Yosef Kamel</text>
    <text x="44" y="28" font-family="'Fira Sans', Arial, sans-serif" font-size="12" font-weight="400" fill="white" opacity="0.5">Crypto Pointers</text>
  </g>

  <!-- Branding: bottom bar -->
  <rect x="0" y="610" width="1200" height="20" fill="#66BB6A" opacity="0.08"/>
  <text x="1120" y="600" font-family="'Fira Sans', Arial, sans-serif" font-size="11" font-weight="600" fill="white" opacity="0.25" text-anchor="end">cryptopointers.com</text>

  <!-- Corner accent -->
  <rect x="0" y="0" width="4" height="630" fill="#66BB6A" opacity="0.3"/>
</svg>