<svg xmlns="http://www.w3.org/2000/svg" width="1200" height="630" viewBox="0 0 1200 630">
  <defs>
    <linearGradient id="bg-351128703" x1="0" y1="0" x2="1" y2="1">
      <stop offset="0%" stop-color="#1a2e1a"/>
      <stop offset="100%" stop-color="#0d1a0d"/>
    </linearGradient>
    <radialGradient id="orb1-351128703" cx="50%" cy="50%" r="50%">
      <stop offset="0%" stop-color="#66BB6A" stop-opacity="0.25"/>
      <stop offset="100%" stop-color="#66BB6A" stop-opacity="0"/>
    </radialGradient>
    <radialGradient id="orb2-351128703" cx="50%" cy="50%" r="50%">
      <stop offset="0%" stop-color="#D97706" stop-opacity="0.15"/>
      <stop offset="100%" stop-color="#D97706" stop-opacity="0"/>
    </radialGradient>
    <linearGradient id="accent-line-351128703" x1="0" y1="0" x2="1" y2="0">
      <stop offset="0%" stop-color="#66BB6A"/>
      <stop offset="100%" stop-color="#D97706"/>
    </linearGradient>
  </defs>

  <!-- Background -->
  <rect width="1200" height="630" fill="url(#bg-351128703)"/>

  <!-- Glow orbs -->
  <ellipse cx="923.4225346473977" cy="-96.70640253461897" rx="350" ry="300" fill="url(#orb1-351128703)"/>
  <ellipse cx="10.991118918173015" cy="491.27052719704807" rx="300" ry="280" fill="url(#orb2-351128703)"/>

  <!-- Category decorations -->
  <path d="M0,489.00286285206676 Q50,307.53190596587956 100,396.776808204595 Q150,411.106909904629 200,489.7608249098994 Q250,444.8706121649593 300,480.1800326677039 Q350,466.0917471162975 400,466.994528088253 Q450,367.51839835196733 500,371.1905456497334 Q550,374.87520459108055 600,354.89756278693676 Q650,332.40804891102016 700,465.8808041131124 Q750,499.8217372223735 800,369.6098316926509 Q850,412.10987232625484 900,464.12664528470486 Q950,387.09134655073285 1000,443.6367412446998 Q1050,429.18898412026465 1100,409.7178158117458 Q1150,333.56652837246656 1200,446.21758916182443 Q1250,462.8595581743866 1300,369.3458103341982" fill="none" stroke="#66BB6A" stroke-width="2" opacity="0.08"/><rect x="153.22898929938674" y="329.7041615471244" width="8" height="157.9024806059897" rx="2" fill="#66BB6A" opacity="0.06"/><line x1="157.22898929938674" y1="309.7041615471244" x2="157.22898929938674" y2="507.6066421531141" stroke="#66BB6A" stroke-width="1" opacity="0.05"/><rect x="342.0101104862988" y="270.4020381439477" width="8" height="106.76221598871052" rx="2" fill="#66BB6A" opacity="0.06"/><line x1="346.0101104862988" y1="250.40203814394772" x2="346.0101104862988" y2="397.16425413265824" stroke="#66BB6A" stroke-width="1" opacity="0.05"/><rect x="541.6644557286054" y="305.0206636078656" width="8" height="149.25750771537423" rx="2" fill="#66BB6A" opacity="0.06"/><line x1="545.6644557286054" y1="285.0206636078656" x2="545.6644557286054" y2="474.2781713232398" stroke="#66BB6A" stroke-width="1" opacity="0.05"/><rect x="703.5884886048734" y="230.0369331613183" width="8" height="86.2986069638282" rx="2" fill="#66BB6A" opacity="0.06"/><line x1="707.5884886048734" y1="210.0369331613183" x2="707.5884886048734" y2="336.3355401251465" stroke="#66BB6A" stroke-width="1" opacity="0.05"/><rect x="906.0059161577374" y="360.600177757442" width="8" height="114.72848363220692" rx="2" fill="#66BB6A" opacity="0.06"/><line x1="910.0059161577374" y1="340.600177757442" x2="910.0059161577374" y2="495.3286613896489" stroke="#66BB6A" stroke-width="1" opacity="0.05"/><rect x="1089.1509045939893" y="364.10557688213885" width="8" height="153.69870792143047" rx="2" fill="#66BB6A" opacity="0.06"/><line x1="1093.1509045939893" y1="344.10557688213885" x2="1093.1509045939893" y2="537.8042848035693" stroke="#66BB6A" stroke-width="1" opacity="0.05"/>

  <!-- Large icon watermark -->
  <polyline points="939.9694952880964,340.16436990350485 999.2778573138639,245.27099066227674 1058.5862193396315,280.8560078777373 1117.894581365399,174.10095623135567 1177.2029433911666,126.65426661074162" fill="none" stroke="#66BB6A" stroke-width="3" opacity="0.12" stroke-linecap="round" stroke-linejoin="round"/>

  <!-- Subtle grid overlay -->
  <rect width="1200" height="630" fill="url(#bg-351128703)" opacity="0"/>

  <!-- Bottom gradient overlay for text readability -->
  <rect x="0" y="300" width="1200" height="330" fill="url(#bg-351128703)" opacity="0.3"/>

  <!-- Accent line -->
  <rect x="80" y="240" width="60" height="4" rx="2" fill="url(#accent-line-351128703)"/>

  <!-- Category badge -->
  <rect x="80" y="200" width="131" height="30" rx="15" fill="#66BB6A" opacity="0.2"/>
  <text x="96" y="220" font-family="'Fira Sans', 'Segoe UI', Arial, sans-serif" font-size="12" font-weight="700" fill="#66BB6A" letter-spacing="2" text-anchor="start">INVESTING</text>

  <!-- Title -->
  <text x="80" y="300" font-family="'Fira Sans', 'Segoe UI', Arial, sans-serif" font-size="42" font-weight="800" fill="white" letter-spacing="-0.5">Crypto Correlation Analysis: Building</text>
  <text x="80" y="352.5" font-family="'Fira Sans', 'Segoe UI', Arial, sans-serif" font-size="42" font-weight="800" fill="white" letter-spacing="-0.5">a Truly Diversified Portfolio</text>

  <!-- Author bar -->
  <g transform="translate(80, 435)">
    <!-- Author avatar circle -->
    <circle cx="16" cy="12" r="16" fill="#66BB6A" opacity="0.2"/>
    <text x="16" y="17" font-family="'Fira Sans', Arial, sans-serif" font-size="13" font-weight="700" fill="#66BB6A" text-anchor="middle">YK</text>

    <text x="44" y="10" font-family="'Fira Sans', Arial, sans-serif" font-size="14" font-weight="600" fill="#66BB6A">Yosef Kamel</text>
    <text x="44" y="28" font-family="'Fira Sans', Arial, sans-serif" font-size="12" font-weight="400" fill="white" opacity="0.5">Crypto Pointers</text>
  </g>

  <!-- Branding: bottom bar -->
  <rect x="0" y="610" width="1200" height="20" fill="#66BB6A" opacity="0.08"/>
  <text x="1120" y="600" font-family="'Fira Sans', Arial, sans-serif" font-size="11" font-weight="600" fill="white" opacity="0.25" text-anchor="end">cryptopointers.com</text>

  <!-- Corner accent -->
  <rect x="0" y="0" width="4" height="630" fill="#66BB6A" opacity="0.3"/>
</svg>