<svg xmlns="http://www.w3.org/2000/svg" width="1200" height="630" viewBox="0 0 1200 630">
  <defs>
    <linearGradient id="bg-111179262" x1="0" y1="0" x2="1" y2="1">
      <stop offset="0%" stop-color="#1a2e1a"/>
      <stop offset="100%" stop-color="#0d1a0d"/>
    </linearGradient>
    <radialGradient id="orb1-111179262" cx="50%" cy="50%" r="50%">
      <stop offset="0%" stop-color="#66BB6A" stop-opacity="0.25"/>
      <stop offset="100%" stop-color="#66BB6A" stop-opacity="0"/>
    </radialGradient>
    <radialGradient id="orb2-111179262" cx="50%" cy="50%" r="50%">
      <stop offset="0%" stop-color="#D97706" stop-opacity="0.15"/>
      <stop offset="100%" stop-color="#D97706" stop-opacity="0"/>
    </radialGradient>
    <linearGradient id="accent-line-111179262" x1="0" y1="0" x2="1" y2="0">
      <stop offset="0%" stop-color="#66BB6A"/>
      <stop offset="100%" stop-color="#D97706"/>
    </linearGradient>
  </defs>

  <!-- Background -->
  <rect width="1200" height="630" fill="url(#bg-111179262)"/>

  <!-- Glow orbs -->
  <ellipse cx="805.3194254403934" cy="-63.73406518250704" rx="350" ry="300" fill="url(#orb1-111179262)"/>
  <ellipse cx="-23.021433874964714" cy="573.5092296730727" rx="300" ry="280" fill="url(#orb2-111179262)"/>

  <!-- Category decorations -->
  <path d="M0,477.63615536969155 Q50,401.2639961671084 100,416.8262014281936 Q150,356.15275404416025 200,400.01472217263654 Q250,388.3911628741771 300,455.4503615712747 Q350,468.76979009248316 400,353.79939541453496 Q450,369.65570617467165 500,353.03127606166527 Q550,488.86739863082767 600,482.1759229642339 Q650,412.9429634194821 700,402.39881126908585 Q750,457.9913549590856 800,372.236274019815 Q850,363.58253289945424 900,360.11086816433817 Q950,480.8500884100795 1000,427.7506928308867 Q1050,473.91809560358524 1100,445.09621935430914 Q1150,475.00838986597955 1200,387.2763862949796 Q1250,452.6576370932162 1300,398.5677338670939" fill="none" stroke="#66BB6A" stroke-width="2" opacity="0.08"/><rect x="153.53253678418696" y="337.30099191889167" width="8" height="91.27301420085132" rx="2" fill="#66BB6A" opacity="0.06"/><line x1="157.53253678418696" y1="317.30099191889167" x2="157.53253678418696" y2="448.574006119743" stroke="#66BB6A" stroke-width="1" opacity="0.05"/><rect x="332.6756193302572" y="282.73116485215724" width="8" height="77.32128482311964" rx="2" fill="#66BB6A" opacity="0.06"/><line x1="336.6756193302572" y1="262.73116485215724" x2="336.6756193302572" y2="380.0524496752769" stroke="#66BB6A" stroke-width="1" opacity="0.05"/><rect x="519.9431591108441" y="393.210263364017" width="8" height="73.34435798227787" rx="2" fill="#66BB6A" opacity="0.06"/><line x1="523.9431591108441" y1="373.210263364017" x2="523.9431591108441" y2="486.5546213462949" stroke="#66BB6A" stroke-width="1" opacity="0.05"/><rect x="725.677129784599" y="312.435369938612" width="8" height="155.59304790571332" rx="2" fill="#66BB6A" opacity="0.06"/><line x1="729.677129784599" y1="292.435369938612" x2="729.677129784599" y2="488.0284178443253" stroke="#66BB6A" stroke-width="1" opacity="0.05"/><rect x="908.3465193584561" y="316.81454218924046" width="8" height="62.0088351611048" rx="2" fill="#66BB6A" opacity="0.06"/><line x1="912.3465193584561" y1="296.81454218924046" x2="912.3465193584561" y2="398.82337735034525" stroke="#66BB6A" stroke-width="1" opacity="0.05"/><rect x="1056.1241544038057" y="204.4259604997933" width="8" height="148.55025342665613" rx="2" fill="#66BB6A" opacity="0.06"/><line x1="1060.1241544038057" y1="184.4259604997933" x2="1060.1241544038057" y2="372.9762139264494" stroke="#66BB6A" stroke-width="1" opacity="0.05"/>

  <!-- Large icon watermark -->
  <polyline points="873.2887069694698,343.47681793384254 933.3660822920501,247.353017417714 993.4434576146305,283.3994426112622 1053.5208329372108,175.2601670306176 1113.5982082597911,127.19826677255332" fill="none" stroke="#66BB6A" stroke-width="3" opacity="0.12" stroke-linecap="round" stroke-linejoin="round"/>

  <!-- Subtle grid overlay -->
  <rect width="1200" height="630" fill="url(#bg-111179262)" opacity="0"/>

  <!-- Bottom gradient overlay for text readability -->
  <rect x="0" y="300" width="1200" height="330" fill="url(#bg-111179262)" opacity="0.3"/>

  <!-- Accent line -->
  <rect x="80" y="240" width="60" height="4" rx="2" fill="url(#accent-line-111179262)"/>

  <!-- Category badge -->
  <rect x="80" y="200" width="131" height="30" rx="15" fill="#66BB6A" opacity="0.2"/>
  <text x="96" y="220" font-family="'Fira Sans', 'Segoe UI', Arial, sans-serif" font-size="12" font-weight="700" fill="#66BB6A" letter-spacing="2" text-anchor="start">INVESTING</text>

  <!-- Title -->
  <text x="80" y="300" font-family="'Fira Sans', 'Segoe UI', Arial, sans-serif" font-size="42" font-weight="800" fill="white" letter-spacing="-0.5">The Ethereum Investment Thesis: Why</text>
  <text x="80" y="352.5" font-family="'Fira Sans', 'Segoe UI', Arial, sans-serif" font-size="42" font-weight="800" fill="white" letter-spacing="-0.5">ETH Could Outperform in 2025</text>

  <!-- Author bar -->
  <g transform="translate(80, 435)">
    <!-- Author avatar circle -->
    <circle cx="16" cy="12" r="16" fill="#66BB6A" opacity="0.2"/>
    <text x="16" y="17" font-family="'Fira Sans', Arial, sans-serif" font-size="13" font-weight="700" fill="#66BB6A" text-anchor="middle">YK</text>

    <text x="44" y="10" font-family="'Fira Sans', Arial, sans-serif" font-size="14" font-weight="600" fill="#66BB6A">Yosef Kamel</text>
    <text x="44" y="28" font-family="'Fira Sans', Arial, sans-serif" font-size="12" font-weight="400" fill="white" opacity="0.5">Crypto Pointers</text>
  </g>

  <!-- Branding: bottom bar -->
  <rect x="0" y="610" width="1200" height="20" fill="#66BB6A" opacity="0.08"/>
  <text x="1120" y="600" font-family="'Fira Sans', Arial, sans-serif" font-size="11" font-weight="600" fill="white" opacity="0.25" text-anchor="end">cryptopointers.com</text>

  <!-- Corner accent -->
  <rect x="0" y="0" width="4" height="630" fill="#66BB6A" opacity="0.3"/>
</svg>