<svg xmlns="http://www.w3.org/2000/svg" width="1200" height="630" viewBox="0 0 1200 630">
  <defs>
    <linearGradient id="bg-1224731760" x1="0" y1="0" x2="1" y2="1">
      <stop offset="0%" stop-color="#2d1a3d"/>
      <stop offset="100%" stop-color="#1a0d28"/>
    </linearGradient>
    <radialGradient id="orb1-1224731760" cx="50%" cy="50%" r="50%">
      <stop offset="0%" stop-color="#CE93D8" stop-opacity="0.25"/>
      <stop offset="100%" stop-color="#CE93D8" stop-opacity="0"/>
    </radialGradient>
    <radialGradient id="orb2-1224731760" cx="50%" cy="50%" r="50%">
      <stop offset="0%" stop-color="#D97706" stop-opacity="0.15"/>
      <stop offset="100%" stop-color="#D97706" stop-opacity="0"/>
    </radialGradient>
    <linearGradient id="accent-line-1224731760" x1="0" y1="0" x2="1" y2="0">
      <stop offset="0%" stop-color="#CE93D8"/>
      <stop offset="100%" stop-color="#D97706"/>
    </linearGradient>
  </defs>

  <!-- Background -->
  <rect width="1200" height="630" fill="url(#bg-1224731760)"/>

  <!-- Glow orbs -->
  <ellipse cx="1022.5342754973099" cy="-27.170595852658153" rx="350" ry="300" fill="url(#orb1-1224731760)"/>
  <ellipse cx="118.02238649688661" cy="590.1710039936006" rx="300" ry="280" fill="url(#orb2-1224731760)"/>

  <!-- Category decorations -->
  <polygon points="559.5877694697119,581.2953035490121 561.416681913517,586.5568507708736 566.9858757110226,586.6703423600262 562.5470119662361,590.0356489657019 564.1600505792246,595.3673378470968 559.5877694697119,592.1856644901075 555.0154883601992,595.3673378470968 556.6285269731877,590.0356489657019 552.1896632284013,586.6703423600262 557.7588570259069,586.5568507708736" fill="#CE93D8" opacity="0.05959608720149845"/><polygon points="792.5654520383105,560.8848365336656 793.6141279618535,563.9017430623736 796.8074352570012,563.9668177451296 794.2622453257868,565.8964432035085 795.187141847168,568.9535680979667 792.5654520383105,567.129235688094 789.9437622294529,568.9535680979667 790.8686587508341,565.8964432035085 788.3234688196197,563.9668177451296 791.5167761147675,563.9017430623736" fill="#CE93D8" opacity="0.08952876754105091"/><polygon points="138.1303101903759,392.34950848980804 140.57835463881995,399.39221931521314 148.0328579992583,399.54413060856746 142.09132931392887,404.0486765649589 144.250421311486,411.1852737329319 138.1303101903759,406.92652541246264 132.01019906926578,411.1852737329319 134.16929106682292,404.0486765649589 128.22776238149348,399.54413060856746 135.68226574193184,399.39221931521314" fill="#CE93D8" opacity="0.04507117773406208"/><polygon points="897.9002351090312,136.00815465124325 899.7753558897389,141.40263734931102 905.4852579995221,141.518996357079 900.9342442652276,144.96932902397612 902.5880370608005,150.43572554374174 897.9002351090312,147.17366570631043 893.2124331572619,150.43572554374174 894.8662259528348,144.96932902397612 890.3152122185403,141.518996357079 896.0251143283234,141.40263734931102" fill="#CE93D8" opacity="0.08915285438299178"/><polygon points="723.058951032348,221.10639592781664 724.0791287939998,224.0413168890717 727.1856567646464,224.10462314289498 724.7096333252674,225.9818103050684 725.6093954364775,228.9558566828867 723.058951032348,227.18110119109974 720.5085066282185,228.9558566828867 721.4082687394285,225.9818103050684 718.9322453000495,224.10462314289498 722.0387732706962,224.0413168890717" fill="#CE93D8" opacity="0.0829981650551781"/><polygon points="646.079769007396,85.27291557271965 647.3956386660544,89.05850430896442 651.4025735885814,89.14015946921265 648.2088908398702,91.56143713588891 649.3694431540422,95.3974915365239 646.079769007396,93.10833469448612 642.7900948607497,95.3974915365239 643.9506471749218,91.56143713588891 640.7569644262105,89.14015946921265 644.7638993487375,89.05850430896442" fill="#CE93D8" opacity="0.06041238187812269"/><polygon points="693.1164281219244,150.6178593473509 694.7881644369238,155.42723094611918 699.8787435666658,155.53096910574303 695.821354299821,158.60706237793408 697.2957689094229,163.48054768528027 693.1164281219244,160.57230628129093 688.9370873344259,163.48054768528027 690.4115019440278,158.60706237793408 686.354112677183,155.53096910574303 691.444691806925,155.42723094611918" fill="#CE93D8" opacity="0.0880395138449967"/><polygon points="197.23042633477598,43.415352161601184 198.95181548249255,48.367568610556454 204.19359170695253,48.47438793402172 200.0156924836466,51.64184534258765 201.5338992040674,56.66007976409972 197.23042633477598,53.665459651555864 192.92695346548456,56.66007976409972 194.44516018590537,51.64184534258765 190.26726096259944,48.47438793402172 195.50903718705942,48.367568610556454" fill="#CE93D8" opacity="0.09590328089892863"/><polygon points="1199.9140774607658,222.11810470102355 1200.928863167411,225.0375134095538 1204.0189718723898,225.10048506403987 1201.5560352254154,226.96775052745008 1202.4510417273789,229.92607785878056 1199.9140774607658,228.1607026726566 1197.3771131941528,229.92607785878056 1198.2721196961163,226.96775052745008 1195.809183049142,225.10048506403987 1198.8992917541207,225.0375134095538" fill="#CE93D8" opacity="0.09932151036337017"/><polygon points="204.1242155302316,325.1040915847756 206.82097105202536,332.8623123633563 215.03282076425972,333.0296572085189 208.48765762384284,337.99184618707005 210.866104334716,345.85349176780335 204.1242155302316,341.16207243656737 197.38232672574722,345.85349176780335 199.76077343662035,337.99184618707005 193.21561029620347,333.0296572085189 201.42746000843783,332.8623123633563" fill="#CE93D8" opacity="0.06532854620367289"/><polygon points="137.54777210624889,328.7397187653463 140.28294821027825,336.60847064584436 148.61179186008897,336.77819964720254 141.97338000778493,341.8110847597482 144.3857123663223,349.78473493196213 137.54777210624889,345.0264771124907 130.70983184617546,349.78473493196213 133.12216420471285,341.8110847597482 126.4837523524088,336.77819964720254 134.81259600221952,336.60847064584436" fill="#CE93D8" opacity="0.045278115845285356"/><polygon points="1005.1185080255382,137.4403602810111 1006.2042083134154,140.5637811712806 1009.5102579439905,140.63115336913077 1006.8752079929191,142.62890583833894 1007.8327587452313,145.79396503677665 1005.1185080255382,143.90522307358682 1002.404257305845,145.79396503677665 1003.3618080581573,142.62890583833894 1000.7267581070859,140.63115336913077 1004.032807737661,140.5637811712806" fill="#CE93D8" opacity="0.0591905923653394"/><rect x="45.07376137189567" y="194.12881880998611" width="139.63777682278305" height="67.07646479830146" rx="8" fill="none" stroke="#CE93D8" stroke-width="1.5" opacity="0.06"/><rect x="899.8420643620193" y="410.61792813707143" width="120.94472746830434" height="86.82140663266182" rx="8" fill="none" stroke="#CE93D8" stroke-width="1.5" opacity="0.06"/><rect x="454.1275955270976" y="286.77598130889237" width="127.72027002181858" height="56.99719155207276" rx="8" fill="none" stroke="#CE93D8" stroke-width="1.5" opacity="0.06"/>

  <!-- Large icon watermark -->
  <polygon points="1039.7999912733212,128.71021909173578 1065.9984569915023,204.07985473691747 1145.7750112361114,205.70557800091993 1082.1899992584372,253.91229781334027 1105.296155568774,330.2866856919769 1039.7999912733212,284.7104413770139 974.3038269778683,330.2866856919769 997.4099832882051,253.91229781334027 933.824971310531,205.7055780009199 1013.60152555514,204.07985473691747" fill="#CE93D8" opacity="0.1"/>

  <!-- Subtle grid overlay -->
  <rect width="1200" height="630" fill="url(#bg-1224731760)" opacity="0"/>

  <!-- Bottom gradient overlay for text readability -->
  <rect x="0" y="300" width="1200" height="330" fill="url(#bg-1224731760)" opacity="0.3"/>

  <!-- Accent line -->
  <rect x="80" y="240" width="60" height="4" rx="2" fill="url(#accent-line-1224731760)"/>

  <!-- Category badge -->
  <rect x="80" y="200" width="109" height="30" rx="15" fill="#CE93D8" opacity="0.2"/>
  <text x="96" y="220" font-family="'Fira Sans', 'Segoe UI', Arial, sans-serif" font-size="12" font-weight="700" fill="#CE93D8" letter-spacing="2" text-anchor="start">REVIEWS</text>

  <!-- Title -->
  <text x="80" y="300" font-family="'Fira Sans', 'Segoe UI', Arial, sans-serif" font-size="42" font-weight="800" fill="white" letter-spacing="-0.5">Ethereum vs Solana: Which Blockchain</text>
  <text x="80" y="352.5" font-family="'Fira Sans', 'Segoe UI', Arial, sans-serif" font-size="42" font-weight="800" fill="white" letter-spacing="-0.5">Deserves Your Investment in 2025?</text>

  <!-- Author bar -->
  <g transform="translate(80, 435)">
    <!-- Author avatar circle -->
    <circle cx="16" cy="12" r="16" fill="#CE93D8" opacity="0.2"/>
    <text x="16" y="17" font-family="'Fira Sans', Arial, sans-serif" font-size="13" font-weight="700" fill="#CE93D8" text-anchor="middle">YK</text>

    <text x="44" y="10" font-family="'Fira Sans', Arial, sans-serif" font-size="14" font-weight="600" fill="#CE93D8">Yosef Kamel</text>
    <text x="44" y="28" font-family="'Fira Sans', Arial, sans-serif" font-size="12" font-weight="400" fill="white" opacity="0.5">Crypto Pointers</text>
  </g>

  <!-- Branding: bottom bar -->
  <rect x="0" y="610" width="1200" height="20" fill="#CE93D8" opacity="0.08"/>
  <text x="1120" y="600" font-family="'Fira Sans', Arial, sans-serif" font-size="11" font-weight="600" fill="white" opacity="0.25" text-anchor="end">cryptopointers.com</text>

  <!-- Corner accent -->
  <rect x="0" y="0" width="4" height="630" fill="#CE93D8" opacity="0.3"/>
</svg>