<svg xmlns="http://www.w3.org/2000/svg" width="1200" height="630" viewBox="0 0 1200 630">
  <defs>
    <linearGradient id="bg-223769203" x1="0" y1="0" x2="1" y2="1">
      <stop offset="0%" stop-color="#2d1a3d"/>
      <stop offset="100%" stop-color="#1a0d28"/>
    </linearGradient>
    <radialGradient id="orb1-223769203" cx="50%" cy="50%" r="50%">
      <stop offset="0%" stop-color="#CE93D8" stop-opacity="0.25"/>
      <stop offset="100%" stop-color="#CE93D8" stop-opacity="0"/>
    </radialGradient>
    <radialGradient id="orb2-223769203" cx="50%" cy="50%" r="50%">
      <stop offset="0%" stop-color="#D97706" stop-opacity="0.15"/>
      <stop offset="100%" stop-color="#D97706" stop-opacity="0"/>
    </radialGradient>
    <linearGradient id="accent-line-223769203" x1="0" y1="0" x2="1" y2="0">
      <stop offset="0%" stop-color="#CE93D8"/>
      <stop offset="100%" stop-color="#D97706"/>
    </linearGradient>
  </defs>

  <!-- Background -->
  <rect width="1200" height="630" fill="url(#bg-223769203)"/>

  <!-- Glow orbs -->
  <ellipse cx="998.9526725606993" cy="29.31361454539001" rx="350" ry="300" fill="url(#orb1-223769203)"/>
  <ellipse cx="64.82177183497697" cy="534.418958844617" rx="300" ry="280" fill="url(#orb2-223769203)"/>

  <!-- Category decorations -->
  <polygon points="321.00412169098854,67.6773646065034 322.17247084387986,71.03855571238807 325.7301932912518,71.111056614493 322.89455033109385,73.26088786271849 323.92499457321685,76.66688699031903 321.00412169098854,74.63436466591433 318.08324880876023,76.66688699031903 319.1136930508832,73.26088786271849 316.2780500907253,71.111056614493 319.8357725380972,71.03855571238807" fill="#CE93D8" opacity="0.07453255966771394"/><polygon points="708.8830170743167,455.9223014564253 710.5655377850813,460.7626983827153 715.6889563162985,460.86710575874565 711.6053927711095,463.9630429542637 713.0893188512281,468.86796718761656 708.8830170743167,465.94096467519176 704.6767152974054,468.86796718761656 706.160641377524,463.9630429542637 702.077077832335,460.86710575874565 707.2004963635521,460.7626983827153" fill="#CE93D8" opacity="0.09539582276716829"/><polygon points="1043.5067650428973,446.6397509284783 1044.4632299981286,449.3913782931728 1047.3757470594278,449.4507309035756 1045.0543578495094,451.2106827497339 1045.8979274309752,453.99899204497837 1043.5067650428973,452.33507473977284 1041.1156026548194,453.99899204497837 1041.9591722362852,451.2106827497339 1039.6377830263668,449.4507309035756 1042.550300087666,449.3913782931728" fill="#CE93D8" opacity="0.048633235432207586"/><polygon points="388.00587546406314,612.2160511224996 389.89460715128257,617.6496906580563 395.645955627938,617.766894278925 391.0619075296131,621.2422718153827 392.72770468211166,626.7483471722408 388.00587546406314,623.4626090779528 383.2840462460146,626.7483471722408 384.94984339851317,621.2422718153827 380.36579530018827,617.766894278925 386.1171437768437,617.6496906580563" fill="#CE93D8" opacity="0.04695970725733787"/><polygon points="502.8006863719784,143.61227567712777 505.58154389553516,151.61244715992507 514.0494913494426,151.78501088249394 507.3002083629641,156.9019524972592 509.75283018087026,165.00877422582926 502.8006863719784,160.17104657940567 495.8485425630865,165.00877422582926 498.30116438099265,156.9019524972592 491.5518813945141,151.78501088249394 500.0198288484216,151.61244715992507" fill="#CE93D8" opacity="0.05360689151100814"/><polygon points="614.2597481943667,337.3397770022042 615.8020617135375,341.7768157677936 620.4985374326834,341.8725227071035 616.7552638896934,344.71047041294844 618.1155319922935,349.2066593199906 614.2597481943667,346.5235686949082 610.4039643964398,349.2066593199906 611.76423249904,344.71047041294844 608.02095895605,341.8725227071035 612.7174346751959,341.7768157677936" fill="#CE93D8" opacity="0.04076063418760896"/><polygon points="690.8724667280912,485.5745643704198 693.1765066326716,492.2029925382446 700.1925039207091,492.3459677534484 694.6004816051384,496.5855368683551 696.6325664895422,503.30232857872466 690.8724667280912,499.2940982215665 685.1123669666403,503.30232857872466 687.1444518510441,496.5855368683551 681.5524295354734,492.3459677534484 688.5684268235109,492.2029925382446" fill="#CE93D8" opacity="0.08309596577193587"/><polygon points="305.64478041464463,359.87092659282496 307.31684036696936,364.68122925479184 312.408404999867,364.78498749745165 308.35023024873357,367.86167628138105 309.82493029545645,372.73610506392464 305.64478041464463,369.8273006432317 301.4646305338328,372.73610506392464 302.9393305805557,367.86167628138105 298.88115582942226,364.78498749745165 303.9727204623199,364.68122925479184" fill="#CE93D8" opacity="0.08504605734255165"/><polygon points="110.95282270433381,157.49001059480943 112.95508319559056,163.25025798166445 119.05213652729503,163.37450653485246 114.19254823351831,167.0587837567246 115.9584739324757,172.8958209725028 110.95282270433381,169.41258213274182 105.94717147619193,172.8958209725028 107.71309717514931,167.0587837567246 102.85350888137259,163.37450653485243 108.95056221307706,163.25025798166445" fill="#CE93D8" opacity="0.08843922677449882"/><polygon points="593.6984485862777,129.50966299893335 595.9793682185557,136.07157709993484 602.9249623128596,136.21311760652034 597.3890540769104,140.41014405878198 599.4007476669727,147.0595350036382 593.6984485862777,143.0915259018168 587.9961495055826,147.0595350036382 590.007843095645,140.41014405878198 584.4719348596957,136.21311760652034 591.4175289539996,136.07157709993484" fill="#CE93D8" opacity="0.06948824308346957"/><polygon points="30.925843372009695,541.1088077557273 33.28815408495479,547.9048735876215 40.481590935842604,548.0514647477355 34.748142397542864,552.3982555817421 36.831620154372445,559.284919733037 30.925843372009695,555.1753183785454 25.02006658964695,559.284919733037 27.10354434647653,552.3982555817421 21.37009580817678,548.0514647477355 28.563532659064595,547.9048735876215" fill="#CE93D8" opacity="0.07899765431880951"/><polygon points="571.2379234386608,212.69053549747915 572.5045321335992,216.33440674052966 576.3614632358019,216.41300505403015 573.2873393575172,218.7436396463642 574.4044451760068,222.43608731861642 571.2379234386608,220.23262746898456 568.0714017013148,222.43608731861642 569.1885075198044,218.7436396463642 566.1143836415197,216.41300505403015 569.9713147437224,216.33440674052966" fill="#CE93D8" opacity="0.06716860604472458"/><rect x="111.28715798258781" y="429.3160745874047" width="107.08872640971094" height="58.21971752680838" rx="8" fill="none" stroke="#CE93D8" stroke-width="1.5" opacity="0.06"/><rect x="419.2763960454613" y="171.36179096996784" width="102.02330652624369" height="59.1127373278141" rx="8" fill="none" stroke="#CE93D8" stroke-width="1.5" opacity="0.06"/><rect x="232.831418979913" y="135.95675921533257" width="110.39613040629774" height="57.998662646859884" rx="8" fill="none" stroke="#CE93D8" stroke-width="1.5" opacity="0.06"/>

  <!-- Large icon watermark -->
  <polygon points="1042.403184887953,103.56842506770045 1066.9661507885553,174.23293688331592 1141.7624691171507,175.75717061238487 1082.146898579632,220.9544744419227 1103.8105996394586,292.5610145089018 1042.403184887953,249.82997265979648 980.9957701364476,292.5610145089018 1002.659471196274,220.9544744419227 943.0439006587555,175.75717061238484 1017.8402189873509,174.23293688331594" fill="#CE93D8" opacity="0.1"/>

  <!-- Subtle grid overlay -->
  <rect width="1200" height="630" fill="url(#bg-223769203)" opacity="0"/>

  <!-- Bottom gradient overlay for text readability -->
  <rect x="0" y="300" width="1200" height="330" fill="url(#bg-223769203)" opacity="0.3"/>

  <!-- Accent line -->
  <rect x="80" y="240" width="60" height="4" rx="2" fill="url(#accent-line-223769203)"/>

  <!-- Category badge -->
  <rect x="80" y="200" width="109" height="30" rx="15" fill="#CE93D8" opacity="0.2"/>
  <text x="96" y="220" font-family="'Fira Sans', 'Segoe UI', Arial, sans-serif" font-size="12" font-weight="700" fill="#CE93D8" letter-spacing="2" text-anchor="start">REVIEWS</text>

  <!-- Title -->
  <text x="80" y="300" font-family="'Fira Sans', 'Segoe UI', Arial, sans-serif" font-size="42" font-weight="800" fill="white" letter-spacing="-0.5">Jupiter DEX Review: Solana&apos;s Best Swap</text>
  <text x="80" y="352.5" font-family="'Fira Sans', 'Segoe UI', Arial, sans-serif" font-size="42" font-weight="800" fill="white" letter-spacing="-0.5">Aggregator</text>

  <!-- Author bar -->
  <g transform="translate(80, 435)">
    <!-- Author avatar circle -->
    <circle cx="16" cy="12" r="16" fill="#CE93D8" opacity="0.2"/>
    <text x="16" y="17" font-family="'Fira Sans', Arial, sans-serif" font-size="13" font-weight="700" fill="#CE93D8" text-anchor="middle">YK</text>

    <text x="44" y="10" font-family="'Fira Sans', Arial, sans-serif" font-size="14" font-weight="600" fill="#CE93D8">Yosef Kamel</text>
    <text x="44" y="28" font-family="'Fira Sans', Arial, sans-serif" font-size="12" font-weight="400" fill="white" opacity="0.5">Crypto Pointers</text>
  </g>

  <!-- Branding: bottom bar -->
  <rect x="0" y="610" width="1200" height="20" fill="#CE93D8" opacity="0.08"/>
  <text x="1120" y="600" font-family="'Fira Sans', Arial, sans-serif" font-size="11" font-weight="600" fill="white" opacity="0.25" text-anchor="end">cryptopointers.com</text>

  <!-- Corner accent -->
  <rect x="0" y="0" width="4" height="630" fill="#CE93D8" opacity="0.3"/>
</svg>