<svg xmlns="http://www.w3.org/2000/svg" width="1200" height="630" viewBox="0 0 1200 630">
  <defs>
    <linearGradient id="bg-946884257" x1="0" y1="0" x2="1" y2="1">
      <stop offset="0%" stop-color="#2d1a3d"/>
      <stop offset="100%" stop-color="#1a0d28"/>
    </linearGradient>
    <radialGradient id="orb1-946884257" cx="50%" cy="50%" r="50%">
      <stop offset="0%" stop-color="#CE93D8" stop-opacity="0.25"/>
      <stop offset="100%" stop-color="#CE93D8" stop-opacity="0"/>
    </radialGradient>
    <radialGradient id="orb2-946884257" cx="50%" cy="50%" r="50%">
      <stop offset="0%" stop-color="#D97706" stop-opacity="0.15"/>
      <stop offset="100%" stop-color="#D97706" stop-opacity="0"/>
    </radialGradient>
    <linearGradient id="accent-line-946884257" x1="0" y1="0" x2="1" y2="0">
      <stop offset="0%" stop-color="#CE93D8"/>
      <stop offset="100%" stop-color="#D97706"/>
    </linearGradient>
  </defs>

  <!-- Background -->
  <rect width="1200" height="630" fill="url(#bg-946884257)"/>

  <!-- Glow orbs -->
  <ellipse cx="1076.6297890804708" cy="-4.450887953862548" rx="350" ry="300" fill="url(#orb1-946884257)"/>
  <ellipse cx="-14.231005683541298" cy="423.5788930673152" rx="300" ry="280" fill="url(#orb2-946884257)"/>

  <!-- Category decorations -->
  <polygon points="729.7668153848499,630.6118084183894 731.1688296470654,634.6452241630068 735.4380822072918,634.7322249525592 732.0353221138266,637.3120137630443 733.2718510403886,641.3991989526531 729.7668153848499,638.9601803767123 726.2617797293112,641.3991989526531 727.4983086558732,637.3120137630443 724.095548562408,634.7322249525592 728.3648011226344,634.6452241630068" fill="#CE93D8" opacity="0.06350175319705159"/><polygon points="718.6423194813542,226.504294748744 720.6938596033285,232.40631333135778 726.9409735979506,232.533619889658 721.9617811279927,236.30857453424704 723.77116978629,242.28927289688116 718.6423194813542,238.72030459061264 713.5134691764184,242.28927289688116 715.3228578347157,236.30857453424704 710.3436653647578,232.533619889658 716.5907793593799,232.40631333135778" fill="#CE93D8" opacity="0.08734074785374105"/><polygon points="67.54586631525308,307.55865796478463 69.02973285697897,311.8275522503894 73.54823256345618,311.9196323127682 69.94681281453433,314.6500341380309 71.25553266956778,318.97583703187195 67.54586631525308,316.3944238772243 63.83619996093837,318.97583703187195 65.14491981597183,314.6500341380309 61.543500067049976,311.91963231276816 66.06199977352719,311.8275522503894" fill="#CE93D8" opacity="0.0768129607802257"/><polygon points="1023.9819665867835,275.2141524288803 1026.4196084263397,282.2269362787872 1033.8424349587854,282.3782020471914 1027.9261539355844,286.86360659059443 1030.076071185674,293.9698778267094 1023.9819665867835,289.72922643791884 1017.8878619878931,293.9698778267094 1020.0377792379828,286.86360659059443 1014.1214982147817,282.3782020471914 1021.5443247472274,282.2269362787872" fill="#CE93D8" opacity="0.08344287146814167"/><polygon points="1055.7522214003839,52.61140401693992 1056.9548575176468,56.07123433474901 1060.616986684958,56.145862884947164 1057.6981275142136,58.35878416685869 1058.7588116935412,61.86473746522137 1055.7522214003839,59.77256771406159 1052.7456311072265,61.86473746522137 1053.806315286554,58.35878416685869 1050.8874561158098,56.145862884947164 1054.549585283121,56.07123433474901" fill="#CE93D8" opacity="0.07653014614712447"/><polygon points="1184.5005445168354,222.81939416876995 1185.6374411930171,226.09010052126362 1189.0993881762329,226.16064966697002 1186.3400819805943,228.25260650573767 1187.34278620729,231.5669146281552 1184.5005445168354,229.5891087050177 1181.6583028263808,231.5669146281552 1182.6610070530764,228.2526065057377 1179.9017008574378,226.16064966697002 1183.3636478406536,226.09010052126362" fill="#CE93D8" opacity="0.060273252595216036"/><polygon points="496.9597095493227,459.1421435713768 497.98033612788697,462.07835572149486 501.08823078416884,462.1416898262657 498.6111180432612,464.01970283798994 499.5112759957333,466.9950576175034 496.9597095493227,465.2195213399455 494.40814310291216,466.9950576175034 495.3083010553843,464.01970283798994 492.8311883144766,462.1416898262657 495.9390829707585,462.07835572149486" fill="#CE93D8" opacity="0.04163639510050416"/><polygon points="691.8904766542837,322.7294213498011 694.7177168786587,330.8630299314926 703.3269035977829,331.03847189267964 696.4650474316834,336.24076040853987 698.9585772152212,344.4827980852979 691.8904766542837,339.5643806256913 684.8223760933462,344.4827980852979 687.315905876884,336.24076040853987 680.4540497107845,331.03847189267964 689.0632364299087,330.8630299314926" fill="#CE93D8" opacity="0.058905940628610556"/><polygon points="317.15776304807514,619.6309534731321 319.42145248351267,626.1432985011987 326.314579164355,626.2837698027344 320.8204894945871,630.4490916780815 322.8169866366689,637.048252744941 317.15776304807514,633.1102182099223 311.4985394594814,637.048252744941 313.4950366015632,630.4490916780815 308.0009469317953,626.2837698027344 314.8940736126376,626.1432985011987" fill="#CE93D8" opacity="0.07785088144242763"/><polygon points="874.2383239660412,484.1398821641691 877.1400296066305,492.48771822576754 885.9759698455931,492.66778107433043 878.933382317862,498.00709034147326 881.4925880675145,506.4662113635947 874.2383239660412,501.41824990553783 866.9840598645679,506.4662113635947 869.5432656142204,498.00709034147326 862.5006780864893,492.66778107433043 871.3366183254519,492.48771822576754" fill="#CE93D8" opacity="0.09981955831404776"/><polygon points="365.6760325827636,153.75823111212813 367.1165804608627,157.90250314201347 371.50317115572824,157.99189510196743 368.00688801194946,160.64258803501608 369.2774022780113,164.84210733447392 365.6760325827636,162.3360536309518 362.07466288751584,164.84210733447392 363.3451771535777,160.64258803501608 359.8488940097989,157.99189510196743 364.2354847046645,157.90250314201347" fill="#CE93D8" opacity="0.04040008389856666"/><polygon points="745.064213255886,334.5341267658863 747.3034868060327,340.9762304142431 754.1222650415008,341.1151866090103 748.6874339701319,345.2355818175118 750.6623971312526,351.76356511718205 745.064213255886,347.8680057547614 739.4660293805193,351.76356511718205 741.4409925416401,345.2355818175118 736.0061614702712,341.1151866090103 742.8249397057393,340.9762304142431" fill="#CE93D8" opacity="0.045712779173627496"/><rect x="169.54838065430522" y="116.45230802241713" width="90.78706474974751" height="68.20938188582659" rx="8" fill="none" stroke="#CE93D8" stroke-width="1.5" opacity="0.06"/><rect x="972.8866582736373" y="391.8449628399685" width="88.87478827498853" height="73.26903398148715" rx="8" fill="none" stroke="#CE93D8" stroke-width="1.5" opacity="0.06"/><rect x="800.0913788564503" y="102.60728618595749" width="82.25934060290456" height="54.549801368266344" rx="8" fill="none" stroke="#CE93D8" stroke-width="1.5" opacity="0.06"/>

  <!-- Large icon watermark -->
  <polygon points="1043.4262910904363,104.764314096421 1066.2550364621297,170.4396952202516 1135.770505920228,171.85631338552815 1080.363977022353,213.86254930943525 1100.4981545196697,280.4134486084873 1043.4262910904363,240.6993490250781 986.3544276612029,280.4134486084873 1006.4886051585195,213.86254930943528 951.0820762606444,171.85631338552813 1020.5975457187429,170.43969522025162" fill="#CE93D8" opacity="0.1"/>

  <!-- Subtle grid overlay -->
  <rect width="1200" height="630" fill="url(#bg-946884257)" opacity="0"/>

  <!-- Bottom gradient overlay for text readability -->
  <rect x="0" y="300" width="1200" height="330" fill="url(#bg-946884257)" opacity="0.3"/>

  <!-- Accent line -->
  <rect x="80" y="240" width="60" height="4" rx="2" fill="url(#accent-line-946884257)"/>

  <!-- Category badge -->
  <rect x="80" y="200" width="109" height="30" rx="15" fill="#CE93D8" opacity="0.2"/>
  <text x="96" y="220" font-family="'Fira Sans', 'Segoe UI', Arial, sans-serif" font-size="12" font-weight="700" fill="#CE93D8" letter-spacing="2" text-anchor="start">REVIEWS</text>

  <!-- Title -->
  <text x="80" y="300" font-family="'Fira Sans', 'Segoe UI', Arial, sans-serif" font-size="42" font-weight="800" fill="white" letter-spacing="-0.5">Kraken Exchange Review 2025:</text>
  <text x="80" y="352.5" font-family="'Fira Sans', 'Segoe UI', Arial, sans-serif" font-size="42" font-weight="800" fill="white" letter-spacing="-0.5">Security-First Crypto Trading</text>

  <!-- Author bar -->
  <g transform="translate(80, 435)">
    <!-- Author avatar circle -->
    <circle cx="16" cy="12" r="16" fill="#CE93D8" opacity="0.2"/>
    <text x="16" y="17" font-family="'Fira Sans', Arial, sans-serif" font-size="13" font-weight="700" fill="#CE93D8" text-anchor="middle">YK</text>

    <text x="44" y="10" font-family="'Fira Sans', Arial, sans-serif" font-size="14" font-weight="600" fill="#CE93D8">Yosef Kamel</text>
    <text x="44" y="28" font-family="'Fira Sans', Arial, sans-serif" font-size="12" font-weight="400" fill="white" opacity="0.5">Crypto Pointers</text>
  </g>

  <!-- Branding: bottom bar -->
  <rect x="0" y="610" width="1200" height="20" fill="#CE93D8" opacity="0.08"/>
  <text x="1120" y="600" font-family="'Fira Sans', Arial, sans-serif" font-size="11" font-weight="600" fill="white" opacity="0.25" text-anchor="end">cryptopointers.com</text>

  <!-- Corner accent -->
  <rect x="0" y="0" width="4" height="630" fill="#CE93D8" opacity="0.3"/>
</svg>