<svg xmlns="http://www.w3.org/2000/svg" width="1200" height="630" viewBox="0 0 1200 630">
  <defs>
    <linearGradient id="bg-1523121140" x1="0" y1="0" x2="1" y2="1">
      <stop offset="0%" stop-color="#2d1a3d"/>
      <stop offset="100%" stop-color="#1a0d28"/>
    </linearGradient>
    <radialGradient id="orb1-1523121140" cx="50%" cy="50%" r="50%">
      <stop offset="0%" stop-color="#CE93D8" stop-opacity="0.25"/>
      <stop offset="100%" stop-color="#CE93D8" stop-opacity="0"/>
    </radialGradient>
    <radialGradient id="orb2-1523121140" cx="50%" cy="50%" r="50%">
      <stop offset="0%" stop-color="#D97706" stop-opacity="0.15"/>
      <stop offset="100%" stop-color="#D97706" stop-opacity="0"/>
    </radialGradient>
    <linearGradient id="accent-line-1523121140" x1="0" y1="0" x2="1" y2="0">
      <stop offset="0%" stop-color="#CE93D8"/>
      <stop offset="100%" stop-color="#D97706"/>
    </linearGradient>
  </defs>

  <!-- Background -->
  <rect width="1200" height="630" fill="url(#bg-1523121140)"/>

  <!-- Glow orbs -->
  <ellipse cx="836.9051167042926" cy="40.26246718131006" rx="350" ry="300" fill="url(#orb1-1523121140)"/>
  <ellipse cx="143.96748391445726" cy="438.8779789209366" rx="300" ry="280" fill="url(#orb2-1523121140)"/>

  <!-- Category decorations -->
  <polygon points="961.2117178910412,350.2187114272732 962.2098520669277,353.09021581118697 965.2492554458344,353.15215416924923 962.8267329129585,354.98877983541456 963.7070533307575,357.89856422981813 961.2117178910412,356.16215693220494 958.7163824513249,357.89856422981813 959.5967028691239,354.98877983541456 957.174180336248,353.15215416924923 960.2135837151546,353.09021581118697" fill="#CE93D8" opacity="0.09061315374448894"/><polygon points="669.5466811358929,201.3071643683128 672.3352983567164,209.32965950784663 680.8268747481574,209.50270475175742 674.0587585807987,214.6339246664809 676.5182241879518,222.76336764834312 669.5466811358929,217.91214081985876 662.575138083834,222.76336764834312 665.0346036909871,214.6339246664809 658.2664875236284,209.5027047517574 666.7580639150693,209.32965950784663" fill="#CE93D8" opacity="0.045359052354469895"/><polygon points="93.91423127939925,52.175342372478916 96.33665005370693,59.144331410371834 103.7131210589385,59.29465252455125 97.83378719121494,63.752045731373926 99.97027821516846,70.81393832705648 93.91423127939925,66.59976979220286 87.85818434363003,70.81393832705648 89.99467536758355,63.752045731373926 84.11534149986,59.29465252455125 91.49181250509156,59.144331410371834" fill="#CE93D8" opacity="0.05887828312814236"/><polygon points="180.72376207076013,281.5194998123683 182.50690737583477,286.64938082874494 187.93673634698658,286.7600323774555 183.6089517812507,290.04112475252964 185.18162533344673,295.23939218691726 180.72376207076013,292.13733777856453 176.26589880807353,295.23939218691726 177.83857236026955,290.04112475252964 173.51078779453368,286.7600323774555 178.9406167656855,286.64938082874494" fill="#CE93D8" opacity="0.09700984647031874"/><polygon points="192.78513113362715,75.6421556620393 195.24821361352195,82.72812898088411 202.7485090575376,82.88097344635 196.77048230319133,87.41319026623688 198.94283733336417,94.59362665973192 192.78513113362715,90.30871737996117 186.62742493389013,94.59362665973192 188.79977996406296,87.41319026623688 182.8217532097167,82.88097344635 190.32204865373234,82.72812898088411" fill="#CE93D8" opacity="0.05364517459645868"/><polygon points="732.6309187463485,594.0408049489837 733.7527572002356,597.2681907215614 737.1688506170382,597.3378054422307 734.4460914946244,599.4020542651609 735.4355148810661,602.6724643012295 732.6309187463485,600.7208544624597 729.8263226116309,602.6724643012295 730.8157459980725,599.4020542651609 728.0929868756588,597.3378054422307 731.5090802924614,597.2681907215614" fill="#CE93D8" opacity="0.049886900498531755"/><polygon points="937.6331396712922,196.61446510660463 939.6753359798828,202.48960273298843 945.8939972687903,202.6163294689832 940.9374827102914,206.37409094666654 942.7386304427688,212.32755000317846 937.6331396712922,208.77483669161796 932.5276488998155,212.32755000317846 934.3287966322929,206.37409094666654 929.372282073794,202.6163294689832 935.5909433627015,202.48960273298843" fill="#CE93D8" opacity="0.06343899737112224"/><polygon points="33.58727786783129,607.3434103467501 36.50296009623413,615.7314552641801 45.38146023270588,615.9123854178824 38.304950813781126,621.2774124297172 40.8764834388384,629.7772783317249 33.58727786783129,624.70500245817 26.298072296824184,629.7772783317249 28.869604921881457,621.2774124297172 21.793095502956707,615.9123854178824 30.671595639428446,615.7314552641802" fill="#CE93D8" opacity="0.07542919469065965"/><polygon points="418.59232446039096,128.3062496458646 419.63958730419967,131.31909092487973 422.8285916514844,131.38407792018776 420.2868313368283,133.3111032286359 421.21048156991276,136.36410867957812 418.59232446039096,134.54223453836516 415.97416735086915,136.36410867957812 416.8978175839536,133.3111032286359 414.35605726929754,131.38407792018776 417.54506161658225,131.31909092487973" fill="#CE93D8" opacity="0.08810892882756888"/><polygon points="129.05253373412415,396.46596826505845 131.3576022055858,403.0973554882688 138.37673156717597,403.24039453030605 132.7822128673449,407.48185626884907 134.81520491277828,414.20164648175665 129.05253373412415,410.1916267749481 123.28986255547001,414.20164648175665 125.32285460090343,407.48185626884907 119.72833590107234,403.24039453030605 126.7474652626625,403.0973554882688" fill="#CE93D8" opacity="0.08759998674970121"/><polygon points="880.85081562493,511.5034255796112 883.2708694854166,518.465611062863 890.6401391271118,518.6157854243487 884.7665450258027,523.0688270504651 886.9009502761464,530.1238253933539 880.85081562493,525.91377098836 874.8006809737135,530.1238253933539 876.9350862240573,523.0688270504651 871.0614921227482,518.6157854243487 878.4307617644433,518.465611062863" fill="#CE93D8" opacity="0.0622740791970864"/><polygon points="936.0938708935864,597.1098152402323 938.5803248198438,604.2630252215519 946.1517883039492,604.4173199820264 940.1170378577315,608.9925416396213 942.3100057092299,616.2411110272002 936.0938708935864,611.915543536339 929.8777360779429,616.2411110272002 932.0707039294414,608.9925416396213 926.0359534832237,604.4173199820264 933.6074169673291,604.2630252215519" fill="#CE93D8" opacity="0.05960305370856077"/><rect x="182.6165698003024" y="121.27578095532954" width="118.45192573033273" height="56.521904189139605" rx="8" fill="none" stroke="#CE93D8" stroke-width="1.5" opacity="0.06"/><rect x="421.8791762832552" y="316.96303572971374" width="97.65008876565844" height="61.53488791547716" rx="8" fill="none" stroke="#CE93D8" stroke-width="1.5" opacity="0.06"/><rect x="105.09420814923942" y="339.38504941761494" width="103.65342690609396" height="53.62063809297979" rx="8" fill="none" stroke="#CE93D8" stroke-width="1.5" opacity="0.06"/>

  <!-- Large icon watermark -->
  <polygon points="983.8596636150032,138.51460402552038 1003.4944925607856,195.00149602592043 1063.2842151089185,196.21991845360157 1015.6294842125693,232.34916005637444 1032.9467359794592,289.5890785297366 983.8596636150032,255.43128582760693 934.7725912505474,289.5890785297366 952.0898430174371,232.34916005637444 904.435112121088,196.21991845360154 964.2248346692209,195.00149602592043" fill="#CE93D8" opacity="0.1"/>

  <!-- Subtle grid overlay -->
  <rect width="1200" height="630" fill="url(#bg-1523121140)" opacity="0"/>

  <!-- Bottom gradient overlay for text readability -->
  <rect x="0" y="300" width="1200" height="330" fill="url(#bg-1523121140)" opacity="0.3"/>

  <!-- Accent line -->
  <rect x="80" y="240" width="60" height="4" rx="2" fill="url(#accent-line-1523121140)"/>

  <!-- Category badge -->
  <rect x="80" y="200" width="109" height="30" rx="15" fill="#CE93D8" opacity="0.2"/>
  <text x="96" y="220" font-family="'Fira Sans', 'Segoe UI', Arial, sans-serif" font-size="12" font-weight="700" fill="#CE93D8" letter-spacing="2" text-anchor="start">REVIEWS</text>

  <!-- Title -->
  <text x="80" y="300" font-family="'Fira Sans', 'Segoe UI', Arial, sans-serif" font-size="42" font-weight="800" fill="white" letter-spacing="-0.5">Ledger Nano X Review 2025: The Best</text>
  <text x="80" y="352.5" font-family="'Fira Sans', 'Segoe UI', Arial, sans-serif" font-size="42" font-weight="800" fill="white" letter-spacing="-0.5">Hardware Wallet?</text>

  <!-- Author bar -->
  <g transform="translate(80, 435)">
    <!-- Author avatar circle -->
    <circle cx="16" cy="12" r="16" fill="#CE93D8" opacity="0.2"/>
    <text x="16" y="17" font-family="'Fira Sans', Arial, sans-serif" font-size="13" font-weight="700" fill="#CE93D8" text-anchor="middle">YK</text>

    <text x="44" y="10" font-family="'Fira Sans', Arial, sans-serif" font-size="14" font-weight="600" fill="#CE93D8">Yosef Kamel</text>
    <text x="44" y="28" font-family="'Fira Sans', Arial, sans-serif" font-size="12" font-weight="400" fill="white" opacity="0.5">Crypto Pointers</text>
  </g>

  <!-- Branding: bottom bar -->
  <rect x="0" y="610" width="1200" height="20" fill="#CE93D8" opacity="0.08"/>
  <text x="1120" y="600" font-family="'Fira Sans', Arial, sans-serif" font-size="11" font-weight="600" fill="white" opacity="0.25" text-anchor="end">cryptopointers.com</text>

  <!-- Corner accent -->
  <rect x="0" y="0" width="4" height="630" fill="#CE93D8" opacity="0.3"/>
</svg>