<svg xmlns="http://www.w3.org/2000/svg" width="1200" height="630" viewBox="0 0 1200 630">
  <defs>
    <linearGradient id="bg-139394605" x1="0" y1="0" x2="1" y2="1">
      <stop offset="0%" stop-color="#2d1a3d"/>
      <stop offset="100%" stop-color="#1a0d28"/>
    </linearGradient>
    <radialGradient id="orb1-139394605" cx="50%" cy="50%" r="50%">
      <stop offset="0%" stop-color="#CE93D8" stop-opacity="0.25"/>
      <stop offset="100%" stop-color="#CE93D8" stop-opacity="0"/>
    </radialGradient>
    <radialGradient id="orb2-139394605" cx="50%" cy="50%" r="50%">
      <stop offset="0%" stop-color="#D97706" stop-opacity="0.15"/>
      <stop offset="100%" stop-color="#D97706" stop-opacity="0"/>
    </radialGradient>
    <linearGradient id="accent-line-139394605" x1="0" y1="0" x2="1" y2="0">
      <stop offset="0%" stop-color="#CE93D8"/>
      <stop offset="100%" stop-color="#D97706"/>
    </linearGradient>
  </defs>

  <!-- Background -->
  <rect width="1200" height="630" fill="url(#bg-139394605)"/>

  <!-- Glow orbs -->
  <ellipse cx="819.3761503789574" cy="-44.67439251020551" rx="350" ry="300" fill="url(#orb1-139394605)"/>
  <ellipse cx="173.18368232809007" cy="439.3571970053017" rx="300" ry="280" fill="url(#orb2-139394605)"/>

  <!-- Category decorations -->
  <polygon points="779.1864623581059,610.953378228331 781.2830486275275,616.9849888167072 787.6673319687819,617.1150906749554 782.5788102023763,620.9729328837238 784.4279280316598,627.0849508424969 779.1864623581059,623.4376178623736 773.944996684552,627.0849508424969 775.7941145138356,620.9729328837238 770.7055927474299,617.1150906749554 777.0898760886844,616.9849888167072" fill="#CE93D8" opacity="0.05955911321565509"/><polygon points="190.73425322631374,278.11560661378314 192.06920013068572,281.956078146372 196.13422688743955,282.0389171286999 192.89424269076406,284.49529805099405 194.0716204872437,288.38696689025494 190.73425322631374,286.0646222569607 187.39688596538377,288.38696689025494 188.57426376186342,284.49529805099405 185.33427956518793,282.0389171286999 189.39930632194176,281.956078146372" fill="#CE93D8" opacity="0.05121691518928856"/><polygon points="143.1100534168072,351.4152744099032 145.1546011009777,357.2971766431393 151.38042252832653,357.4240492917239 146.41820106141495,361.18613743895236 148.22142262723344,367.1464512812565 143.1100534168072,363.5896473916806 137.998684206381,367.1464512812565 139.80190577219946,361.18613743895236 134.83968430528788,357.4240492917239 141.06550573263672,357.2971766431393" fill="#CE93D8" opacity="0.07319482588674872"/><polygon points="112.45445627346635,488.0454920484684 114.51008668393663,493.95927786802434 120.7696559545884,494.0868382456602 115.78053614591516,497.8693192619688 117.59353229964206,503.86194173052144 112.45445627346635,500.28585774084553 107.31538024729063,503.86194173052144 109.12837640101753,497.8693192619688 104.1392565923443,494.0868382456602 110.39882586299606,493.95927786802434" fill="#CE93D8" opacity="0.06030914382077754"/><polygon points="213.93333355756477,68.81804770682939 215.25046105033056,72.60725507095057 219.26122618459468,72.68898828501283 216.06449060837673,75.11258044052336 217.22615228947922,78.95230170894479 213.93333355756477,76.66095667179674 210.6405148256503,78.95230170894479 211.8021765067528,75.11258044052336 208.60544093053485,72.68898828501283 212.61620606479897,72.60725507095057" fill="#CE93D8" opacity="0.07082733562681824"/><polygon points="836.9268669476733,493.8315487090498 839.0080127231297,499.8187389707988 845.3452784482527,499.94788268247015 840.294231547905,503.7773134730147 842.1297313863143,509.8443189380099 836.9268669476733,506.22384706238284 831.7240025090322,509.8443189380099 833.5595023474415,503.7773134730147 828.5084554470939,499.94788268247015 834.8457211722168,499.8187389707988" fill="#CE93D8" opacity="0.06511592055205256"/><polygon points="898.398678294383,454.2250582446344 900.9708693260426,461.6249229142454 908.80340958134,461.7845380170766 902.5605708091658,466.51752099787694 904.8291558735318,474.01603322615546 898.398678294383,469.5413129068539 891.9682007152342,474.01603322615546 894.2367857796002,466.51752099787694 887.993947007426,461.7845380170766 895.8264872627234,461.6249229142454" fill="#CE93D8" opacity="0.041694473531097176"/><polygon points="130.39453194802627,183.2391080631409 132.46433131900815,189.1936561701802 138.76704627838083,189.3220957904778 133.7435376801681,193.13064852857204 135.56903037548096,199.1645766864574 130.39453194802627,195.5638436195068 125.22003352057159,199.1645766864574 127.04552621588445,193.13064852857204 122.02201761767171,189.3220957904778 128.3247325770444,189.1936561701802" fill="#CE93D8" opacity="0.07178396396804601"/><polygon points="136.50346021493897,79.92980907238089 138.99008899877322,87.08352209658851 146.5620849390581,87.23782770769962 140.52691010458662,91.81337111353385 142.72003217452462,99.06245025006297 136.50346021493897,94.73657856766134 130.28688825535332,99.06245025006297 132.48001032529132,91.81337111353385 126.44483549081984,87.23782770769962 134.0168314311047,87.08352209658851" fill="#CE93D8" opacity="0.08131905407179146"/><polygon points="190.36982284253463,593.0652740982827 193.14087952880004,601.0372498255111 201.57898260035984,601.209205365549 194.8534867456647,606.3081128625031 197.29746455819813,614.3863629580288 190.36982284253463,609.5656853694096 183.44218112687113,614.3863629580288 185.88615893940457,606.3081128625031 179.16066308470943,601.209205365549 187.59876615626922,601.0372498255111" fill="#CE93D8" opacity="0.08112344273366034"/><polygon points="1107.2605655770749,238.3744729474187 1108.4314208915064,241.74287395956995 1111.9967748137217,241.8155303793744 1109.1550492717336,243.96997311242785 1110.1877038631537,247.38327826151917 1107.2605655770749,245.34639608521013 1104.333427290996,247.38327826151917 1105.3660818824162,243.96997311242785 1102.524356340428,241.8155303793744 1106.0897102626434,241.74287395956995" fill="#CE93D8" opacity="0.08829743011854589"/><polygon points="596.0163568505086,533.1394658087287 597.2531412887089,536.6975364790312 601.0192549949211,536.7742840739235 598.0175161082736,539.0500402774369 599.1083179460093,542.6555435699375 596.0163568505086,540.5039675835147 592.9243957550079,542.6555435699375 594.0151975927436,539.0500402774369 591.0134587060961,536.7742840739235 594.7795724123083,536.6975364790312" fill="#CE93D8" opacity="0.05457939651794731"/><rect x="878.0200427863747" y="272.12831599172205" width="83.24162210803479" height="51.685090474784374" rx="8" fill="none" stroke="#CE93D8" stroke-width="1.5" opacity="0.06"/><rect x="943.80450877361" y="144.2867845762521" width="136.75562361255288" height="81.75781362690032" rx="8" fill="none" stroke="#CE93D8" stroke-width="1.5" opacity="0.06"/><rect x="768.3648455422372" y="243.23070340324193" width="126.4923576824367" height="56.24750226736069" rx="8" fill="none" stroke="#CE93D8" stroke-width="1.5" opacity="0.06"/>

  <!-- Large icon watermark -->
  <polygon points="1005.269547146745,129.47959712147713 1031.6934421436554,205.4977639739573 1112.1564476971434,207.13747605802118 1048.0243073669044,255.75899901937842 1071.3292846390211,332.790563671574 1005.269547146745,286.82215059399607 939.2098096544689,332.790563671574 962.5147869265857,255.75899901937842 898.3826465963466,207.13747605802115 978.8456521498346,205.4977639739573" fill="#CE93D8" opacity="0.1"/>

  <!-- Subtle grid overlay -->
  <rect width="1200" height="630" fill="url(#bg-139394605)" opacity="0"/>

  <!-- Bottom gradient overlay for text readability -->
  <rect x="0" y="300" width="1200" height="330" fill="url(#bg-139394605)" opacity="0.3"/>

  <!-- Accent line -->
  <rect x="80" y="240" width="60" height="4" rx="2" fill="url(#accent-line-139394605)"/>

  <!-- Category badge -->
  <rect x="80" y="200" width="109" height="30" rx="15" fill="#CE93D8" opacity="0.2"/>
  <text x="96" y="220" font-family="'Fira Sans', 'Segoe UI', Arial, sans-serif" font-size="12" font-weight="700" fill="#CE93D8" letter-spacing="2" text-anchor="start">REVIEWS</text>

  <!-- Title -->
  <text x="80" y="300" font-family="'Fira Sans', 'Segoe UI', Arial, sans-serif" font-size="42" font-weight="800" fill="white" letter-spacing="-0.5">Lido Staking Review: The Dominant</text>
  <text x="80" y="352.5" font-family="'Fira Sans', 'Segoe UI', Arial, sans-serif" font-size="42" font-weight="800" fill="white" letter-spacing="-0.5">Liquid Staking Protocol</text>

  <!-- Author bar -->
  <g transform="translate(80, 435)">
    <!-- Author avatar circle -->
    <circle cx="16" cy="12" r="16" fill="#CE93D8" opacity="0.2"/>
    <text x="16" y="17" font-family="'Fira Sans', Arial, sans-serif" font-size="13" font-weight="700" fill="#CE93D8" text-anchor="middle">YK</text>

    <text x="44" y="10" font-family="'Fira Sans', Arial, sans-serif" font-size="14" font-weight="600" fill="#CE93D8">Yosef Kamel</text>
    <text x="44" y="28" font-family="'Fira Sans', Arial, sans-serif" font-size="12" font-weight="400" fill="white" opacity="0.5">Crypto Pointers</text>
  </g>

  <!-- Branding: bottom bar -->
  <rect x="0" y="610" width="1200" height="20" fill="#CE93D8" opacity="0.08"/>
  <text x="1120" y="600" font-family="'Fira Sans', Arial, sans-serif" font-size="11" font-weight="600" fill="white" opacity="0.25" text-anchor="end">cryptopointers.com</text>

  <!-- Corner accent -->
  <rect x="0" y="0" width="4" height="630" fill="#CE93D8" opacity="0.3"/>
</svg>