<svg xmlns="http://www.w3.org/2000/svg" width="1200" height="630" viewBox="0 0 1200 630">
  <defs>
    <linearGradient id="bg-1046138393" x1="0" y1="0" x2="1" y2="1">
      <stop offset="0%" stop-color="#1a2e1a"/>
      <stop offset="100%" stop-color="#0d1a0d"/>
    </linearGradient>
    <radialGradient id="orb1-1046138393" cx="50%" cy="50%" r="50%">
      <stop offset="0%" stop-color="#66BB6A" stop-opacity="0.25"/>
      <stop offset="100%" stop-color="#66BB6A" stop-opacity="0"/>
    </radialGradient>
    <radialGradient id="orb2-1046138393" cx="50%" cy="50%" r="50%">
      <stop offset="0%" stop-color="#D97706" stop-opacity="0.15"/>
      <stop offset="100%" stop-color="#D97706" stop-opacity="0"/>
    </radialGradient>
    <linearGradient id="accent-line-1046138393" x1="0" y1="0" x2="1" y2="0">
      <stop offset="0%" stop-color="#66BB6A"/>
      <stop offset="100%" stop-color="#D97706"/>
    </linearGradient>
  </defs>

  <!-- Background -->
  <rect width="1200" height="630" fill="url(#bg-1046138393)"/>

  <!-- Glow orbs -->
  <ellipse cx="842.0987174846232" cy="22.05666466616094" rx="350" ry="300" fill="url(#orb1-1046138393)"/>
  <ellipse cx="55.831889691762626" cy="443.0864723864943" rx="300" ry="280" fill="url(#orb2-1046138393)"/>

  <!-- Category decorations -->
  <path d="M0,456.7852118751034 Q50,435.62959055416286 100,472.922335145995 Q150,469.3753936793655 200,353.23914799373597 Q250,348.26181321404874 300,398.75875272555277 Q350,468.6348706483841 400,393.71214216807857 Q450,471.09731188975275 500,455.2377928746864 Q550,335.5241935700178 600,375.4617455066182 Q650,442.38946102559566 700,459.21172972302884 Q750,417.77100041508675 800,443.2802693801932 Q850,469.055587425828 900,436.5602874662727 Q950,321.9169808551669 1000,361.2729196436703 Q1050,496.9338654074818 1100,400.95507968217134 Q1150,452.5333332363516 1200,449.91259324597195 Q1250,301.224999781698 1300,408.82104702759534" fill="none" stroke="#66BB6A" stroke-width="2" opacity="0.08"/><rect x="185.58990837074816" y="231.53597665950656" width="8" height="60.922677889466286" rx="2" fill="#66BB6A" opacity="0.06"/><line x1="189.58990837074816" y1="211.53597665950656" x2="189.58990837074816" y2="312.45865454897285" stroke="#66BB6A" stroke-width="1" opacity="0.05"/><rect x="362.6134894043207" y="319.84587968327105" width="8" height="128.04898395203054" rx="2" fill="#66BB6A" opacity="0.06"/><line x1="366.6134894043207" y1="299.84587968327105" x2="366.6134894043207" y2="467.8948636353016" stroke="#66BB6A" stroke-width="1" opacity="0.05"/><rect x="523.3520849328488" y="352.3367465939373" width="8" height="165.07224379107356" rx="2" fill="#66BB6A" opacity="0.06"/><line x1="527.3520849328488" y1="332.3367465939373" x2="527.3520849328488" y2="537.4089903850108" stroke="#66BB6A" stroke-width="1" opacity="0.05"/><rect x="706.5818106010556" y="294.39699770882726" width="8" height="102.57124369964004" rx="2" fill="#66BB6A" opacity="0.06"/><line x1="710.5818106010556" y1="274.39699770882726" x2="710.5818106010556" y2="416.9682414084673" stroke="#66BB6A" stroke-width="1" opacity="0.05"/><rect x="898.6314158979803" y="287.0354025159031" width="8" height="167.39755645394325" rx="2" fill="#66BB6A" opacity="0.06"/><line x1="902.6314158979803" y1="267.0354025159031" x2="902.6314158979803" y2="474.43295896984637" stroke="#66BB6A" stroke-width="1" opacity="0.05"/><rect x="1074.1139283403754" y="365.32413149252534" width="8" height="144.30530816316605" rx="2" fill="#66BB6A" opacity="0.06"/><line x1="1078.1139283403754" y1="345.32413149252534" x2="1078.1139283403754" y2="529.6294396556914" stroke="#66BB6A" stroke-width="1" opacity="0.05"/>

  <!-- Large icon watermark -->
  <polyline points="922.0616789069027,325.2446624590084 981.6564417630434,229.89304188918322 1041.2512046191841,265.64989960286766 1100.8459674753249,158.37932646181434 1160.4407303314656,110.70351617690176" fill="none" stroke="#66BB6A" stroke-width="3" opacity="0.12" stroke-linecap="round" stroke-linejoin="round"/>

  <!-- Subtle grid overlay -->
  <rect width="1200" height="630" fill="url(#bg-1046138393)" opacity="0"/>

  <!-- Bottom gradient overlay for text readability -->
  <rect x="0" y="300" width="1200" height="330" fill="url(#bg-1046138393)" opacity="0.3"/>

  <!-- Accent line -->
  <rect x="80" y="240" width="60" height="4" rx="2" fill="url(#accent-line-1046138393)"/>

  <!-- Category badge -->
  <rect x="80" y="200" width="131" height="30" rx="15" fill="#66BB6A" opacity="0.2"/>
  <text x="96" y="220" font-family="'Fira Sans', 'Segoe UI', Arial, sans-serif" font-size="12" font-weight="700" fill="#66BB6A" letter-spacing="2" text-anchor="start">INVESTING</text>

  <!-- Title -->
  <text x="80" y="300" font-family="'Fira Sans', 'Segoe UI', Arial, sans-serif" font-size="42" font-weight="800" fill="white" letter-spacing="-0.5">The Case for Long-Term Crypto Holding:</text>
  <text x="80" y="352.5" font-family="'Fira Sans', 'Segoe UI', Arial, sans-serif" font-size="42" font-weight="800" fill="white" letter-spacing="-0.5">Why HODLing Still Works</text>

  <!-- Author bar -->
  <g transform="translate(80, 435)">
    <!-- Author avatar circle -->
    <circle cx="16" cy="12" r="16" fill="#66BB6A" opacity="0.2"/>
    <text x="16" y="17" font-family="'Fira Sans', Arial, sans-serif" font-size="13" font-weight="700" fill="#66BB6A" text-anchor="middle">YK</text>

    <text x="44" y="10" font-family="'Fira Sans', Arial, sans-serif" font-size="14" font-weight="600" fill="#66BB6A">Yosef Kamel</text>
    <text x="44" y="28" font-family="'Fira Sans', Arial, sans-serif" font-size="12" font-weight="400" fill="white" opacity="0.5">Crypto Pointers</text>
  </g>

  <!-- Branding: bottom bar -->
  <rect x="0" y="610" width="1200" height="20" fill="#66BB6A" opacity="0.08"/>
  <text x="1120" y="600" font-family="'Fira Sans', Arial, sans-serif" font-size="11" font-weight="600" fill="white" opacity="0.25" text-anchor="end">cryptopointers.com</text>

  <!-- Corner accent -->
  <rect x="0" y="0" width="4" height="630" fill="#66BB6A" opacity="0.3"/>
</svg>