<svg xmlns="http://www.w3.org/2000/svg" width="1200" height="630" viewBox="0 0 1200 630">
  <defs>
    <linearGradient id="bg-1462935248" x1="0" y1="0" x2="1" y2="1">
      <stop offset="0%" stop-color="#2d1a3d"/>
      <stop offset="100%" stop-color="#1a0d28"/>
    </linearGradient>
    <radialGradient id="orb1-1462935248" cx="50%" cy="50%" r="50%">
      <stop offset="0%" stop-color="#CE93D8" stop-opacity="0.25"/>
      <stop offset="100%" stop-color="#CE93D8" stop-opacity="0"/>
    </radialGradient>
    <radialGradient id="orb2-1462935248" cx="50%" cy="50%" r="50%">
      <stop offset="0%" stop-color="#D97706" stop-opacity="0.15"/>
      <stop offset="100%" stop-color="#D97706" stop-opacity="0"/>
    </radialGradient>
    <linearGradient id="accent-line-1462935248" x1="0" y1="0" x2="1" y2="0">
      <stop offset="0%" stop-color="#CE93D8"/>
      <stop offset="100%" stop-color="#D97706"/>
    </linearGradient>
  </defs>

  <!-- Background -->
  <rect width="1200" height="630" fill="url(#bg-1462935248)"/>

  <!-- Glow orbs -->
  <ellipse cx="1005.5922383908182" cy="59.63541837409139" rx="350" ry="300" fill="url(#orb1-1462935248)"/>
  <ellipse cx="130.59037066996098" cy="449.87162998877466" rx="300" ry="280" fill="url(#orb2-1462935248)"/>

  <!-- Category decorations -->
  <polygon points="841.7697926689871,340.4807839350309 844.1058145891807,347.20122027195606 851.2191998323323,347.3461801036397 845.5495555343251,351.644598010773 847.6098474694711,358.4546244506821 841.7697926689871,354.3907564782165 835.929737868503,358.4546244506821 837.990029803649,351.644598010773 832.3203855056419,347.3461801036397 839.4337707487934,347.20122027195606" fill="#CE93D8" opacity="0.04888427058234811"/><polygon points="1082.2962861144915,477.98052036073057 1083.2403551877233,480.69648635808244 1086.1151257350334,480.7550697526861 1083.8238219627083,482.4922124459422 1084.656458797571,485.2443849723354 1082.2962861144915,483.6020322027244 1079.936113431412,485.2443849723354 1080.7687502662748,482.4922124459422 1078.4774464939496,480.7550697526861 1081.3522170412598,480.69648635808244" fill="#CE93D8" opacity="0.08233287968207151"/><polygon points="1183.4209380680695,475.29779040962455 1185.9109645119759,482.46127806737115 1193.4933066158858,482.6157945173566 1187.449885487196,487.19758981781985 1189.6460041778353,494.45657389347843 1183.4209380680695,490.12479146091266 1177.1958719583038,494.45657389347843 1179.391990648943,487.19758981781985 1173.3485695202532,482.6157945173566 1180.9309116241632,482.46127806737115" fill="#CE93D8" opacity="0.06973262635525315"/><polygon points="752.9935163385235,477.1384370344225 755.5427314258096,484.47220285020535 763.305307978181,484.6303922005638 757.1182329943864,489.32109809060813 759.3665540567388,496.7526303015708 752.9935163385235,492.3178801570646 746.6204786203082,496.7526303015708 748.8687996826606,489.32109809060813 742.681724698866,484.6303922005638 750.4443012512373,484.47220285020535" fill="#CE93D8" opacity="0.051327704824507235"/><polygon points="1130.9255217746831,545.5844835153315 1133.0820577214947,551.7885616592714 1139.6488929244383,551.9223836432036 1134.4148702345851,555.8905367889512 1136.316861641712,562.1773214674031 1130.9255217746831,558.4256968401 1125.5341819076543,562.1773214674031 1127.4361733147812,555.8905367889512 1122.202150624928,551.9223836432036 1128.7689858278716,551.7885616592714" fill="#CE93D8" opacity="0.09135568654164672"/><polygon points="654.8738779602572,346.8054090147838 657.1840342460506,353.45143322920336 664.2186564346019,353.59478799118426 658.6117893499951,357.8456116077313 660.6492686747406,364.5802339375042 654.8738779602572,360.56136319829153 649.0984872457739,364.5802339375042 651.1359665705194,357.8456116077313 645.5290994859125,353.59478799118426 652.5637216744639,353.45143322920336" fill="#CE93D8" opacity="0.06346837771590799"/><polygon points="88.0947257517837,613.571009625541 88.973716644176,616.0997540187315 91.65031860101455,616.154299042779 89.51696289147604,617.771694050679 90.29220298276445,620.334149122648 88.0947257517837,618.8050098175742 85.89724852080295,620.334149122648 86.67248861209136,617.771694050679 84.53913290255285,616.154299042779 87.2157348593914,616.0997540187315" fill="#CE93D8" opacity="0.0493475997261703"/><polygon points="405.9027392473072,42.30918158367276 407.365539263839,46.51747017025439 411.8198896110383,46.60824296752582 408.26959939279965,49.29988114577295 409.5597392886368,53.56427040632223 405.9027392473072,51.01950569931418 402.24573920597754,53.56427040632223 403.5358791018147,49.29988114577295 399.98558888357604,46.60824296752582 404.43993923077534,46.51747017025439" fill="#CE93D8" opacity="0.06444907766766847"/><polygon points="534.1049462659284,347.31306965099645 536.0421034952005,352.88602327844296 541.9409118622157,353.00623190468605 537.2393325044434,356.57071529041804 538.9478393391088,362.2179619346237 534.1049462659284,358.8479801918939 529.2620531927481,362.2179619346237 530.9705600274135,356.57071529041804 526.2689806696412,353.00623190468605 532.1677890366564,352.88602327844296" fill="#CE93D8" opacity="0.08992927563376724"/><polygon points="258.4135025842115,228.0084574488923 259.5884536878656,231.38864152287238 263.16627963629014,231.46155210335533 260.31461340504296,233.62353132978907 261.3508803433466,237.04877662064712 258.4135025842115,235.0047691915743 255.47612482507643,237.04877662064712 256.5123917633801,233.62353132978907 253.66072553213294,231.46155210335533 257.2385514805575,231.38864152287238" fill="#CE93D8" opacity="0.04350694524589926"/><polygon points="208.90700031863526,217.4048134259414 210.4400274354531,221.8151363994947 215.1082252703515,221.91026707909126 211.38749029932177,224.73112725770824 212.73956811067984,229.2002442246251 208.90700031863526,226.5333087189682 205.07443252659067,229.2002442246251 206.42651033794874,224.73112725770824 202.705775366919,221.91026707909126 207.37397320181742,221.8151363994947" fill="#CE93D8" opacity="0.08914820482954383"/><polygon points="655.0994665510952,165.18873462602497 656.5848141977959,169.4618898612405 661.1078239947738,169.554061832315 657.5028095285667,172.28718897795727 658.812835667847,176.61730962410692 655.0994665510952,174.03331986047328 651.3860974343435,176.61730962410692 652.6961235736238,172.28718897795727 649.0911091074167,169.554061832315 653.6141189043946,169.4618898612405" fill="#CE93D8" opacity="0.08714634606614709"/><rect x="27.979223523288965" y="27.99554681405425" width="90.5974088376388" height="73.15539069473743" rx="8" fill="none" stroke="#CE93D8" stroke-width="1.5" opacity="0.06"/><rect x="123.94943973049521" y="69.10924764815718" width="128.3753373241052" height="70.97247338853776" rx="8" fill="none" stroke="#CE93D8" stroke-width="1.5" opacity="0.06"/><rect x="33.28983508981764" y="271.3396904291585" width="105.82482293248177" height="56.78871538490057" rx="8" fill="none" stroke="#CE93D8" stroke-width="1.5" opacity="0.06"/>

  <!-- Large icon watermark -->
  <polygon points="1005.4010877432302,125.0533000594005 1030.1437475973926,196.23476840037742 1105.4872492835107,197.7701528832289 1045.4355523593424,243.29810416992865 1067.2577373786362,315.4284923071069 1005.4010877432302,272.38484529946 943.5444381078242,315.4284923071069 965.3666231271179,243.29810416992865 905.3149262029496,197.77015288322883 980.6584278890678,196.23476840037742" fill="#CE93D8" opacity="0.1"/>

  <!-- Subtle grid overlay -->
  <rect width="1200" height="630" fill="url(#bg-1462935248)" opacity="0"/>

  <!-- Bottom gradient overlay for text readability -->
  <rect x="0" y="300" width="1200" height="330" fill="url(#bg-1462935248)" opacity="0.3"/>

  <!-- Accent line -->
  <rect x="80" y="240" width="60" height="4" rx="2" fill="url(#accent-line-1462935248)"/>

  <!-- Category badge -->
  <rect x="80" y="200" width="109" height="30" rx="15" fill="#CE93D8" opacity="0.2"/>
  <text x="96" y="220" font-family="'Fira Sans', 'Segoe UI', Arial, sans-serif" font-size="12" font-weight="700" fill="#CE93D8" letter-spacing="2" text-anchor="start">REVIEWS</text>

  <!-- Title -->
  <text x="80" y="300" font-family="'Fira Sans', 'Segoe UI', Arial, sans-serif" font-size="42" font-weight="800" fill="white" letter-spacing="-0.5">MetaMask vs Rabby: Which EVM Wallet Is</text>
  <text x="80" y="352.5" font-family="'Fira Sans', 'Segoe UI', Arial, sans-serif" font-size="42" font-weight="800" fill="white" letter-spacing="-0.5">Better in 2025?</text>

  <!-- Author bar -->
  <g transform="translate(80, 435)">
    <!-- Author avatar circle -->
    <circle cx="16" cy="12" r="16" fill="#CE93D8" opacity="0.2"/>
    <text x="16" y="17" font-family="'Fira Sans', Arial, sans-serif" font-size="13" font-weight="700" fill="#CE93D8" text-anchor="middle">YK</text>

    <text x="44" y="10" font-family="'Fira Sans', Arial, sans-serif" font-size="14" font-weight="600" fill="#CE93D8">Yosef Kamel</text>
    <text x="44" y="28" font-family="'Fira Sans', Arial, sans-serif" font-size="12" font-weight="400" fill="white" opacity="0.5">Crypto Pointers</text>
  </g>

  <!-- Branding: bottom bar -->
  <rect x="0" y="610" width="1200" height="20" fill="#CE93D8" opacity="0.08"/>
  <text x="1120" y="600" font-family="'Fira Sans', Arial, sans-serif" font-size="11" font-weight="600" fill="white" opacity="0.25" text-anchor="end">cryptopointers.com</text>

  <!-- Corner accent -->
  <rect x="0" y="0" width="4" height="630" fill="#CE93D8" opacity="0.3"/>
</svg>