<svg xmlns="http://www.w3.org/2000/svg" width="1200" height="630" viewBox="0 0 1200 630">
  <defs>
    <linearGradient id="bg-900233380" x1="0" y1="0" x2="1" y2="1">
      <stop offset="0%" stop-color="#2d1a3d"/>
      <stop offset="100%" stop-color="#1a0d28"/>
    </linearGradient>
    <radialGradient id="orb1-900233380" cx="50%" cy="50%" r="50%">
      <stop offset="0%" stop-color="#CE93D8" stop-opacity="0.25"/>
      <stop offset="100%" stop-color="#CE93D8" stop-opacity="0"/>
    </radialGradient>
    <radialGradient id="orb2-900233380" cx="50%" cy="50%" r="50%">
      <stop offset="0%" stop-color="#D97706" stop-opacity="0.15"/>
      <stop offset="100%" stop-color="#D97706" stop-opacity="0"/>
    </radialGradient>
    <linearGradient id="accent-line-900233380" x1="0" y1="0" x2="1" y2="0">
      <stop offset="0%" stop-color="#CE93D8"/>
      <stop offset="100%" stop-color="#D97706"/>
    </linearGradient>
  </defs>

  <!-- Background -->
  <rect width="1200" height="630" fill="url(#bg-900233380)"/>

  <!-- Glow orbs -->
  <ellipse cx="926.6168487491086" cy="-87.71619279868901" rx="350" ry="300" fill="url(#orb1-900233380)"/>
  <ellipse cx="136.08277833554894" cy="598.646840499714" rx="300" ry="280" fill="url(#orb2-900233380)"/>

  <!-- Category decorations -->
  <polygon points="119.97344677196816,392.7555939432699 122.14738155070042,399.0097263017054 128.76719767525387,399.14462795519256 123.49094713328245,403.1447959763334 125.40828371879883,409.4823021417625 119.97344677196816,405.7004095811024 114.53860982513748,409.4823021417625 116.45594641065387,403.1447959763334 111.17969586868243,399.14462795519256 117.7995119932359,399.0097263017054" fill="#CE93D8" opacity="0.06480454503092915"/><polygon points="554.192860243842,144.09275260344148 556.7774233913078,151.52821026809684 564.6476377905171,151.6885931119365 558.374771262512,156.44434151444415 560.6542681125065,163.9789212278048 554.192860243842,159.48267771784217 547.7314523751775,163.9789212278048 550.010949225172,156.44434151444415 543.7380826971669,151.6885931119365 551.6082970963762,151.52821026809684" fill="#CE93D8" opacity="0.08366753907874226"/><polygon points="744.4159014299512,368.7167108399793 745.5560869971597,371.99687891137773 749.0280489330149,372.0676321463889 746.2607604311767,374.1656407383365 747.2663653479725,377.4895367137858 744.4159014299512,375.5060092609003 741.5654375119299,377.4895367137858 742.5710424287257,374.1656407383365 739.8037539268875,372.0676321463889 743.2757158627427,371.99687891137773" fill="#CE93D8" opacity="0.08300238489639014"/><polygon points="450.6501877596602,443.9302442004904 453.4905587192471,452.10162822824486 462.1397296428345,452.2778850059153 455.2460045129299,457.50433484786606 457.7511151586274,465.78465155496843 450.6501877596602,460.84339117003606 443.549260360693,465.78465155496843 446.05437100639045,457.50433484786606 439.1606458764859,452.2778850059153 447.8098168000733,452.10162822824486" fill="#CE93D8" opacity="0.09768355892505497"/><polygon points="1043.0726659470238,20.01693722079508 1044.2462325895017,23.393138377014264 1047.8198427360044,23.465963045949337 1044.971536662616,25.62539478228456 1046.0065825532183,29.046604059125077 1043.0726659470238,27.00500511234626 1040.1387493408292,29.046604059125077 1041.1737952314315,25.62539478228456 1038.3254891580432,23.465963045949334 1041.8990993045459,23.393138377014264" fill="#CE93D8" opacity="0.0807184141408652"/><polygon points="886.530230092816,201.92378537878395 887.5629262073222,204.8947200403701 890.7075736261182,204.9588031098161 888.2011675061369,206.85902477847753 889.1119703790813,209.86956495508474 886.530230092816,208.07303187089042 883.9484898065508,209.86956495508474 884.8592926794952,206.85902477847753 882.3528865595139,204.9588031098161 885.4975339783099,204.8947200403701" fill="#CE93D8" opacity="0.06676304120570421"/><polygon points="144.29354706173763,102.32911646259018 146.67769063705043,109.18799264755793 153.93761040902717,109.33593862717376 148.15117240065345,113.72290321372688 150.25390600001964,120.67321504259611 144.29354706173763,116.52563207956031 138.3331881234556,120.67321504259611 140.4359217228218,113.72290321372688 134.64948371444808,109.33593862717376 141.90940348642482,109.18799264755793" fill="#CE93D8" opacity="0.050803651474416255"/><polygon points="426.13761563180014,54.36606629132293 428.335317138658,60.68857248731725 435.02750496985743,60.82494896468297 429.6935713670231,64.86884916525499 431.63186939894484,71.2756406595273 426.13761563180014,67.45240223459899 420.64336186465545,71.2756406595273 422.5816598965772,64.86884916525499 417.24772629374286,60.82494896468297 423.9399141249423,60.68857248731725" fill="#CE93D8" opacity="0.09960190944373608"/><polygon points="336.687807881739,212.05152037120425 338.64145618412437,217.67191670714038 344.5904812700467,217.793148672746 339.8488772370621,221.38797660420556 341.57192863770246,227.08329841540893 336.687807881739,223.68462792482228 331.8036871257755,227.08329841540893 333.5267385264159,221.38797660420556 328.78513449343126,217.793148672746 334.7341595793536,217.67191670714038" fill="#CE93D8" opacity="0.05632365594152361"/><polygon points="119.62925558537245,269.3981411769986 121.68857621721459,275.32254329154057 127.95938252550869,275.45033266269076 122.96130636142694,279.2396039036496 124.77755716497781,285.2429841929634 119.62925558537245,281.66048049792647 114.4809540057671,285.2429841929634 116.29720480931796,279.2396039036496 111.29912864523621,275.45033266269076 117.5699349535303,275.32254329154057" fill="#CE93D8" opacity="0.08764125083107502"/><polygon points="645.2070748675615,580.8356312896125 647.2106862559556,586.5997650347808 653.3118531842317,586.7240974167291 648.4489861942295,590.4108603688917 650.2161033385468,596.2518357520063 645.2070748675615,592.7662468197383 640.1980463965762,596.2518357520063 641.9651635408934,590.4108603688917 637.1022965508912,586.7240974167291 643.2034634791673,586.5997650347808" fill="#CE93D8" opacity="0.07476989290677011"/><polygon points="26.414957606233656,211.0261416748166 27.965843572871368,215.48784227553503 32.68842312297129,215.58408117070164 28.92434381292871,218.43780268473805 30.292172522827936,222.95898219370915 26.414957606233656,220.26097848309203 22.537742689639376,222.95898219370915 23.9055713995386,218.43780268473805 20.141492089496023,215.58408117070164 24.864071639595945,215.48784227553503" fill="#CE93D8" opacity="0.06970012912992388"/><rect x="0.9875718969851732" y="3.955985768698156" width="83.96929876413196" height="72.07086239010096" rx="8" fill="none" stroke="#CE93D8" stroke-width="1.5" opacity="0.06"/><rect x="320.52806159481406" y="305.9227525955066" width="93.58290253207088" height="57.68184730783105" rx="8" fill="none" stroke="#CE93D8" stroke-width="1.5" opacity="0.06"/><rect x="294.72280922345817" y="394.77464323863387" width="111.41659786459059" height="81.80427551269531" rx="8" fill="none" stroke="#CE93D8" stroke-width="1.5" opacity="0.06"/>

  <!-- Large icon watermark -->
  <polygon points="1005.4689651774243,100.81065728049725 1025.2255719999819,157.6478886595819 1085.38611853059,158.87386790869843 1037.4358265186906,195.22718797653135 1054.8604822338184,252.82211620107208 1005.4689651774243,218.45247222781182 956.0774481210302,252.82211620107208 973.502103836158,195.22718797653135 925.5518118242585,158.8738679086984 985.7123583548666,157.6478886595819" fill="#CE93D8" opacity="0.1"/>

  <!-- Subtle grid overlay -->
  <rect width="1200" height="630" fill="url(#bg-900233380)" opacity="0"/>

  <!-- Bottom gradient overlay for text readability -->
  <rect x="0" y="300" width="1200" height="330" fill="url(#bg-900233380)" opacity="0.3"/>

  <!-- Accent line -->
  <rect x="80" y="240" width="60" height="4" rx="2" fill="url(#accent-line-900233380)"/>

  <!-- Category badge -->
  <rect x="80" y="200" width="109" height="30" rx="15" fill="#CE93D8" opacity="0.2"/>
  <text x="96" y="220" font-family="'Fira Sans', 'Segoe UI', Arial, sans-serif" font-size="12" font-weight="700" fill="#CE93D8" letter-spacing="2" text-anchor="start">REVIEWS</text>

  <!-- Title -->
  <text x="80" y="300" font-family="'Fira Sans', 'Segoe UI', Arial, sans-serif" font-size="42" font-weight="800" fill="white" letter-spacing="-0.5">OpenSea vs Blur: Which NFT Marketplace</text>
  <text x="80" y="352.5" font-family="'Fira Sans', 'Segoe UI', Arial, sans-serif" font-size="42" font-weight="800" fill="white" letter-spacing="-0.5">Should You Use?</text>

  <!-- Author bar -->
  <g transform="translate(80, 435)">
    <!-- Author avatar circle -->
    <circle cx="16" cy="12" r="16" fill="#CE93D8" opacity="0.2"/>
    <text x="16" y="17" font-family="'Fira Sans', Arial, sans-serif" font-size="13" font-weight="700" fill="#CE93D8" text-anchor="middle">YK</text>

    <text x="44" y="10" font-family="'Fira Sans', Arial, sans-serif" font-size="14" font-weight="600" fill="#CE93D8">Yosef Kamel</text>
    <text x="44" y="28" font-family="'Fira Sans', Arial, sans-serif" font-size="12" font-weight="400" fill="white" opacity="0.5">Crypto Pointers</text>
  </g>

  <!-- Branding: bottom bar -->
  <rect x="0" y="610" width="1200" height="20" fill="#CE93D8" opacity="0.08"/>
  <text x="1120" y="600" font-family="'Fira Sans', Arial, sans-serif" font-size="11" font-weight="600" fill="white" opacity="0.25" text-anchor="end">cryptopointers.com</text>

  <!-- Corner accent -->
  <rect x="0" y="0" width="4" height="630" fill="#CE93D8" opacity="0.3"/>
</svg>