<svg xmlns="http://www.w3.org/2000/svg" width="1200" height="630" viewBox="0 0 1200 630">
  <defs>
    <linearGradient id="bg-1593343764" x1="0" y1="0" x2="1" y2="1">
      <stop offset="0%" stop-color="#2d1a3d"/>
      <stop offset="100%" stop-color="#1a0d28"/>
    </linearGradient>
    <radialGradient id="orb1-1593343764" cx="50%" cy="50%" r="50%">
      <stop offset="0%" stop-color="#CE93D8" stop-opacity="0.25"/>
      <stop offset="100%" stop-color="#CE93D8" stop-opacity="0"/>
    </radialGradient>
    <radialGradient id="orb2-1593343764" cx="50%" cy="50%" r="50%">
      <stop offset="0%" stop-color="#D97706" stop-opacity="0.15"/>
      <stop offset="100%" stop-color="#D97706" stop-opacity="0"/>
    </radialGradient>
    <linearGradient id="accent-line-1593343764" x1="0" y1="0" x2="1" y2="0">
      <stop offset="0%" stop-color="#CE93D8"/>
      <stop offset="100%" stop-color="#D97706"/>
    </linearGradient>
  </defs>

  <!-- Background -->
  <rect width="1200" height="630" fill="url(#bg-1593343764)"/>

  <!-- Glow orbs -->
  <ellipse cx="848.7761598080397" cy="83.4070879034698" rx="350" ry="300" fill="url(#orb1-1593343764)"/>
  <ellipse cx="80.46928099356592" cy="498.0804132297635" rx="300" ry="280" fill="url(#orb2-1593343764)"/>

  <!-- Category decorations -->
  <polygon points="713.0746939158998,5.036403163662181 715.032079172923,10.66755024021403 720.992483603253,10.789014099326568 716.2418097908411,14.390718247397755 717.9681570584576,20.096934117285883 713.0746939158998,16.69176262166351 708.1812307733421,20.096934117285883 709.9075780409586,14.390718247397755 705.1569042285466,10.789014099326566 711.1173086588767,10.66755024021403" fill="#CE93D8" opacity="0.0838972757011652"/><polygon points="526.0314026717097,136.29851062186063 528.7837036537436,144.21652858647045 537.1646940122112,144.3873202574088 530.4847192079103,149.45171615400827 532.9121551267945,157.47528917625337 526.0314026717097,152.68724000822752 519.1506502166249,157.47528917625337 521.578086135509,149.45171615400827 514.8981113312082,144.3873202574088 523.2791016896757,144.21652858647045" fill="#CE93D8" opacity="0.0933812448848039"/><polygon points="475.00703333038837,367.6706957985647 477.3076193413614,374.2891875561604 484.31309922988044,374.43194844296613 478.7294596901852,378.6651621902271 480.7584983578208,385.3718850281328 475.00703333038837,381.3696632479876 469.2555683029559,385.3718850281328 471.28460697059154,378.6651621902271 465.7009674308963,374.43194844296613 472.70644731941536,374.2891875561604" fill="#CE93D8" opacity="0.07050929170101881"/><polygon points="407.4139959164895,76.83834387906828 410.3471231479357,85.2765758394094 419.27874480100894,85.4585885277758 412.1598954702973,90.85571537258868 414.7468139951049,99.406437360724 407.4139959164895,94.3038132320717 400.0811778378741,99.406437360724 402.66809636268175,90.85571537258869 395.5492470319701,85.4585885277758 404.48086868504333,85.2765758394094" fill="#CE93D8" opacity="0.07453910903539508"/><polygon points="769.7601402560249,576.7232411067001 771.0427258768608,580.4130759224491 774.9483080760108,580.4926656703487 771.8354073840193,582.852698747254 772.9666043081146,586.591722732361 769.7601402560249,584.3604685727134 766.5536762039352,586.591722732361 767.6848731280305,582.852698747254 764.571972436039,580.4926656703487 768.477554635189,580.4130759224491" fill="#CE93D8" opacity="0.05922380881384015"/><polygon points="1192.2256705034524,201.96802713125945 1194.8620566254267,209.55257286652062 1202.8900763855097,209.71617154048465 1196.4914328562754,214.56727726806815 1198.8166358083881,222.25293254435354 1192.2256705034524,217.66653503175826 1185.6347051985167,222.25293254435354 1187.9599081506294,214.56727726806815 1181.5612646213951,209.71617154048465 1189.5892843814781,209.55257286652062" fill="#CE93D8" opacity="0.07512241248041392"/><polygon points="120.49784542620182,114.96265792855993 121.53978815012049,117.9601939029815 124.71259228027947,118.02485076282414 122.18374416783287,119.94208673735984 123.10270223599849,122.97958284877001 120.49784542620182,121.16696387106553 117.89298861640515,122.97958284877001 118.81194668457077,119.94208673735984 116.28309857212417,118.02485076282413 119.45590270228315,117.9601939029815" fill="#CE93D8" opacity="0.04034805248025805"/><polygon points="1049.291269205045,237.4673633699771 1050.4898120339083,240.91541782050507 1054.1394767902284,240.98979236521112 1051.2305522391184,243.19518175540378 1052.2876262772033,246.6892022024579 1049.291269205045,244.6041533534974 1046.2949121328866,246.6892022024579 1047.3519861709715,243.19518175540378 1044.4430616198615,240.98979236521112 1048.0927263761816,240.91541782050507" fill="#CE93D8" opacity="0.07491610172670335"/><polygon points="110.45201732870191,486.3564907783642 111.80219680499668,490.2407844724533 115.91360803759561,490.32456869893446 112.6366536122594,492.80897845064953 113.82746601943884,496.74505364442507 110.45201732870191,494.3962096188776 107.07656863796498,496.74505364442507 108.26738104514443,492.80897845064953 104.99042661980822,490.32456869893446 109.10183785240714,490.2407844724533" fill="#CE93D8" opacity="0.06305042192339896"/><polygon points="1166.2946138889529,271.04492023945784 1169.2480224276005,279.54149892707045 1178.2414023844433,279.7247701545168 1171.0733292871491,285.1592157989958 1173.6781352355722,293.76906233433016 1166.2946138889529,288.63115576501934 1158.9110925423336,293.76906233433016 1161.5158984907566,285.1592157989958 1154.3478253934625,279.7247701545168 1163.3412053503052,279.54149892707045" fill="#CE93D8" opacity="0.09185721288435161"/><polygon points="1098.795944869984,78.19303720942699 1101.0055437245248,84.54977055328803 1107.7339599903592,84.68688531033456 1102.371150918134,88.752677331307 1104.3199420063363,95.19415225538198 1098.795944869984,91.35021657167003 1093.2719477336316,95.19415225538198 1095.220738821834,88.752677331307 1089.8579297496087,84.68688531033456 1096.586346015443,84.54977055328803" fill="#CE93D8" opacity="0.09394473084248603"/><polygon points="475.4641737076454,172.0522848957684 477.0027597566823,176.4786002064469 481.68788501254073,176.5740758408026 477.95365822960355,179.40516478208164 479.3106388302377,183.89048727988944 475.4641737076454,181.21388116009533 471.6177085850531,183.89048727988944 472.9746891856872,179.40516478208164 469.24046240275004,176.57407584080258 473.9255876586085,176.4786002064469" fill="#CE93D8" opacity="0.05982383407186717"/><rect x="564.3586909864098" y="234.70678075682372" width="124.51379411388189" height="61.01103229448199" rx="8" fill="none" stroke="#CE93D8" stroke-width="1.5" opacity="0.06"/><rect x="451.87583146616817" y="257.17797176912427" width="93.11422855593264" height="65.98781889304519" rx="8" fill="none" stroke="#CE93D8" stroke-width="1.5" opacity="0.06"/><rect x="203.64173781126738" y="230.0223575439304" width="133.54128054808825" height="84.68172904103994" rx="8" fill="none" stroke="#CE93D8" stroke-width="1.5" opacity="0.06"/>

  <!-- Large icon watermark -->
  <polygon points="1008.861957155168,133.89690971840173 1034.4871240600069,207.61723799031074 1112.5179347037135,209.20738568938881 1050.3243481745862,256.35920192230645 1072.924874417265,331.06229551937815 1008.861957155168,286.48339231070133 944.799039893071,331.06229551937815 967.3995661357499,256.35920192230645 905.2059796066227,209.2073856893888 983.2367902503292,207.61723799031074" fill="#CE93D8" opacity="0.1"/>

  <!-- Subtle grid overlay -->
  <rect width="1200" height="630" fill="url(#bg-1593343764)" opacity="0"/>

  <!-- Bottom gradient overlay for text readability -->
  <rect x="0" y="300" width="1200" height="330" fill="url(#bg-1593343764)" opacity="0.3"/>

  <!-- Accent line -->
  <rect x="80" y="240" width="60" height="4" rx="2" fill="url(#accent-line-1593343764)"/>

  <!-- Category badge -->
  <rect x="80" y="200" width="109" height="30" rx="15" fill="#CE93D8" opacity="0.2"/>
  <text x="96" y="220" font-family="'Fira Sans', 'Segoe UI', Arial, sans-serif" font-size="12" font-weight="700" fill="#CE93D8" letter-spacing="2" text-anchor="start">REVIEWS</text>

  <!-- Title -->
  <text x="80" y="300" font-family="'Fira Sans', 'Segoe UI', Arial, sans-serif" font-size="42" font-weight="800" fill="white" letter-spacing="-0.5">Phantom Wallet Review: The Best Solana</text>
  <text x="80" y="352.5" font-family="'Fira Sans', 'Segoe UI', Arial, sans-serif" font-size="42" font-weight="800" fill="white" letter-spacing="-0.5">Wallet in 2025?</text>

  <!-- Author bar -->
  <g transform="translate(80, 435)">
    <!-- Author avatar circle -->
    <circle cx="16" cy="12" r="16" fill="#CE93D8" opacity="0.2"/>
    <text x="16" y="17" font-family="'Fira Sans', Arial, sans-serif" font-size="13" font-weight="700" fill="#CE93D8" text-anchor="middle">YK</text>

    <text x="44" y="10" font-family="'Fira Sans', Arial, sans-serif" font-size="14" font-weight="600" fill="#CE93D8">Yosef Kamel</text>
    <text x="44" y="28" font-family="'Fira Sans', Arial, sans-serif" font-size="12" font-weight="400" fill="white" opacity="0.5">Crypto Pointers</text>
  </g>

  <!-- Branding: bottom bar -->
  <rect x="0" y="610" width="1200" height="20" fill="#CE93D8" opacity="0.08"/>
  <text x="1120" y="600" font-family="'Fira Sans', Arial, sans-serif" font-size="11" font-weight="600" fill="white" opacity="0.25" text-anchor="end">cryptopointers.com</text>

  <!-- Corner accent -->
  <rect x="0" y="0" width="4" height="630" fill="#CE93D8" opacity="0.3"/>
</svg>