<svg xmlns="http://www.w3.org/2000/svg" width="1200" height="630" viewBox="0 0 1200 630">
  <defs>
    <linearGradient id="bg-1233858596" x1="0" y1="0" x2="1" y2="1">
      <stop offset="0%" stop-color="#2d1a3d"/>
      <stop offset="100%" stop-color="#1a0d28"/>
    </linearGradient>
    <radialGradient id="orb1-1233858596" cx="50%" cy="50%" r="50%">
      <stop offset="0%" stop-color="#CE93D8" stop-opacity="0.25"/>
      <stop offset="100%" stop-color="#CE93D8" stop-opacity="0"/>
    </radialGradient>
    <radialGradient id="orb2-1233858596" cx="50%" cy="50%" r="50%">
      <stop offset="0%" stop-color="#D97706" stop-opacity="0.15"/>
      <stop offset="100%" stop-color="#D97706" stop-opacity="0"/>
    </radialGradient>
    <linearGradient id="accent-line-1233858596" x1="0" y1="0" x2="1" y2="0">
      <stop offset="0%" stop-color="#CE93D8"/>
      <stop offset="100%" stop-color="#D97706"/>
    </linearGradient>
  </defs>

  <!-- Background -->
  <rect width="1200" height="630" fill="url(#bg-1233858596)"/>

  <!-- Glow orbs -->
  <ellipse cx="1011.721681104973" cy="-16.77020131610334" rx="350" ry="300" fill="url(#orb1-1233858596)"/>
  <ellipse cx="138.4648362873122" cy="574.1292094346136" rx="300" ry="280" fill="url(#orb2-1233858596)"/>

  <!-- Category decorations -->
  <polygon points="287.8165727048181,264.48422371209597 289.979001882188,270.70525592673346 296.5637824729406,270.8394436100209 291.31545661206707,274.8184406470623 293.22264564824286,281.122405410843 287.8165727048181,277.36052860623226 282.41049976139334,281.122405410843 284.31768879756913,274.8184406470623 279.0693629366956,270.8394436100209 285.6541435274482,270.70525592673346" fill="#CE93D8" opacity="0.08040042061824351"/><polygon points="649.1940843160264,179.66161974924617 651.426082656047,186.08279354841486 658.2227072584932,186.22129828627317 652.8055334930132,190.328306679688 654.774080166078,196.83508111445605 649.1940843160264,192.9521780944988 643.6140884659749,196.83508111445605 645.5826351390397,190.328306679688 640.1654613735597,186.22129828627317 646.9620859760058,186.08279354841486" fill="#CE93D8" opacity="0.0528258318407461"/><polygon points="73.07875911798328,5.5800760664045805 74.20430454373036,8.818126322980719 77.63168600483512,8.88797107660149 74.89992987272402,10.959040946066631 75.89262268235096,14.240257634316267 73.07875911798328,12.282198950145395 70.2648955536156,14.240257634316267 71.25758836324255,10.959040946066631 68.52583223113145,8.887971076601488 71.9532136922362,8.818126322980719" fill="#CE93D8" opacity="0.09679334562737495"/><polygon points="50.71291055623442,477.0767773902975 53.43690949390472,484.9133739925021 61.731717722407296,485.0824094044123 55.12043342270357,490.09472787260694 57.52290790041017,498.03579410467444 50.71291055623442,493.29698067825285 43.90291321205867,498.03579410467444 46.30538768976527,490.09472787260694 39.69410339006154,485.0824094044123 47.98891161856412,484.9133739925021" fill="#CE93D8" opacity="0.057123999339528386"/><polygon points="661.0641280570999,368.7706300235353 663.0738970892995,374.5524785225006 669.19381456619,374.67719301174077 664.316002660736,378.375286391144 666.088550637599,384.2342126833493 661.0641280570999,380.7379115864262 656.0397054766007,384.2342126833493 657.8122534534638,378.375286391144 652.9344415480098,374.67719301174077 659.0543590249002,374.5524785225006" fill="#CE93D8" opacity="0.09324110499583185"/><polygon points="210.0968989599496,125.03546823337675 211.33640556408074,128.60137022695523 215.11080849685993,128.67828674351375 212.10246277471373,130.9590518926548 213.19566547027745,134.5724909077627 210.0968989599496,132.4161792967096 206.99813244962178,134.5724909077627 208.0913351451855,130.9590518926548 205.0829894230393,128.67828674351375 208.8573923558185,128.60137022695523" fill="#CE93D8" opacity="0.08565956765785813"/><polygon points="703.4312557950616,247.01769220698625 705.9432012235476,254.24423798039695 713.5922884979996,254.40011459412398 707.4956688762368,259.02224211707573 709.7111193662765,266.345124935821 703.4312557950616,261.9752110719308 697.1513922238466,266.345124935821 699.3668427138864,259.02224211707573 693.2702230921236,254.40011459412398 700.9193103665756,254.24423798039695" fill="#CE93D8" opacity="0.09663118682801723"/><polygon points="570.8957361392677,116.87736524837092 572.233822251843,120.72686788152286 576.3084081643204,120.80990166471662 573.0608049492888,123.27205891498049 574.240951420706,127.17287924836067 570.8957361392677,124.84507348151878 567.5505208578294,127.17287924836067 568.7306673292466,123.27205891498049 565.4830641142149,120.80990166471662 569.5576500266924,120.72686788152288" fill="#CE93D8" opacity="0.07079762123525143"/><polygon points="1006.7175724785775,323.6407988216728 1009.1839045861852,330.7361209038896 1016.6940954227139,330.88916702220916 1010.7081816562321,335.4273633484663 1012.883402747597,342.6172731336509 1006.7175724785775,338.32671062868087 1000.551742209558,342.6172731336509 1002.7269633009229,335.4273633484663 996.7410495344411,330.88916702220916 1004.2512403709698,330.7361209038896" fill="#CE93D8" opacity="0.06035637348424643"/><polygon points="763.5895179663785,435.02874166783874 764.9253864013275,438.8718643260537 768.9932192969927,438.9547604931692 765.7509984986242,441.41283708599633 766.9291890537511,445.30719239302573 763.5895179663785,442.9832446161285 760.2498468790059,445.30719239302573 761.4280374341328,441.41283708599633 758.1858166357642,438.9547604931692 762.2536495314295,438.8718643260537" fill="#CE93D8" opacity="0.0645546105504036"/><polygon points="381.8199281403795,255.58871258338914 384.4526963293471,263.16284998804656 392.46969917600217,263.3262241542887 386.07983655462857,268.170672672071 388.40184861279846,275.84578086434976 381.8199281403795,271.2656773004308 375.2380076679605,275.84578086434976 377.5600197261304,268.170672672071 371.1701571047568,263.3262241542887 379.1871599514119,263.16284998804656" fill="#CE93D8" opacity="0.09615403473842889"/><polygon points="781.8395948791876,464.0651146211661 782.8715276396726,467.0338532108504 786.0138505806109,467.097888911019 783.509297159757,468.9967059633259 784.4194267804003,472.00502079220774 781.8395948791876,470.209815679267 779.259762977975,472.00502079220774 780.1698925986183,468.9967059633259 777.6653391777644,467.097888911019 780.8076621187026,467.0338532108504" fill="#CE93D8" opacity="0.05937417638488114"/><rect x="396.16821869276464" y="84.98590474482626" width="114.61678231600672" height="53.58359659090638" rx="8" fill="none" stroke="#CE93D8" stroke-width="1.5" opacity="0.06"/><rect x="571.175395976752" y="421.7040129005909" width="136.454992685467" height="85.9952204208821" rx="8" fill="none" stroke="#CE93D8" stroke-width="1.5" opacity="0.06"/><rect x="820.4553020186722" y="195.17761934548616" width="106.13463964313269" height="73.67263401858509" rx="8" fill="none" stroke="#CE93D8" stroke-width="1.5" opacity="0.06"/>

  <!-- Large icon watermark -->
  <polygon points="1001.7190438881516,121.11809879262 1022.2746902035146,180.25406461236543 1084.868379885599,181.52962757017255 1034.9787782871306,219.3532273621344 1053.1081596765594,279.27753444459495 1001.7190438881516,243.51783887315543 950.329928099744,279.27753444459495 968.4593094891727,219.3532273621344 918.5697078907043,181.52962757017252 981.1633975727887,180.25406461236543" fill="#CE93D8" opacity="0.1"/>

  <!-- Subtle grid overlay -->
  <rect width="1200" height="630" fill="url(#bg-1233858596)" opacity="0"/>

  <!-- Bottom gradient overlay for text readability -->
  <rect x="0" y="300" width="1200" height="330" fill="url(#bg-1233858596)" opacity="0.3"/>

  <!-- Accent line -->
  <rect x="80" y="240" width="60" height="4" rx="2" fill="url(#accent-line-1233858596)"/>

  <!-- Category badge -->
  <rect x="80" y="200" width="109" height="30" rx="15" fill="#CE93D8" opacity="0.2"/>
  <text x="96" y="220" font-family="'Fira Sans', 'Segoe UI', Arial, sans-serif" font-size="12" font-weight="700" fill="#CE93D8" letter-spacing="2" text-anchor="start">REVIEWS</text>

  <!-- Title -->
  <text x="80" y="300" font-family="'Fira Sans', 'Segoe UI', Arial, sans-serif" font-size="42" font-weight="800" fill="white" letter-spacing="-0.5">Polygon Network Review 2025: Ethereum</text>
  <text x="80" y="352.5" font-family="'Fira Sans', 'Segoe UI', Arial, sans-serif" font-size="42" font-weight="800" fill="white" letter-spacing="-0.5">Scaling Solution Analysis</text>

  <!-- Author bar -->
  <g transform="translate(80, 435)">
    <!-- Author avatar circle -->
    <circle cx="16" cy="12" r="16" fill="#CE93D8" opacity="0.2"/>
    <text x="16" y="17" font-family="'Fira Sans', Arial, sans-serif" font-size="13" font-weight="700" fill="#CE93D8" text-anchor="middle">YK</text>

    <text x="44" y="10" font-family="'Fira Sans', Arial, sans-serif" font-size="14" font-weight="600" fill="#CE93D8">Yosef Kamel</text>
    <text x="44" y="28" font-family="'Fira Sans', Arial, sans-serif" font-size="12" font-weight="400" fill="white" opacity="0.5">Crypto Pointers</text>
  </g>

  <!-- Branding: bottom bar -->
  <rect x="0" y="610" width="1200" height="20" fill="#CE93D8" opacity="0.08"/>
  <text x="1120" y="600" font-family="'Fira Sans', Arial, sans-serif" font-size="11" font-weight="600" fill="white" opacity="0.25" text-anchor="end">cryptopointers.com</text>

  <!-- Corner accent -->
  <rect x="0" y="0" width="4" height="630" fill="#CE93D8" opacity="0.3"/>
</svg>