<svg xmlns="http://www.w3.org/2000/svg" width="1200" height="630" viewBox="0 0 1200 630">
  <defs>
    <linearGradient id="bg-981507613" x1="0" y1="0" x2="1" y2="1">
      <stop offset="0%" stop-color="#2d1a3d"/>
      <stop offset="100%" stop-color="#1a0d28"/>
    </linearGradient>
    <radialGradient id="orb1-981507613" cx="50%" cy="50%" r="50%">
      <stop offset="0%" stop-color="#CE93D8" stop-opacity="0.25"/>
      <stop offset="100%" stop-color="#CE93D8" stop-opacity="0"/>
    </radialGradient>
    <radialGradient id="orb2-981507613" cx="50%" cy="50%" r="50%">
      <stop offset="0%" stop-color="#D97706" stop-opacity="0.15"/>
      <stop offset="100%" stop-color="#D97706" stop-opacity="0"/>
    </radialGradient>
    <linearGradient id="accent-line-981507613" x1="0" y1="0" x2="1" y2="0">
      <stop offset="0%" stop-color="#CE93D8"/>
      <stop offset="100%" stop-color="#D97706"/>
    </linearGradient>
  </defs>

  <!-- Background -->
  <rect width="1200" height="630" fill="url(#bg-981507613)"/>

  <!-- Glow orbs -->
  <ellipse cx="1059.5674398820847" cy="-78.1427969224751" rx="350" ry="300" fill="url(#orb1-981507613)"/>
  <ellipse cx="11.563395662233233" cy="476.3904244173318" rx="300" ry="280" fill="url(#orb2-981507613)"/>

  <!-- Category decorations -->
  <polygon points="675.8954132590443,50.2430864228867 677.9712291670179,56.21494333746407 684.2922649927666,56.34375630879151 679.2541539525332,60.163379829278846 681.0849530289781,66.21484753832844 675.8954132590443,62.603647783640774 670.7058734891104,66.21484753832844 672.5366725655554,60.163379829278846 667.498561525322,56.34375630879151 673.8195973510707,56.21494333746408" fill="#CE93D8" opacity="0.06864602579269558"/><polygon points="1036.613090807572,393.6426938610151 1038.5794440298168,399.29964062669825 1044.5671566762721,399.4216609851817 1039.794717155052,403.03986671740614 1041.528973863184,408.7722262119514 1036.613090807572,405.3514535670727 1031.69720775196,408.7722262119514 1033.431464460092,403.03986671740614 1028.6590249388719,399.4216609851817 1034.6467375853272,399.29964062669825" fill="#CE93D8" opacity="0.09967996816616506"/><polygon points="284.69447164423764,494.0650630594231 287.39872462127374,501.8448530579711 295.63340472179385,502.01266315127225 289.0700448752601,506.9886478890126 291.4551040868279,514.872150228876 284.69447164423764,510.16768792575226 277.9338392016474,514.872150228876 280.31889841321515,506.9886478890126 273.7555385666814,502.01266315127225 281.99021866720153,501.8448530579711" fill="#CE93D8" opacity="0.044608913189731536"/><polygon points="667.0895759863779,537.1252944847569 669.8294326066106,545.0075116118335 678.1725288259726,545.1775310586002 671.5227571222158,550.2190285966068 673.9392175369596,558.2063235205337 667.0895759863779,553.4399232261442 660.2399344357962,558.2063235205337 662.65639485054,550.2190285966068 656.0066231467832,545.1775310586002 664.3497193661452,545.0075116118335" fill="#CE93D8" opacity="0.09976359813008456"/><polygon points="463.7211088356562,523.3672351835761 465.22220877218194,527.6857077422356 469.7931856301785,527.778857208111 466.1499395534651,530.5409694947218 467.4738586769705,534.9170115893262 463.7211088356562,532.3056183045358 459.9683589943419,534.9170115893262 461.2922781178473,530.5409694947218 457.64903204113386,527.778857208111 462.22000889913045,527.6857077422356" fill="#CE93D8" opacity="0.09848311461973935"/><polygon points="255.85831416863948,504.33328909948466 257.93743971077345,510.31466740830984 264.26855365376656,510.4436857561394 259.22240996269034,514.2693991983942 261.05612802397445,520.3305152313504 255.85831416863948,516.7135578610562 250.66050031330454,520.3305152313504 252.49421837458866,514.2693991983942 247.4480746835124,510.4436857561394 253.77918862650552,510.31466740830984" fill="#CE93D8" opacity="0.07852976666297763"/><polygon points="915.4968726737425,372.0629717205651 917.6942159160416,378.3844472352383 924.3853128012172,378.5208014808049 919.0522487247324,382.5640424534897 920.9902307794903,388.9697895264334 915.4968726737425,385.1471743575856 910.0035145679947,388.9697895264334 911.9414966227525,382.5640424534897 906.6084325462677,378.5208014808049 913.2995294314434,378.3844472352383" fill="#CE93D8" opacity="0.07473496298771351"/><polygon points="633.1652260581031,573.1623869222589 635.6996525572283,580.4536078610481 643.4171966020353,580.6108795182838 637.266014275676,585.2743735351762 639.501292305916,592.6627937036042 633.1652260581031,588.2537705735863 626.8291598102903,592.6627937036042 629.0644378405303,585.2743735351762 622.9132555141709,580.6108795182838 630.630799558978,580.4536078610481" fill="#CE93D8" opacity="0.098304528798908"/><polygon points="1041.8116672905162,358.1415369618684 1044.2590196845038,365.1822568351012 1051.711415680317,365.33412518361126 1045.7715666464364,369.83739771904607 1047.9300482754852,376.9719773934734 1041.8116672905162,372.7144330077432 1035.6932863055472,376.9719773934734 1037.851767934596,369.83739771904607 1031.9119189007154,365.33412518361126 1039.3643148965286,365.1822568351012" fill="#CE93D8" opacity="0.04296123692765832"/><polygon points="841.6624987577088,255.49719112538733 843.2758087024185,260.1384775283212 848.1884745700303,260.2385900897732 844.2728890826374,263.2071753997611 845.6957736194832,267.91033476837316 841.6624987577088,265.1037349855155 837.6292238959344,267.91033476837316 839.0521084327802,263.2071753997611 835.1365229453874,260.2385900897732 840.0491888129991,260.1384775283212" fill="#CE93D8" opacity="0.09872955091297626"/><polygon points="572.8450369122438,444.35340391038915 575.0860800291089,450.8005983759049 581.9102467455979,450.9396643796133 576.4711208455855,455.06331569509064 578.4476447044065,461.5964576775778 572.8450369122438,457.6978198827803 567.2424291200812,461.5964576775778 569.2189529789022,455.06331569509064 563.7798270788898,450.9396643796133 570.6039937953788,450.8005983759049" fill="#CE93D8" opacity="0.07889738583005965"/><polygon points="1146.4975196481682,554.1473888939712 1148.6218360292733,560.2587754675698 1155.0905599168832,560.3905980940553 1149.9347357556542,564.2994653414146 1151.8083106009308,570.4923227786675 1146.4975196481682,566.7967490214482 1141.186728695406,570.4923227786675 1143.0603035406823,564.2994653414146 1137.9044793794533,560.3905980940553 1144.3732032670632,560.2587754675698" fill="#CE93D8" opacity="0.04966620983555913"/><rect x="410.7276634313166" y="116.47091968916357" width="107.10607131943107" height="61.02658503688872" rx="8" fill="none" stroke="#CE93D8" stroke-width="1.5" opacity="0.06"/><rect x="589.7027894388884" y="469.16036680340767" width="123.98542944807559" height="81.35811452753842" rx="8" fill="none" stroke="#CE93D8" stroke-width="1.5" opacity="0.06"/><rect x="431.8880569189787" y="224.7492294991389" width="101.85848052147776" height="80.89524367824197" rx="8" fill="none" stroke="#CE93D8" stroke-width="1.5" opacity="0.06"/>

  <!-- Large icon watermark -->
  <polygon points="986.4845877047628,104.64081776794046 1007.8512419369968,166.1099496538764 1072.914519638816,167.43583901063874 1021.0565604783841,206.75174113185943 1039.9012232853477,269.04031770559624 986.4845877047628,231.86974962893873 933.067952124178,269.04031770559624 951.9126149311415,206.75174113185943 900.0546557707096,167.43583901063872 965.1179334725289,166.1099496538764" fill="#CE93D8" opacity="0.1"/>

  <!-- Subtle grid overlay -->
  <rect width="1200" height="630" fill="url(#bg-981507613)" opacity="0"/>

  <!-- Bottom gradient overlay for text readability -->
  <rect x="0" y="300" width="1200" height="330" fill="url(#bg-981507613)" opacity="0.3"/>

  <!-- Accent line -->
  <rect x="80" y="240" width="60" height="4" rx="2" fill="url(#accent-line-981507613)"/>

  <!-- Category badge -->
  <rect x="80" y="200" width="109" height="30" rx="15" fill="#CE93D8" opacity="0.2"/>
  <text x="96" y="220" font-family="'Fira Sans', 'Segoe UI', Arial, sans-serif" font-size="12" font-weight="700" fill="#CE93D8" letter-spacing="2" text-anchor="start">REVIEWS</text>

  <!-- Title -->
  <text x="80" y="300" font-family="'Fira Sans', 'Segoe UI', Arial, sans-serif" font-size="42" font-weight="800" fill="white" letter-spacing="-0.5">Robinhood Crypto Review 2025: Good for</text>
  <text x="80" y="352.5" font-family="'Fira Sans', 'Segoe UI', Arial, sans-serif" font-size="42" font-weight="800" fill="white" letter-spacing="-0.5">Beginners?</text>

  <!-- Author bar -->
  <g transform="translate(80, 435)">
    <!-- Author avatar circle -->
    <circle cx="16" cy="12" r="16" fill="#CE93D8" opacity="0.2"/>
    <text x="16" y="17" font-family="'Fira Sans', Arial, sans-serif" font-size="13" font-weight="700" fill="#CE93D8" text-anchor="middle">YK</text>

    <text x="44" y="10" font-family="'Fira Sans', Arial, sans-serif" font-size="14" font-weight="600" fill="#CE93D8">Yosef Kamel</text>
    <text x="44" y="28" font-family="'Fira Sans', Arial, sans-serif" font-size="12" font-weight="400" fill="white" opacity="0.5">Crypto Pointers</text>
  </g>

  <!-- Branding: bottom bar -->
  <rect x="0" y="610" width="1200" height="20" fill="#CE93D8" opacity="0.08"/>
  <text x="1120" y="600" font-family="'Fira Sans', Arial, sans-serif" font-size="11" font-weight="600" fill="white" opacity="0.25" text-anchor="end">cryptopointers.com</text>

  <!-- Corner accent -->
  <rect x="0" y="0" width="4" height="630" fill="#CE93D8" opacity="0.3"/>
</svg>