<svg xmlns="http://www.w3.org/2000/svg" width="1200" height="630" viewBox="0 0 1200 630">
  <defs>
    <linearGradient id="bg-699958063" x1="0" y1="0" x2="1" y2="1">
      <stop offset="0%" stop-color="#1a2e1a"/>
      <stop offset="100%" stop-color="#0d1a0d"/>
    </linearGradient>
    <radialGradient id="orb1-699958063" cx="50%" cy="50%" r="50%">
      <stop offset="0%" stop-color="#66BB6A" stop-opacity="0.25"/>
      <stop offset="100%" stop-color="#66BB6A" stop-opacity="0"/>
    </radialGradient>
    <radialGradient id="orb2-699958063" cx="50%" cy="50%" r="50%">
      <stop offset="0%" stop-color="#D97706" stop-opacity="0.15"/>
      <stop offset="100%" stop-color="#D97706" stop-opacity="0"/>
    </radialGradient>
    <linearGradient id="accent-line-699958063" x1="0" y1="0" x2="1" y2="0">
      <stop offset="0%" stop-color="#66BB6A"/>
      <stop offset="100%" stop-color="#D97706"/>
    </linearGradient>
  </defs>

  <!-- Background -->
  <rect width="1200" height="630" fill="url(#bg-699958063)"/>

  <!-- Glow orbs -->
  <ellipse cx="1091.0708419512957" cy="59.07893073745072" rx="350" ry="300" fill="url(#orb1-699958063)"/>
  <ellipse cx="19.90866013802588" cy="435.51585925742984" rx="300" ry="280" fill="url(#orb2-699958063)"/>

  <!-- Category decorations -->
  <path d="M0,406.4639685675502 Q50,400.26799887418747 100,413.9128625858575 Q150,450.0633892137557 200,421.85643427073956 Q250,421.10381247475743 300,420.47650206368417 Q350,403.9774307049811 400,353.2603739062324 Q450,330.72582026943564 500,377.150095498655 Q550,397.394895600155 600,377.61174163315445 Q650,497.5619004108012 700,465.8400640822947 Q750,312.67606765031815 800,482.4160352931358 Q850,381.8526220973581 900,497.16893585864455 Q950,363.87415612116456 1000,356.4013735158369 Q1050,446.3587660342455 1100,483.3479849854484 Q1150,471.96178431622684 1200,446.0436191293411 Q1250,398.9188449922949 1300,445.8252065698616" fill="none" stroke="#66BB6A" stroke-width="2" opacity="0.08"/><rect x="159.43165273405612" y="213.79108089022338" width="8" height="124.85600609332323" rx="2" fill="#66BB6A" opacity="0.06"/><line x1="163.43165273405612" y1="193.79108089022338" x2="163.43165273405612" y2="358.6470869835466" stroke="#66BB6A" stroke-width="1" opacity="0.05"/><rect x="360.1917703729123" y="235.61329538933933" width="8" height="60.29105016030371" rx="2" fill="#66BB6A" opacity="0.06"/><line x1="364.1917703729123" y1="215.61329538933933" x2="364.1917703729123" y2="315.90434554964304" stroke="#66BB6A" stroke-width="1" opacity="0.05"/><rect x="532.7623335737735" y="229.11871173419058" width="8" height="171.38961729593575" rx="2" fill="#66BB6A" opacity="0.06"/><line x1="536.7623335737735" y1="209.11871173419058" x2="536.7623335737735" y2="420.50832903012633" stroke="#66BB6A" stroke-width="1" opacity="0.05"/><rect x="713.526045223698" y="357.3890468105674" width="8" height="70.23034600540996" rx="2" fill="#66BB6A" opacity="0.06"/><line x1="717.526045223698" y1="337.3890468105674" x2="717.526045223698" y2="447.61939281597733" stroke="#66BB6A" stroke-width="1" opacity="0.05"/><rect x="905.4590934887528" y="294.27582626231015" width="8" height="117.93446545489132" rx="2" fill="#66BB6A" opacity="0.06"/><line x1="909.4590934887528" y1="274.27582626231015" x2="909.4590934887528" y2="432.21029171720147" stroke="#66BB6A" stroke-width="1" opacity="0.05"/><rect x="1066.1094979010522" y="346.3040609844029" width="8" height="80.81184449605644" rx="2" fill="#66BB6A" opacity="0.06"/><line x1="1070.1094979010522" y1="326.3040609844029" x2="1070.1094979010522" y2="447.11590548045933" stroke="#66BB6A" stroke-width="1" opacity="0.05"/>

  <!-- Large icon watermark -->
  <polyline points="888.9513109112158,340.77555540483445 950.5842536408454,242.16284703742713 1012.217196370475,279.1426126752049 1073.8501391001046,168.20331576187164 1135.4830818297341,118.89696157816797" fill="none" stroke="#66BB6A" stroke-width="3" opacity="0.12" stroke-linecap="round" stroke-linejoin="round"/>

  <!-- Subtle grid overlay -->
  <rect width="1200" height="630" fill="url(#bg-699958063)" opacity="0"/>

  <!-- Bottom gradient overlay for text readability -->
  <rect x="0" y="300" width="1200" height="330" fill="url(#bg-699958063)" opacity="0.3"/>

  <!-- Accent line -->
  <rect x="80" y="240" width="60" height="4" rx="2" fill="url(#accent-line-699958063)"/>

  <!-- Category badge -->
  <rect x="80" y="200" width="131" height="30" rx="15" fill="#66BB6A" opacity="0.2"/>
  <text x="96" y="220" font-family="'Fira Sans', 'Segoe UI', Arial, sans-serif" font-size="12" font-weight="700" fill="#66BB6A" letter-spacing="2" text-anchor="start">INVESTING</text>

  <!-- Title -->
  <text x="80" y="300" font-family="'Fira Sans', 'Segoe UI', Arial, sans-serif" font-size="42" font-weight="800" fill="white" letter-spacing="-0.5">Small-Cap Crypto Investing: High Risk,</text>
  <text x="80" y="352.5" font-family="'Fira Sans', 'Segoe UI', Arial, sans-serif" font-size="42" font-weight="800" fill="white" letter-spacing="-0.5">High Reward Strategies</text>

  <!-- Author bar -->
  <g transform="translate(80, 435)">
    <!-- Author avatar circle -->
    <circle cx="16" cy="12" r="16" fill="#66BB6A" opacity="0.2"/>
    <text x="16" y="17" font-family="'Fira Sans', Arial, sans-serif" font-size="13" font-weight="700" fill="#66BB6A" text-anchor="middle">YK</text>

    <text x="44" y="10" font-family="'Fira Sans', Arial, sans-serif" font-size="14" font-weight="600" fill="#66BB6A">Yosef Kamel</text>
    <text x="44" y="28" font-family="'Fira Sans', Arial, sans-serif" font-size="12" font-weight="400" fill="white" opacity="0.5">Crypto Pointers</text>
  </g>

  <!-- Branding: bottom bar -->
  <rect x="0" y="610" width="1200" height="20" fill="#66BB6A" opacity="0.08"/>
  <text x="1120" y="600" font-family="'Fira Sans', Arial, sans-serif" font-size="11" font-weight="600" fill="white" opacity="0.25" text-anchor="end">cryptopointers.com</text>

  <!-- Corner accent -->
  <rect x="0" y="0" width="4" height="630" fill="#66BB6A" opacity="0.3"/>
</svg>