<svg xmlns="http://www.w3.org/2000/svg" width="1200" height="630" viewBox="0 0 1200 630">
  <defs>
    <linearGradient id="bg-1075732922" x1="0" y1="0" x2="1" y2="1">
      <stop offset="0%" stop-color="#2d1a3d"/>
      <stop offset="100%" stop-color="#1a0d28"/>
    </linearGradient>
    <radialGradient id="orb1-1075732922" cx="50%" cy="50%" r="50%">
      <stop offset="0%" stop-color="#CE93D8" stop-opacity="0.25"/>
      <stop offset="100%" stop-color="#CE93D8" stop-opacity="0"/>
    </radialGradient>
    <radialGradient id="orb2-1075732922" cx="50%" cy="50%" r="50%">
      <stop offset="0%" stop-color="#D97706" stop-opacity="0.15"/>
      <stop offset="100%" stop-color="#D97706" stop-opacity="0"/>
    </radialGradient>
    <linearGradient id="accent-line-1075732922" x1="0" y1="0" x2="1" y2="0">
      <stop offset="0%" stop-color="#CE93D8"/>
      <stop offset="100%" stop-color="#D97706"/>
    </linearGradient>
  </defs>

  <!-- Background -->
  <rect width="1200" height="630" fill="url(#bg-1075732922)"/>

  <!-- Glow orbs -->
  <ellipse cx="847.2517206566408" cy="-10.89449287392199" rx="350" ry="300" fill="url(#orb1-1075732922)"/>
  <ellipse cx="12.462412752211094" cy="493.3622636832297" rx="300" ry="280" fill="url(#orb2-1075732922)"/>

  <!-- Category decorations -->
  <polygon points="765.3206476485357,112.96516675977037 766.9178761673393,117.5601889568443 771.781572726598,117.659303599239 767.9050176797606,120.5982981384856 769.3137189455448,125.25457655334226 765.3206476485357,122.47595287427306 761.3275763515265,125.25457655334226 762.7362776173107,120.5982981384856 758.8597225704733,117.659303599239 763.7234191297321,117.5601889568443" fill="#CE93D8" opacity="0.094504360887222"/><polygon points="667.381812281441,611.8992164915893 669.1010074847151,616.8451212429424 674.3361029619241,616.9518044230717 670.1635285536343,620.1152248446568 671.6798002896262,625.1270634273577 667.381812281441,622.1362600172497 663.0838242732557,625.1270634273577 664.6000960092476,620.1152248446568 660.4275216009578,616.9518044230717 665.6626170781668,616.8451212429424" fill="#CE93D8" opacity="0.051436452851630746"/><polygon points="503.21191905159503,570.0664332109503 505.1060224389159,575.5155264407729 510.87372819882376,575.6330633978724 506.2766427104865,579.1183251788693 507.9471775198972,584.6400602431137 503.21191905159503,581.3449772536383 498.47666058329287,584.6400602431137 500.14719539270357,579.1183251788693 495.5501099043663,575.6330633978724 501.3178156642742,575.5155264407729" fill="#CE93D8" opacity="0.09565589277073741"/><polygon points="935.0998912807554,15.006808830518274 936.2914611064015,18.434802842488672 939.9198924754157,18.508744683475637 937.0278917586195,20.701303337091417 938.0788158448705,24.1749959199825 935.0998912807554,22.102077678274362 932.1209667166403,24.1749959199825 933.1718908028913,20.70130333709142 930.2798900860951,18.508744683475634 933.9083214551093,18.434802842488672" fill="#CE93D8" opacity="0.044307427685707806"/><polygon points="487.38370974874124,282.4872743099462 490.2197970494654,290.6463347989414 498.85592386782525,290.82232575784434 491.97259539637486,296.0408934152126 494.4739280005516,304.3087222985225 487.38370974874124,299.37491399437187 480.29349149693087,304.3087222985225 482.7948241011076,296.0408934152126 475.9114956296572,290.82232575784434 484.5476224480171,290.6463347989414" fill="#CE93D8" opacity="0.04284761040937156"/><polygon points="1044.8470190642402,196.27493267422543 1045.7351595271202,198.82999921167414 1048.4396227035506,198.88511200445132 1046.2840605199644,200.5193427608893 1047.0673702214406,203.10847087748922 1044.8470190642402,201.56341449297963 1042.6266679070397,203.10847087748922 1043.4099776085159,200.5193427608893 1041.2544154249297,198.88511200445132 1043.95887860136,198.82999921167414" fill="#CE93D8" opacity="0.07190874197985977"/><polygon points="607.476554711815,499.4146063312422 610.3948647340786,507.81021107557103 619.2813667261453,507.99130429476185 612.1984795175471,513.3611666020578 614.7723297674742,521.8686931109786 607.476554711815,516.7918457874656 600.1807796561558,521.8686931109786 602.7546299060829,513.3611666020578 595.6717426974847,507.99130429476185 604.5582446895513,507.81021107557103" fill="#CE93D8" opacity="0.05787829528562725"/><polygon points="373.3088192329742,17.31969013842754 375.77553672202265,24.416120913767145 383.28690107778476,24.569190946600585 377.30005197089844,29.108096397404672 379.47561295559535,36.2991296556944 373.3088192329742,32.00789672067389 367.14202551035305,36.2991296556944 369.31758649504997,29.108096397404672 363.33073738816364,24.569190946600582 370.84210174392575,24.416120913767145" fill="#CE93D8" opacity="0.09577256986871362"/><polygon points="302.4405870363116,236.61644790796564 303.8607722757778,240.7021392304519 308.1853570057544,240.79026760437387 304.7384950240887,243.40349208313282 305.99105013497694,247.54364973607613 302.4405870363116,245.0730199616961 298.8901239376463,247.54364973607613 300.14267904853455,243.40349208313282 296.69581706686887,240.79026760437387 301.0204017968455,240.7021392304519" fill="#CE93D8" opacity="0.07493792936205865"/><polygon points="363.0028085350059,110.07727100546472 365.95177016416574,118.56105650314566 374.93160890375555,118.74405178144735 367.77432868250577,124.1703148505793 370.37521260790544,132.76719765003145 363.0028085350059,127.63702716097235 355.63040446210636,132.76719765003145 358.231288387506,124.1703148505793 351.07400816625625,118.74405178144735 360.05384690584606,118.56105650314566" fill="#CE93D8" opacity="0.053161775264889"/><polygon points="171.19191391253844,409.45613833130335 173.06918927978114,414.8568194993065 178.7856522886425,414.97331220808934 174.22940926298006,418.42760944109955 175.88510233064517,423.90028706257203 171.19191391253844,420.634478991814 166.4987254944317,423.90028706257203 168.15441856209682,418.42760944109955 163.59817553643438,414.97331220808934 169.31463854529574,414.8568194993065" fill="#CE93D8" opacity="0.06120182264130562"/><polygon points="207.5964091657661,544.5737417283002 209.53255921226204,550.1437978196968 215.42830062214142,550.2639439460787 210.72916574831623,553.8265740561872 212.43678428200596,559.4708845373044 207.5964091657661,556.1026549432986 202.75603404952622,559.4708845373044 204.46365258321595,553.8265740561872 199.76451770939076,550.2639439460787 205.66025911927014,550.1437978196968" fill="#CE93D8" opacity="0.06380131777841598"/><rect x="590.9155898261815" y="203.0930786859244" width="119.36935062520206" height="66.49098833091557" rx="8" fill="none" stroke="#CE93D8" stroke-width="1.5" opacity="0.06"/><rect x="457.8902814537287" y="479.6232396038249" width="136.26138364430517" height="85.71174912154675" rx="8" fill="none" stroke="#CE93D8" stroke-width="1.5" opacity="0.06"/><rect x="443.0269382428378" y="376.39623205177486" width="131.1863645259291" height="51.99763643555343" rx="8" fill="none" stroke="#CE93D8" stroke-width="1.5" opacity="0.06"/>

  <!-- Large icon watermark -->
  <polygon points="1037.283666646108,122.97521882038563 1063.654268671406,198.8400686085736 1143.9549925979309,200.47647364310683 1079.9521970268372,248.99993439814543 1103.2101717093533,325.87613811703636 1037.283666646108,280.0004363272339 971.3571615828629,325.87613811703636 994.615136265379,248.99993439814546 930.6123406942853,200.47647364310677 1010.9130646208099,198.84006860857363" fill="#CE93D8" opacity="0.1"/>

  <!-- Subtle grid overlay -->
  <rect width="1200" height="630" fill="url(#bg-1075732922)" opacity="0"/>

  <!-- Bottom gradient overlay for text readability -->
  <rect x="0" y="300" width="1200" height="330" fill="url(#bg-1075732922)" opacity="0.3"/>

  <!-- Accent line -->
  <rect x="80" y="220" width="60" height="4" rx="2" fill="url(#accent-line-1075732922)"/>

  <!-- Category badge -->
  <rect x="80" y="180" width="109" height="30" rx="15" fill="#CE93D8" opacity="0.2"/>
  <text x="96" y="200" font-family="'Fira Sans', 'Segoe UI', Arial, sans-serif" font-size="12" font-weight="700" fill="#CE93D8" letter-spacing="2" text-anchor="start">REVIEWS</text>

  <!-- Title -->
  <text x="80" y="280" font-family="'Fira Sans', 'Segoe UI', Arial, sans-serif" font-size="38" font-weight="800" fill="white" letter-spacing="-0.5">Top 5 Crypto Wallets Reviewed:</text>
  <text x="80" y="327.5" font-family="'Fira Sans', 'Segoe UI', Arial, sans-serif" font-size="38" font-weight="800" fill="white" letter-spacing="-0.5">Security, Ease of Use and Features</text>
  <text x="80" y="375" font-family="'Fira Sans', 'Segoe UI', Arial, sans-serif" font-size="38" font-weight="800" fill="white" letter-spacing="-0.5">Compared</text>

  <!-- Author bar -->
  <g transform="translate(80, 452.5)">
    <!-- Author avatar circle -->
    <circle cx="16" cy="12" r="16" fill="#CE93D8" opacity="0.2"/>
    <text x="16" y="17" font-family="'Fira Sans', Arial, sans-serif" font-size="13" font-weight="700" fill="#CE93D8" text-anchor="middle">YK</text>

    <text x="44" y="10" font-family="'Fira Sans', Arial, sans-serif" font-size="14" font-weight="600" fill="#CE93D8">Yosef Kamel</text>
    <text x="44" y="28" font-family="'Fira Sans', Arial, sans-serif" font-size="12" font-weight="400" fill="white" opacity="0.5">Crypto Pointers</text>
  </g>

  <!-- Branding: bottom bar -->
  <rect x="0" y="610" width="1200" height="20" fill="#CE93D8" opacity="0.08"/>
  <text x="1120" y="600" font-family="'Fira Sans', Arial, sans-serif" font-size="11" font-weight="600" fill="white" opacity="0.25" text-anchor="end">cryptopointers.com</text>

  <!-- Corner accent -->
  <rect x="0" y="0" width="4" height="630" fill="#CE93D8" opacity="0.3"/>
</svg>