<svg xmlns="http://www.w3.org/2000/svg" width="1200" height="630" viewBox="0 0 1200 630">
  <defs>
    <linearGradient id="bg-2130869556" x1="0" y1="0" x2="1" y2="1">
      <stop offset="0%" stop-color="#2d1a3d"/>
      <stop offset="100%" stop-color="#1a0d28"/>
    </linearGradient>
    <radialGradient id="orb1-2130869556" cx="50%" cy="50%" r="50%">
      <stop offset="0%" stop-color="#CE93D8" stop-opacity="0.25"/>
      <stop offset="100%" stop-color="#CE93D8" stop-opacity="0"/>
    </radialGradient>
    <radialGradient id="orb2-2130869556" cx="50%" cy="50%" r="50%">
      <stop offset="0%" stop-color="#D97706" stop-opacity="0.15"/>
      <stop offset="100%" stop-color="#D97706" stop-opacity="0"/>
    </radialGradient>
    <linearGradient id="accent-line-2130869556" x1="0" y1="0" x2="1" y2="0">
      <stop offset="0%" stop-color="#CE93D8"/>
      <stop offset="100%" stop-color="#D97706"/>
    </linearGradient>
  </defs>

  <!-- Background -->
  <rect width="1200" height="630" fill="url(#bg-2130869556)"/>

  <!-- Glow orbs -->
  <ellipse cx="855.9114570263773" cy="33.71661268174648" rx="350" ry="300" fill="url(#orb1-2130869556)"/>
  <ellipse cx="14.487512479536235" cy="439.54076720401645" rx="300" ry="280" fill="url(#orb2-2130869556)"/>

  <!-- Category decorations -->
  <polygon points="231.63518176041543,264.0148377736099 233.83089868644288,270.33163458434075 240.5170433003801,270.46788791024943 235.1879263764013,274.50813636521667 237.12447407548407,280.9091423624393 231.63518176041543,277.0893564198725 226.1458894453468,280.9091423624393 228.08243714442958,274.50813636521667 222.75332022045077,270.46788791024943 229.439464834388,270.33163458434075" fill="#CE93D8" opacity="0.09614395271986723"/><polygon points="1144.8142173290253,505.4825126059353 1146.6022018998412,510.62631557101093 1152.046766846377,510.7372674161961 1147.7072371359661,514.0272643252305 1149.2841787560653,519.239639301745 1144.8142173290253,516.1291662493348 1140.3442559019852,519.239639301745 1141.9211975220844,514.0272643252305 1137.5816678116735,510.7372674161961 1143.0262327582093,510.62631557101093" fill="#CE93D8" opacity="0.041013286164961756"/><polygon points="44.91266227187589,460.0089646790642 46.02010609455946,463.19493893843634 49.39236663620871,463.2636604126432 46.70454401760902,465.30142226642437 47.68127182858481,468.52986873261335 44.91266227187589,466.603300559856 42.144052715166964,468.52986873261335 43.12078052614276,465.30142226642437 40.43295790754306,463.2636604126432 43.80521844919232,463.19493893843634" fill="#CE93D8" opacity="0.07167297800071537"/><polygon points="807.0622888216749,242.00675481986255 808.4078913447054,245.87788120470518 812.5053653657023,245.96138141228693 809.2395194392858,248.4373693004479 810.4262951292511,252.36010165164373 807.0622888216749,250.01921993741766 803.6982825140987,252.36010165164373 804.885058204064,248.4373693004479 801.6192122776474,245.96138141228693 805.7166862986444,245.87788120470518" fill="#CE93D8" opacity="0.04887186722364277"/><polygon points="1112.248578920029,325.9749413091689 1114.890614734978,333.5757404886428 1122.935838290234,333.7396897494466 1116.523482668111,338.6011912448276 1118.8536684574015,346.30331663990864 1112.248578920029,341.7070906209387 1105.6434893826568,346.30331663990864 1107.9736751719472,338.6011912448276 1101.5613195498242,333.7396897494466 1109.6065431050802,333.5757404886428" fill="#CE93D8" opacity="0.04538053705822676"/><polygon points="1074.031420176383,251.28689518510365 1076.8560154647319,259.41289462407826 1085.4571481289104,259.5881724560344 1078.6017113573942,264.7855941338394 1081.0929083972549,273.0199212304373 1074.031420176383,268.1061050422117 1066.9699319555114,273.0199212304373 1069.461128995372,264.7855941338394 1062.6056922238558,259.5881724560344 1071.2068248880344,259.41289462407826" fill="#CE93D8" opacity="0.0633686006302014"/><polygon points="515.6368952603079,48.56571884485893 518.3494590438512,56.36941797095269 526.6094462563702,56.53774378420581 520.0259156587329,61.52902089536272 522.418304719166,69.43675109523087 515.6368952603079,64.71783087110147 508.8554858014499,69.43675109523087 511.247874861883,61.52902089536272 504.6643442642456,56.5377437842058 512.9243314767647,56.36941797095269" fill="#CE93D8" opacity="0.09539894999936223"/><polygon points="813.0127011435106,303.19421422304583 814.8049982454755,308.3504237887559 820.2626952158037,308.4616432443535 815.9126987724278,311.75957546467725 817.493443898423,316.98452243415693 813.0127011435106,313.86654707320037 808.5319583885982,316.98452243415693 810.1127035145935,311.75957546467725 805.7627070712176,308.4616432443535 811.2204040415457,308.3504237887559" fill="#CE93D8" opacity="0.0625554556492716"/><polygon points="521.126141472254,628.4871327368077 523.1739954236377,634.3785466780153 529.4098847155907,634.505624494169 524.4396387695887,638.2737963677838 526.2457763507134,644.2437487185905 521.126141472254,640.6811930707283 516.0065065937945,644.2437487185905 517.8126441749192,638.2737963677838 512.8423982289172,634.505624494169 519.0782875208702,634.3785466780153" fill="#CE93D8" opacity="0.05995019872207195"/><polygon points="508.0112649369985,590.7943425584584 509.7595923430469,595.8240569318046 515.0833978531216,595.9325478857285 510.84011810344776,599.1495732760841 512.3820834521194,604.2463387464271 508.0112649369985,601.2048554069921 503.64044642187747,604.2463387464271 505.1824117705492,599.1495732760841 500.9391320208754,595.9325478857285 506.26293753095007,595.8240569318046" fill="#CE93D8" opacity="0.06407607335131615"/><polygon points="278.1144892806187,317.6761876792647 279.3084579876263,321.1110829661462 282.94419415422374,321.1851736676535 280.04637123006074,323.3821464042503 281.09941104813765,326.8628322629137 278.1144892806187,324.78574079960583 275.1295675130998,326.8628322629137 276.1826073311767,323.3821464042503 273.2847844070137,321.1851736676535 276.92052057361116,321.1110829661462" fill="#CE93D8" opacity="0.09004743430297821"/><polygon points="175.45189238712192,227.66915769139305 176.42805285051102,230.47744651442176 179.4005444077155,230.5380213126486 177.03135319535934,232.33421405373358 177.8922935455947,235.17994016092814 175.45189238712192,233.4817595022358 173.01149122864913,235.17994016092814 173.8724315788845,232.33421405373358 171.50324036652833,230.53802131264857 174.4757319237328,230.47744651442176" fill="#CE93D8" opacity="0.05752461835276336"/><rect x="55.368125438690186" y="148.9351438358426" width="85.6599798751995" height="65.12814576737583" rx="8" fill="none" stroke="#CE93D8" stroke-width="1.5" opacity="0.06"/><rect x="187.1373790781945" y="491.334838909097" width="112.47756679076701" height="55.9198740310967" rx="8" fill="none" stroke="#CE93D8" stroke-width="1.5" opacity="0.06"/><rect x="770.5396560486406" y="361.07082408852875" width="114.86094756051898" height="53.11554594896734" rx="8" fill="none" stroke="#CE93D8" stroke-width="1.5" opacity="0.06"/>

  <!-- Large icon watermark -->
  <polygon points="978.3034132514149,123.62474969308823 998.8090235001944,182.6167681478205 1061.2503491078735,183.88922616053816 1011.4821875939983,221.62075664324138 1029.5674388733637,281.39919739909027 978.3034132514149,245.72654723022134 927.0393876294662,281.39919739909027 945.1246389088315,221.62075664324138 895.3564773949563,183.8892261605381 957.7978030026354,182.6167681478205" fill="#CE93D8" opacity="0.1"/>

  <!-- Subtle grid overlay -->
  <rect width="1200" height="630" fill="url(#bg-2130869556)" opacity="0"/>

  <!-- Bottom gradient overlay for text readability -->
  <rect x="0" y="300" width="1200" height="330" fill="url(#bg-2130869556)" opacity="0.3"/>

  <!-- Accent line -->
  <rect x="80" y="240" width="60" height="4" rx="2" fill="url(#accent-line-2130869556)"/>

  <!-- Category badge -->
  <rect x="80" y="200" width="109" height="30" rx="15" fill="#CE93D8" opacity="0.2"/>
  <text x="96" y="220" font-family="'Fira Sans', 'Segoe UI', Arial, sans-serif" font-size="12" font-weight="700" fill="#CE93D8" letter-spacing="2" text-anchor="start">REVIEWS</text>

  <!-- Title -->
  <text x="80" y="300" font-family="'Fira Sans', 'Segoe UI', Arial, sans-serif" font-size="42" font-weight="800" fill="white" letter-spacing="-0.5">Trezor Model T Review: Open-Source</text>
  <text x="80" y="352.5" font-family="'Fira Sans', 'Segoe UI', Arial, sans-serif" font-size="42" font-weight="800" fill="white" letter-spacing="-0.5">Security for Your Crypto</text>

  <!-- Author bar -->
  <g transform="translate(80, 435)">
    <!-- Author avatar circle -->
    <circle cx="16" cy="12" r="16" fill="#CE93D8" opacity="0.2"/>
    <text x="16" y="17" font-family="'Fira Sans', Arial, sans-serif" font-size="13" font-weight="700" fill="#CE93D8" text-anchor="middle">YK</text>

    <text x="44" y="10" font-family="'Fira Sans', Arial, sans-serif" font-size="14" font-weight="600" fill="#CE93D8">Yosef Kamel</text>
    <text x="44" y="28" font-family="'Fira Sans', Arial, sans-serif" font-size="12" font-weight="400" fill="white" opacity="0.5">Crypto Pointers</text>
  </g>

  <!-- Branding: bottom bar -->
  <rect x="0" y="610" width="1200" height="20" fill="#CE93D8" opacity="0.08"/>
  <text x="1120" y="600" font-family="'Fira Sans', Arial, sans-serif" font-size="11" font-weight="600" fill="white" opacity="0.25" text-anchor="end">cryptopointers.com</text>

  <!-- Corner accent -->
  <rect x="0" y="0" width="4" height="630" fill="#CE93D8" opacity="0.3"/>
</svg>