<svg xmlns="http://www.w3.org/2000/svg" width="1200" height="630" viewBox="0 0 1200 630">
  <defs>
    <linearGradient id="bg-998554124" x1="0" y1="0" x2="1" y2="1">
      <stop offset="0%" stop-color="#2d1a3d"/>
      <stop offset="100%" stop-color="#1a0d28"/>
    </linearGradient>
    <radialGradient id="orb1-998554124" cx="50%" cy="50%" r="50%">
      <stop offset="0%" stop-color="#CE93D8" stop-opacity="0.25"/>
      <stop offset="100%" stop-color="#CE93D8" stop-opacity="0"/>
    </radialGradient>
    <radialGradient id="orb2-998554124" cx="50%" cy="50%" r="50%">
      <stop offset="0%" stop-color="#D97706" stop-opacity="0.15"/>
      <stop offset="100%" stop-color="#D97706" stop-opacity="0"/>
    </radialGradient>
    <linearGradient id="accent-line-998554124" x1="0" y1="0" x2="1" y2="0">
      <stop offset="0%" stop-color="#CE93D8"/>
      <stop offset="100%" stop-color="#D97706"/>
    </linearGradient>
  </defs>

  <!-- Background -->
  <rect width="1200" height="630" fill="url(#bg-998554124)"/>

  <!-- Glow orbs -->
  <ellipse cx="990.5923375627026" cy="6.130141299217939" rx="350" ry="300" fill="url(#orb1-998554124)"/>
  <ellipse cx="51.02972658351064" cy="522.1856868825853" rx="300" ry="280" fill="url(#orb2-998554124)"/>

  <!-- Category decorations -->
  <polygon points="322.83395224111155,545.9799215945881 323.70757105749067,548.4932112120628 326.36781458639376,548.5474228765523 324.2474971792244,550.1549329482135 325.01799928205935,552.7017272169295 322.83395224111155,551.1819334609993 320.64990520016374,552.7017272169295 321.4204073029987,550.1549329482135 319.30008989582933,548.5474228765523 321.9603334247324,548.4932112120628" fill="#CE93D8" opacity="0.04484578472562134"/><polygon points="1177.7971056159586,222.24333173464984 1178.760393606817,225.014588100323 1181.6936873913673,225.07436410833503 1179.355738326122,226.84687074187258 1180.2053255931046,229.65507071220895 1177.7971056159586,227.97928369134664 1175.3888856388126,229.65507071220895 1176.238472905795,226.84687074187258 1173.9005238405498,225.07436410833503 1176.8338176251002,225.014588100323" fill="#CE93D8" opacity="0.052952804402448234"/><polygon points="677.9080240344629,56.279577129147945 679.4414644595624,60.69108913777465 684.1109208532986,60.786245464861246 680.3891827619972,63.60786615505746 681.7416250972119,68.07818800806828 677.9080240344629,65.41053348934278 674.0744229717138,68.07818800806828 675.4268653069286,63.60786615505746 671.7051272156272,60.78624546486124 676.3745836093633,60.69108913777465" fill="#CE93D8" opacity="0.07042898190673441"/><polygon points="1208.7823026613332,170.19928410449066 1211.3984336968103,177.725558546094 1219.3647749973973,177.88790030808133 1213.0152915957588,182.70173548363917 1215.3226302500261,190.32834265194424 1208.7823026613332,185.77718196507544 1202.2419750726403,190.32834265194424 1204.5493137269077,182.70173548363917 1198.1998303252692,177.88790030808133 1206.1661716258561,177.725558546094" fill="#CE93D8" opacity="0.08156319241039456"/><polygon points="1156.0356336189434,196.5997904703021 1157.3198640304122,200.294357138368 1161.2304547568,200.37404895233615 1158.113562074086,202.73710854087147 1159.2462096476152,206.48092745859483 1156.0356336189434,204.24681193368508 1152.8250575902716,206.48092745859483 1153.9577051638007,202.73710854087147 1150.8408124810867,200.37404895233615 1154.7514032074746,200.294357138368" fill="#CE93D8" opacity="0.07216969493310899"/><polygon points="1077.8531250110827,454.96335446168666 1079.2472540560052,458.9740854445035 1083.4924954595529,459.0605969236768 1080.1088731904708,461.6258764699632 1081.338447623389,465.69007448732617 1077.8531250110827,463.2647734547593 1074.3678023987766,465.69007448732617 1075.5973768316946,461.6258764699632 1072.2137545626126,459.0605969236768 1076.4589959661603,458.9740854445035" fill="#CE93D8" opacity="0.0448406736785546"/><polygon points="1179.6170861632563,558.2122136762831 1182.0915123630346,565.3308214266126 1189.6263503979928,565.4843698168622 1183.6207918571508,570.0374597493939 1185.8031516627022,577.2509656238154 1179.6170861632563,572.9463222056255 1173.4310206638104,577.2509656238154 1175.6133804693618,570.0374597493939 1169.6078219285198,565.4843698168622 1177.142659963478,565.3308214266126" fill="#CE93D8" opacity="0.0668769921315834"/><polygon points="985.1079574096948,362.5913679251447 986.0297920517586,365.24336830733665 988.8368568668608,365.30057196343193 986.5995171925612,366.99680199389957 987.4125440148545,369.68415617983914 985.1079574096948,368.0804836092144 982.8033708045351,369.68415617983914 983.6163976268284,366.99680199389957 981.3790579525288,365.30057196343193 984.186122767631,365.24336830733665" fill="#CE93D8" opacity="0.05994549460243434"/><polygon points="714.0811284943484,311.4900673966389 715.8786180914657,316.66121510689277 721.3521266507488,316.77275677831244 716.9895277569086,320.08024349551516 718.5748524871417,325.32032774986834 714.0811284943484,322.19331924818454 709.587404501555,325.32032774986834 711.1727292317881,320.08024349551516 706.810130337948,316.77275677831244 712.2836388972311,316.66121510689277" fill="#CE93D8" opacity="0.04682292922399938"/><polygon points="226.05917632440105,102.16423243689351 227.4797011244778,106.25090063183397 231.80531984536688,106.33905007689765 228.35763373278738,108.95289936717771 229.61048832459292,113.09404691525697 226.05917632440105,110.62282642317936 222.50786432420918,113.09404691525697 223.76071891601472,108.95289936717771 220.31303280343522,106.33905007689765 224.6386515243243,106.25090063183397" fill="#CE93D8" opacity="0.06986538657918573"/><polygon points="996.2910557407886,154.59439707463608 998.3847555989414,160.61770382690284 1004.760249572619,160.74762657138157 999.6787332735207,164.60015761342788 1001.5253053861708,170.7037610376942 996.2910557407886,167.06144941212608 991.0568060954064,170.7037610376942 992.9033782080564,164.6001576134279 987.8218619089581,160.74762657138157 994.1973558826357,160.61770382690284" fill="#CE93D8" opacity="0.05872269907966256"/><polygon points="1070.9803903065622,64.48296380983666 1073.9049574236974,72.8965694159614 1082.8105128013246,73.07805091379444 1075.7124393044671,78.45942664414923 1078.2918080994,86.98519398426403 1070.9803903065622,81.89746148573235 1063.6689725137244,86.98519398426403 1066.2483413086572,78.45942664414923 1059.1502678117997,73.07805091379444 1068.055823189427,72.8965694159614" fill="#CE93D8" opacity="0.040444107302464546"/><rect x="484.7459637094289" y="287.4394255923107" width="111.80506179109216" height="78.48894917406142" rx="8" fill="none" stroke="#CE93D8" stroke-width="1.5" opacity="0.06"/><rect x="295.3373028431088" y="250.31951849814504" width="136.51451084762812" height="77.11456126533449" rx="8" fill="none" stroke="#CE93D8" stroke-width="1.5" opacity="0.06"/><rect x="331.3157439697534" y="203.31462216563523" width="105.48349103424698" height="66.01951607502997" rx="8" fill="none" stroke="#CE93D8" stroke-width="1.5" opacity="0.06"/>

  <!-- Large icon watermark -->
  <polygon points="1020.633741626516,111.63822654355317 1041.4408838180036,171.4977138379408 1104.8003998129636,172.78888315609802 1054.3004049010951,211.07525017132926 1072.6515971052352,271.7327239895691 1020.633741626516,235.5355128163472 968.6158861477967,271.7327239895691 986.9670783519368,211.07525017132926 936.4670834400682,172.788883156098 999.8265994350282,171.49771383794084" fill="#CE93D8" opacity="0.1"/>

  <!-- Subtle grid overlay -->
  <rect width="1200" height="630" fill="url(#bg-998554124)" opacity="0"/>

  <!-- Bottom gradient overlay for text readability -->
  <rect x="0" y="300" width="1200" height="330" fill="url(#bg-998554124)" opacity="0.3"/>

  <!-- Accent line -->
  <rect x="80" y="240" width="60" height="4" rx="2" fill="url(#accent-line-998554124)"/>

  <!-- Category badge -->
  <rect x="80" y="200" width="109" height="30" rx="15" fill="#CE93D8" opacity="0.2"/>
  <text x="96" y="220" font-family="'Fira Sans', 'Segoe UI', Arial, sans-serif" font-size="12" font-weight="700" fill="#CE93D8" letter-spacing="2" text-anchor="start">REVIEWS</text>

  <!-- Title -->
  <text x="80" y="300" font-family="'Fira Sans', 'Segoe UI', Arial, sans-serif" font-size="42" font-weight="800" fill="white" letter-spacing="-0.5">Uniswap Review 2025: The King of</text>
  <text x="80" y="352.5" font-family="'Fira Sans', 'Segoe UI', Arial, sans-serif" font-size="42" font-weight="800" fill="white" letter-spacing="-0.5">Decentralized Exchanges</text>

  <!-- Author bar -->
  <g transform="translate(80, 435)">
    <!-- Author avatar circle -->
    <circle cx="16" cy="12" r="16" fill="#CE93D8" opacity="0.2"/>
    <text x="16" y="17" font-family="'Fira Sans', Arial, sans-serif" font-size="13" font-weight="700" fill="#CE93D8" text-anchor="middle">YK</text>

    <text x="44" y="10" font-family="'Fira Sans', Arial, sans-serif" font-size="14" font-weight="600" fill="#CE93D8">Yosef Kamel</text>
    <text x="44" y="28" font-family="'Fira Sans', Arial, sans-serif" font-size="12" font-weight="400" fill="white" opacity="0.5">Crypto Pointers</text>
  </g>

  <!-- Branding: bottom bar -->
  <rect x="0" y="610" width="1200" height="20" fill="#CE93D8" opacity="0.08"/>
  <text x="1120" y="600" font-family="'Fira Sans', Arial, sans-serif" font-size="11" font-weight="600" fill="white" opacity="0.25" text-anchor="end">cryptopointers.com</text>

  <!-- Corner accent -->
  <rect x="0" y="0" width="4" height="630" fill="#CE93D8" opacity="0.3"/>
</svg>