<svg xmlns="http://www.w3.org/2000/svg" width="1200" height="630" viewBox="0 0 1200 630">
  <defs>
    <linearGradient id="bg-417845946" x1="0" y1="0" x2="1" y2="1">
      <stop offset="0%" stop-color="#1a2e1a"/>
      <stop offset="100%" stop-color="#0d1a0d"/>
    </linearGradient>
    <radialGradient id="orb1-417845946" cx="50%" cy="50%" r="50%">
      <stop offset="0%" stop-color="#66BB6A" stop-opacity="0.25"/>
      <stop offset="100%" stop-color="#66BB6A" stop-opacity="0"/>
    </radialGradient>
    <radialGradient id="orb2-417845946" cx="50%" cy="50%" r="50%">
      <stop offset="0%" stop-color="#D97706" stop-opacity="0.15"/>
      <stop offset="100%" stop-color="#D97706" stop-opacity="0"/>
    </radialGradient>
    <linearGradient id="accent-line-417845946" x1="0" y1="0" x2="1" y2="0">
      <stop offset="0%" stop-color="#66BB6A"/>
      <stop offset="100%" stop-color="#D97706"/>
    </linearGradient>
  </defs>

  <!-- Background -->
  <rect width="1200" height="630" fill="url(#bg-417845946)"/>

  <!-- Glow orbs -->
  <ellipse cx="959.3938075937331" cy="89.64270842261612" rx="350" ry="300" fill="url(#orb1-417845946)"/>
  <ellipse cx="113.97535051219165" cy="402.30523478239775" rx="300" ry="280" fill="url(#orb2-417845946)"/>

  <!-- Category decorations -->
  <path d="M0,494.086166867055 Q50,462.6314912457019 100,449.9444484594278 Q150,410.35398626700044 200,410.86913594044745 Q250,424.8717152979225 300,468.1417505838908 Q350,497.0567596144974 400,370.61684457585216 Q450,323.34345364943147 500,389.9170730030164 Q550,416.04551784694195 600,361.1905808211304 Q650,439.2222848255187 700,375.5084627424367 Q750,305.5220209527761 800,413.6717248009518 Q850,374.5827025733888 900,420.4890189692378 Q950,407.8249366953969 1000,399.1353001212701 Q1050,323.73337442986667 1100,453.7037863396108 Q1150,373.0437446385622 1200,434.81310517527163 Q1250,450.01833122223616 1300,466.50913389166817" fill="none" stroke="#66BB6A" stroke-width="2" opacity="0.08"/><rect x="181.1045115441084" y="307.7884023543447" width="8" height="153.39633299969137" rx="2" fill="#66BB6A" opacity="0.06"/><line x1="185.1045115441084" y1="287.7884023543447" x2="185.1045115441084" y2="481.1847353540361" stroke="#66BB6A" stroke-width="1" opacity="0.05"/><rect x="359.4282751251012" y="322.9600508697331" width="8" height="64.7023522015661" rx="2" fill="#66BB6A" opacity="0.06"/><line x1="363.4282751251012" y1="302.9600508697331" x2="363.4282751251012" y2="407.6624030712992" stroke="#66BB6A" stroke-width="1" opacity="0.05"/><rect x="511.43034433946013" y="365.42220446281135" width="8" height="147.76013972237706" rx="2" fill="#66BB6A" opacity="0.06"/><line x1="515.4303443394601" y1="345.42220446281135" x2="515.4303443394601" y2="533.1823441851884" stroke="#66BB6A" stroke-width="1" opacity="0.05"/><rect x="725.3246761020273" y="294.6736670099199" width="8" height="143.28066897578537" rx="2" fill="#66BB6A" opacity="0.06"/><line x1="729.3246761020273" y1="274.6736670099199" x2="729.3246761020273" y2="457.95433598570526" stroke="#66BB6A" stroke-width="1" opacity="0.05"/><rect x="904.7084197215736" y="285.87256860919297" width="8" height="158.49027461372316" rx="2" fill="#66BB6A" opacity="0.06"/><line x1="908.7084197215736" y1="265.87256860919297" x2="908.7084197215736" y2="464.3628432229161" stroke="#66BB6A" stroke-width="1" opacity="0.05"/><rect x="1084.0210476703942" y="306.1754041351378" width="8" height="111.11038438975811" rx="2" fill="#66BB6A" opacity="0.06"/><line x1="1088.0210476703942" y1="286.1754041351378" x2="1088.0210476703942" y2="437.2857885248959" stroke="#66BB6A" stroke-width="1" opacity="0.05"/>

  <!-- Large icon watermark -->
  <polyline points="898.6868984531611,305.03250025678426 945.4718209337443,230.17662428785115 992.2567434143275,258.24757777620107 1039.0416658949107,174.03471731115133 1085.8265883754939,136.60677932668477" fill="none" stroke="#66BB6A" stroke-width="3" opacity="0.12" stroke-linecap="round" stroke-linejoin="round"/>

  <!-- Subtle grid overlay -->
  <rect width="1200" height="630" fill="url(#bg-417845946)" opacity="0"/>

  <!-- Bottom gradient overlay for text readability -->
  <rect x="0" y="300" width="1200" height="330" fill="url(#bg-417845946)" opacity="0.3"/>

  <!-- Accent line -->
  <rect x="80" y="240" width="60" height="4" rx="2" fill="url(#accent-line-417845946)"/>

  <!-- Category badge -->
  <rect x="80" y="200" width="131" height="30" rx="15" fill="#66BB6A" opacity="0.2"/>
  <text x="96" y="220" font-family="'Fira Sans', 'Segoe UI', Arial, sans-serif" font-size="12" font-weight="700" fill="#66BB6A" letter-spacing="2" text-anchor="start">INVESTING</text>

  <!-- Title -->
  <text x="80" y="300" font-family="'Fira Sans', 'Segoe UI', Arial, sans-serif" font-size="42" font-weight="800" fill="white" letter-spacing="-0.5">When to Take Profits in Crypto: A</text>
  <text x="80" y="352.5" font-family="'Fira Sans', 'Segoe UI', Arial, sans-serif" font-size="42" font-weight="800" fill="white" letter-spacing="-0.5">Systematic Approach</text>

  <!-- Author bar -->
  <g transform="translate(80, 435)">
    <!-- Author avatar circle -->
    <circle cx="16" cy="12" r="16" fill="#66BB6A" opacity="0.2"/>
    <text x="16" y="17" font-family="'Fira Sans', Arial, sans-serif" font-size="13" font-weight="700" fill="#66BB6A" text-anchor="middle">YK</text>

    <text x="44" y="10" font-family="'Fira Sans', Arial, sans-serif" font-size="14" font-weight="600" fill="#66BB6A">Yosef Kamel</text>
    <text x="44" y="28" font-family="'Fira Sans', Arial, sans-serif" font-size="12" font-weight="400" fill="white" opacity="0.5">Crypto Pointers</text>
  </g>

  <!-- Branding: bottom bar -->
  <rect x="0" y="610" width="1200" height="20" fill="#66BB6A" opacity="0.08"/>
  <text x="1120" y="600" font-family="'Fira Sans', Arial, sans-serif" font-size="11" font-weight="600" fill="white" opacity="0.25" text-anchor="end">cryptopointers.com</text>

  <!-- Corner accent -->
  <rect x="0" y="0" width="4" height="630" fill="#66BB6A" opacity="0.3"/>
</svg>