<svg xmlns="http://www.w3.org/2000/svg" width="1200" height="630" viewBox="0 0 1200 630">
  <defs>
    <linearGradient id="bg-1964805383" x1="0" y1="0" x2="1" y2="1">
      <stop offset="0%" stop-color="#2d1a3d"/>
      <stop offset="100%" stop-color="#1a0d28"/>
    </linearGradient>
    <radialGradient id="orb1-1964805383" cx="50%" cy="50%" r="50%">
      <stop offset="0%" stop-color="#CE93D8" stop-opacity="0.25"/>
      <stop offset="100%" stop-color="#CE93D8" stop-opacity="0"/>
    </radialGradient>
    <radialGradient id="orb2-1964805383" cx="50%" cy="50%" r="50%">
      <stop offset="0%" stop-color="#D97706" stop-opacity="0.15"/>
      <stop offset="100%" stop-color="#D97706" stop-opacity="0"/>
    </radialGradient>
    <linearGradient id="accent-line-1964805383" x1="0" y1="0" x2="1" y2="0">
      <stop offset="0%" stop-color="#CE93D8"/>
      <stop offset="100%" stop-color="#D97706"/>
    </linearGradient>
  </defs>

  <!-- Background -->
  <rect width="1200" height="630" fill="url(#bg-1964805383)"/>

  <!-- Glow orbs -->
  <ellipse cx="872.1345833968371" cy="-66.08328893780708" rx="350" ry="300" fill="url(#orb1-1964805383)"/>
  <ellipse cx="153.21899990085512" cy="445.33050283789635" rx="300" ry="280" fill="url(#orb2-1964805383)"/>

  <!-- Category decorations -->
  <polygon points="423.4449504185468,239.99809761308134 424.9304861905866,244.27179406084008 429.45406884520713,244.36397770587075 425.84859778921094,247.09745101321602 427.15878984864617,251.42812008681057 423.4449504185468,248.84380305033176 419.7311109884474,251.42812008681057 421.04130304788265,247.09745101321602 417.43583199188646,244.36397770587075 421.959414646507,244.27179406084008" fill="#CE93D8" opacity="0.04292607587762177"/><polygon points="325.23203674098477,482.0243560060393 326.3548284912207,485.2544842903063 329.773824776409,485.3241581669609 327.04875195515444,487.3901611113149 328.03901611657454,490.6633502194824 325.23203674098477,488.7100819756836 322.425057365395,490.6633502194824 323.4153215268151,487.3901611113149 320.6902487055605,485.3241581669609 324.10924499074883,485.2544842903063" fill="#CE93D8" opacity="0.04420018513221294"/><polygon points="1069.928486357443,452.8824928580783 1071.8712538803975,458.47158658301197 1077.7871460683928,458.5921433512056 1073.0719502418228,462.16695000771693 1074.7854051648294,467.8305519129681 1069.928486357443,464.45081020496787 1065.0715675500567,467.8305519129681 1066.7850224730632,462.16695000771693 1062.0698266464933,458.5921433512056 1067.9857188344886,458.47158658301197" fill="#CE93D8" opacity="0.06277738458476961"/><polygon points="418.5773345557973,572.0084106494672 420.27818593091285,576.9015425529933 425.4574228926697,577.0070874226387 421.3293698905462,580.1367541200997 422.82946299358616,585.0951163404048 418.5773345557973,582.1362248293683 414.3252061180084,585.0951163404048 415.82529922104834,580.1367541200997 411.6972462189249,577.0070874226387 416.8764831806817,576.9015425529933" fill="#CE93D8" opacity="0.07273145307321102"/><polygon points="232.76163486624137,247.17357155899518 233.9857014355813,250.69505454693115 237.71308815045262,250.77101294540645 234.74221617992586,253.02336752123074 235.8218012895912,256.59179538115546 232.76163486624137,254.46234407579527 229.70146844289152,256.59179538115546 230.78105355255687,253.02336752123074 227.8101815820301,250.77101294540645 231.53756829690144,250.69505454693115" fill="#CE93D8" opacity="0.09173822849988937"/><polygon points="643.1851024958305,456.4875808356795 644.2778288111696,459.6312147084774 647.6052732923806,459.6990229004205 644.9531708144506,461.7097036739382 645.9169182841781,464.89524531407255 643.1851024958305,462.9942804998346 640.4532867074829,464.89524531407255 641.4170341772104,461.7097036739382 638.7649316992804,459.6990229004205 642.0923761804914,459.6312147084774" fill="#CE93D8" opacity="0.0668233589315787"/><polygon points="808.0754155116156,242.03590143295006 811.0284898667176,250.53151871723642 820.0208522062671,250.7147692072102 812.8535901894762,256.14859993428405 815.4581013993704,264.7574722498293 808.0754155116156,259.6201470439881 800.6927296238607,264.7574722498293 803.2972408337549,256.14859993428405 796.129978816964,250.7147692072102 805.1223411565136,250.53151871723642" fill="#CE93D8" opacity="0.04566941541153938"/><polygon points="1072.8463199185207,593.3231673013419 1075.4915431790785,600.9331363542257 1083.5464727770561,601.0972834092261 1077.126381061935,605.9646499922435 1079.459378069915,613.6760675042707 1072.8463199185207,609.0742964353972 1066.2332617671266,613.6760675042707 1068.5662587751065,605.9646499922435 1062.1461670599854,601.0972834092261 1070.201096657963,600.9331363542257" fill="#CE93D8" opacity="0.04049730696249753"/><polygon points="1042.0763977044262,293.10406321831977 1044.2080631270833,299.2365920446777 1050.6991654706812,299.3688707096179 1045.5255048109282,303.29126062623584 1047.405561261069,309.50554216351327 1042.0763977044262,305.7971836227551 1036.7472341477835,309.50554216351327 1038.6272905979242,303.29126062623584 1033.4536299381712,299.3688707096179 1039.9447322817691,299.2365920446777" fill="#CE93D8" opacity="0.06472822848707438"/><polygon points="90.25588183756918,433.7802998154424 92.09699073210783,439.0769346663979 97.70332375845236,439.191183095814 93.23485860592245,442.57893188911777 94.85865407391579,447.9461761526137 90.25588183756918,444.7432852012664 85.65310960122257,447.9461761526137 87.2769050692159,442.57893188911777 82.808439916686,439.191183095814 88.41477294303053,439.0769346663979" fill="#CE93D8" opacity="0.060891885007731614"/><polygon points="384.2436139131896,35.157718708598985 385.1809871863179,37.85442174530312 388.03536845335776,37.912589637788564 385.7603157292569,39.63741166452222 386.5870470960103,42.370064435836305 384.2436139131896,40.73936003619805 381.90018073036896,42.370064435836305 382.72691209712235,39.63741166452222 380.4518593730215,37.912589637788564 383.30624064006133,37.85442174530312" fill="#CE93D8" opacity="0.07395687859971076"/><polygon points="798.1583472630009,477.1023513824679 799.0395658225161,479.6375044890998 801.7229512150332,479.6921877491153 799.5841888438138,481.3136817957142 800.3613936617891,483.8826310156514 798.1583472630009,482.34961634237317 795.9553008642127,483.8826310156514 796.732505682188,481.3136817957142 794.5937433109686,479.6921877491153 797.2771287034857,479.6375044890998" fill="#CE93D8" opacity="0.06350518466439098"/><rect x="464.00409913621843" y="238.35433775093406" width="129.34600948821753" height="75.71239209733903" rx="8" fill="none" stroke="#CE93D8" stroke-width="1.5" opacity="0.06"/><rect x="986.1691647674888" y="144.77631310001016" width="129.9460766138509" height="51.198846865445375" rx="8" fill="none" stroke="#CE93D8" stroke-width="1.5" opacity="0.06"/><rect x="811.8284246884286" y="306.7686007125303" width="95.03777517005801" height="69.58393321372569" rx="8" fill="none" stroke="#CE93D8" stroke-width="1.5" opacity="0.06"/>

  <!-- Large icon watermark -->
  <polygon points="976.1814603256062,107.39815946575254 1001.8757849850649,181.31744575389843 1080.117186868053,182.91188497797577 1017.7557509425849,230.19095555226136 1040.417271974253,305.0956594738831 976.1814603256062,260.3964457571507 911.9456486769594,305.0956594738831 934.6071697086275,230.19095555226136 872.2457337831593,182.91188497797575 950.4871356661474,181.31744575389845" fill="#CE93D8" opacity="0.1"/>

  <!-- Subtle grid overlay -->
  <rect width="1200" height="630" fill="url(#bg-1964805383)" opacity="0"/>

  <!-- Bottom gradient overlay for text readability -->
  <rect x="0" y="300" width="1200" height="330" fill="url(#bg-1964805383)" opacity="0.3"/>

  <!-- Accent line -->
  <rect x="80" y="220" width="60" height="4" rx="2" fill="url(#accent-line-1964805383)"/>

  <!-- Category badge -->
  <rect x="80" y="180" width="109" height="30" rx="15" fill="#CE93D8" opacity="0.2"/>
  <text x="96" y="200" font-family="'Fira Sans', 'Segoe UI', Arial, sans-serif" font-size="12" font-weight="700" fill="#CE93D8" letter-spacing="2" text-anchor="start">REVIEWS</text>

  <!-- Title -->
  <text x="80" y="280" font-family="'Fira Sans', 'Segoe UI', Arial, sans-serif" font-size="38" font-weight="800" fill="white" letter-spacing="-0.5">Worldcoin Review: Biometric Identity</text>
  <text x="80" y="327.5" font-family="'Fira Sans', 'Segoe UI', Arial, sans-serif" font-size="38" font-weight="800" fill="white" letter-spacing="-0.5">on Blockchain — Innovation or</text>
  <text x="80" y="375" font-family="'Fira Sans', 'Segoe UI', Arial, sans-serif" font-size="38" font-weight="800" fill="white" letter-spacing="-0.5">Dystopia?</text>

  <!-- Author bar -->
  <g transform="translate(80, 452.5)">
    <!-- Author avatar circle -->
    <circle cx="16" cy="12" r="16" fill="#CE93D8" opacity="0.2"/>
    <text x="16" y="17" font-family="'Fira Sans', Arial, sans-serif" font-size="13" font-weight="700" fill="#CE93D8" text-anchor="middle">YK</text>

    <text x="44" y="10" font-family="'Fira Sans', Arial, sans-serif" font-size="14" font-weight="600" fill="#CE93D8">Yosef Kamel</text>
    <text x="44" y="28" font-family="'Fira Sans', Arial, sans-serif" font-size="12" font-weight="400" fill="white" opacity="0.5">Crypto Pointers</text>
  </g>

  <!-- Branding: bottom bar -->
  <rect x="0" y="610" width="1200" height="20" fill="#CE93D8" opacity="0.08"/>
  <text x="1120" y="600" font-family="'Fira Sans', Arial, sans-serif" font-size="11" font-weight="600" fill="white" opacity="0.25" text-anchor="end">cryptopointers.com</text>

  <!-- Corner accent -->
  <rect x="0" y="0" width="4" height="630" fill="#CE93D8" opacity="0.3"/>
</svg>